<?xml version="1.0" encoding="UTF-8" standalone="no"?>
<!-- Created with Inkscape (http://www.inkscape.org/) -->

<svg
   xmlns:dc="http://purl.org/dc/elements/1.1/"
   xmlns:cc="http://creativecommons.org/ns#"
   xmlns:rdf="http://www.w3.org/1999/02/22-rdf-syntax-ns#"
   xmlns:svg="http://www.w3.org/2000/svg"
   xmlns="http://www.w3.org/2000/svg"
   xmlns:sodipodi="http://sodipodi.sourceforge.net/DTD/sodipodi-0.dtd"
   xmlns:inkscape="http://www.inkscape.org/namespaces/inkscape"
   width="744.09448819"
   height="1052.3622047"
   id="svg2023"
   sodipodi:version="0.32"
   inkscape:version="0.48.0 r9654"
   sodipodi:docname="Naujas dokumentas 2"
   version="1.1">
  <defs
     id="defs2025" />
  <sodipodi:namedview
     id="base"
     pagecolor="#ffffff"
     bordercolor="#666666"
     borderopacity="1.0"
     inkscape:pageopacity="0.0"
     inkscape:pageshadow="2"
     inkscape:zoom="0.35"
     inkscape:cx="375"
     inkscape:cy="634.28571"
     inkscape:document-units="px"
     inkscape:current-layer="layer1"
     inkscape:window-width="747"
     inkscape:window-height="546"
     inkscape:window-x="132"
     inkscape:window-y="132"
     showgrid="false"
     inkscape:window-maximized="0" />
  <metadata
     id="metadata2028">
    <rdf:RDF>
      <cc:Work
         rdf:about="">
        <dc:format>image/svg+xml</dc:format>
        <dc:type
           rdf:resource="http://purl.org/dc/dcmitype/StillImage" />
        <dc:title></dc:title>
      </cc:Work>
    </rdf:RDF>
  </metadata>
  <g
     inkscape:label="Sluoksnis 1"
     inkscape:groupmode="layer"
     id="layer1">
    <g
       transform="matrix(7.3715902,0,0,7.3715902,-1430.133,-433.57132)"
       id="Layer_4">
      <path
         style="fill:none;stroke:#000000;stroke-width:0.5"
         inkscape:connector-curvature="0"
         d="m 238.167,157.167 c 0,0 -24.334,-67.5 -0.667,-95.667 0,0 -3,26.5 29.5,24 0,0 -17,27.5 -16,69.5 0,0 17.5,7 10,-7.5 l -4.5,-1 c 0,0 7.5,-5.5 10.5,6 0,0 1,4.5 -4,10.5 l -2.5,9.5 c 0,0 -19,-15 -34.5,3.5 l -3.333,-10.167 c 0,0 -9,-15.333 0.667,-18.833 0,0 4.167,-0.833 6.167,1.167 0,0 -10.167,4.167 -0.667,10 0,0 6.833,4.333 15.333,-7.167 l 6.833,4"
         id="path137" />
      <path
         style="fill:none;stroke:#000000;stroke-width:0.5"
         inkscape:connector-curvature="0"
         d="m 239.833,73.667 c 0,0 -16.333,4.833 4.333,77.333"
         id="path139" />
      <path
         style="fill:none;stroke:#000000;stroke-width:0.5"
         inkscape:connector-curvature="0"
         d="m 234.833,81.5 c 0,0 12.333,11.333 20.833,12.167 0,0 -13.167,44 -8.667,59.5"
         id="path141" />
      <path
         style="fill:none;stroke:#000000;stroke-width:0.5"
         inkscape:connector-curvature="0"
         d="m 233.5,95.167 c 0,0 13.667,1.667 22,-0.667 0,0 -14.667,9.5 -21.5,10.167"
         id="path143" />
      <path
         style="fill:none;stroke:#000000;stroke-width:0.5"
         inkscape:connector-curvature="0"
         d="m 255.667,93.667 c 0,0 -8.834,16.5 -19.667,19.667"
         id="path145" />
      <path
         style="fill:none;stroke:#000000;stroke-width:0.5"
         inkscape:connector-curvature="0"
         d="m 253.333,102.333 c 0,0 -9.667,16.167 -16.167,20"
         id="path147" />
      <path
         style="fill:none;stroke:#000000;stroke-width:0.5"
         inkscape:connector-curvature="0"
         d="m 251.333,111.333 c 0,0 -7.833,13.667 -12.833,17.667"
         id="path149" />
      <path
         style="fill:none;stroke:#000000;stroke-width:0.5"
         inkscape:connector-curvature="0"
         d="m 249,122 c 0,0 -8.667,13.167 -9.167,13.167"
         id="path151" />
      <path
         style="fill:none;stroke:#000000;stroke-width:0.5"
         inkscape:connector-curvature="0"
         d="m 247.667,130 c 0,0 -5.334,9.667 -6.667,9.5"
         id="path153" />
      <line
         style="fill:none;stroke:#000000;stroke-width:0.5"
         x1="246.16701"
         y1="141.33299"
         x2="242.16701"
         y2="144.83299"
         id="line155" />
      <path
         style="fill:none;stroke:#000000;stroke-width:0.5"
         inkscape:connector-curvature="0"
         d="m 238,167.333 3.667,31 c 0,0 4.333,3.166 8.333,-0.667 l 1.167,-30"
         id="path157" />
      <path
         style="fill:none;stroke:#000000;stroke-width:0.5"
         inkscape:connector-curvature="0"
         d="m 238.167,171 c 0,0 4.833,4.167 13.167,0.333"
         id="path159" />
      <path
         style="fill:none;stroke:#000000;stroke-width:0.5"
         inkscape:connector-curvature="0"
         d="m 239,178.667 c 0,0 2.833,3.834 12,1.167"
         id="path161" />
      <path
         style="fill:none;stroke:#000000;stroke-width:0.5"
         inkscape:connector-curvature="0"
         d="m 240.167,186 c 0,0 5,3.833 10.5,0.5"
         id="path163" />
      <path
         style="fill:none;stroke:#000000;stroke-width:0.5"
         inkscape:connector-curvature="0"
         d="m 240.667,192.333 c 0,0 5.833,4.333 10,0.167"
         id="path165" />
    </g>
  </g>
</svg>
