<?xml version="1.0" encoding="utf8" standalone="no"?>
<svg viewBox="0 0 744.09448 1052.3622" xmlns="http://www.w3.org/2000/svg" xmlns:inkscape="http://www.inkscape.org/namespaces/inkscape">
<defs>
<inkscape:path-effect/>
</defs>
<path d="m292.1245,851.03426c-8.5902-2.04834-33.6916-5.93162-55.7808-8.62948-30.9244-3.77696-44.1052-7.61662-57.3056-16.69367-21.4475-14.74827-40.3362-37.3355-52.1622-62.37565-7.9847-16.90725-8.5487-22.4254-4.5111-44.16349 4.9783-26.80273-4.61617-106.87081 9.111-19.15076 1.31616,8.41058 1.0839,9.27154 6.6629,4.66311 6.5348-5.39786 6.5264-10.0607-.1026-55.54321-1.8654-12.80018-1.669-12.9749 4.9881-4.44144 3.8114,4.88558 8.6304,8.43833 10.7081,7.89501s5.2055,14.17048 6.9499,32.69735c2.474,26.2766 1.8332,34.50849-2.9136,37.42829-3.9484,2.42897-7.4924,1.23969-10.0941-3.38757-3.4628-6.15868-4.8185-5.67718-9.9468,3.53249-3.2652,5.86474-6.0083,13.8181-6.0953,17.6742-.2186,9.76117 26.4473,48.85117 32.6724,47.89266 2.8051-.43171 16.1452,4.33347 29.6442,10.58976 33.8518,15.68919 45.1423,18.73464 42.3055,11.41169-1.773-4.5765 4.2755-5.45804 27.9185-4.06902 19.7843,1.16237 26.4196,2.74223 19.2609,4.58631-9.8018,2.52491-8.8875,3.41418 8.9249,8.67875 10.9148,3.22608 21.9232,7.5455 24.4633,9.59878 5.0042,4.04606 33.3132-15.54591 33.3132-23.05549 0-2.44021-3.1554-1.29601-7.0124,2.54263s-10.2569,6.97941-14.2223,6.97941c-5.5018,0-4.3692-2.95134 4.7811-12.45698 12.0612-12.52982 16.3059-31.95737 6.9824-31.95737-3.6079,0-3.6605-1.61748-.1874-5.78293 8.0427-9.64551 1.0295-23.90078-14.15-28.76113-11.1102-3.55741-12.0375-4.61874-4.346-4.97543 9.8723-.45782 19.6103-9.3363 10.24-9.3363-2.7788,0-4.3665-3.49763-3.5276-7.77251 .8599-4.38178-3.864-12.30424-10.8291-18.16054-16.2469-13.66118-15.6766-19.17203 1.3714-13.25701 20.5099,7.11597 23.7854.86776 22.8259-43.54037-.5091-23.56217 1.7542-47.08041 5.853-60.81697 8.5523-28.664 8.7821-27.2701-5.5888-33.92847-8.2953-3.84336-31.0699-5.44529-70.2838-4.94363l-58.0121.74212-26.4307,25.32755-54.59871,59.67921 56.82991-67.11804 28.662-32.76633 28.76697,5.95958c26.29269,5.44699 50.89182,5.64038 48.90782,2.44566-1.9608-3.15817 7.64598,1.38826 30.9261-3.04834l29.21514,10.83263 10.42127-50.58916c3.1973-18.32092 5.2898-40.30602 4.6499-48.85578-.7261-9.69694 1.3521-17.49699 5.5232-20.73369 3.6775-2.85375 5.0461-6.8212 3.0416-8.81651s-7.2649,1.14829-11.689,6.9858c-7.8615,10.37355-4.43293,1.32341-47.52113-1.92057-24.2464-1.82548-53.01867,5.58164-58.30667,5.19728s-8.6835-2.19775-7.546-4.02984-.1785-3.33108-2.9207-3.33108-3.8422-1.84737-2.4401-4.10531-.9893-5.19315-5.3148-6.52273 .1696-1.5029 9.9861-.38508 23.3722,2.05443 30.1216,2.0813c41.77645-3.94683 46.11479,16.06283 44.25134,1.9052 .058-6.44204 8.21788-3.11656 21.57006-6.29773 2.8837,4.44143 4.3487,4.81154 4.3942,1.11036 .045-3.05349 3.1991-5.55179 7.0253-5.55179s5.7159,1.99864 4.1991,4.44143c-1.5507,2.49702 2.0046,4.44143 8.1204,4.44143 12.1308,0 23.378,20.08662 21.8094,38.95059-1.7908,21.53527 5.68116,27.21867 35.59753,27.07628 15.25137-.0728 24.99963-1.68828 21.85582-3.62222-3.92563-2.4148-2.10539-4.38307 5.90473-6.38394 10.00619-2.49955 26.65912-3.14309 27.32225-19.3804 1.59488-39.03271-15.16203-74.23137-18.67845-70.72983-1.61497,1.60731-5.5348.77596-8.71073-1.84741-3.31249-2.73633-10.14631-3.35133-16.02918-1.44263-5.64011,1.83001-14.61145,3.55306-19.93606,3.82905-10.39175.53857-27.52764-103.16854-27.81516-129.11008l-.0956-8.6261 15.24406,82.458c3.47224,15.87813 7.78038,33.36628 7.89507,38.86255 .2142,10.28077 5.12596,13.38569 9.96104,5.59919 1.50073-2.41672.34361-16.46831-2.57529-31.22574s-4.23176-27.89856-2.92158-29.20252 4.87078,11.48959 7.9124,28.43007c5.02563,27.98832 6.39159,30.58479 14.95952,28.43433 5.18628-1.30156 10.43325-3.77144 11.66043-5.48854s6.58749-4.47431 11.91166-6.12701c12.00403-3.7261 15.8355,6.01126 17.31347,44.00134 .74345,19.11332 4.95914,34.81184 14.9082,55.51794 7.62948,15.87813 13.87336,33.56841 13.87515,39.31172 .002,6.63257 10.17933,21.43161 27.89398,40.5626 63.09703,68.14143 82.7051,127.83547 54.9151,167.1785-5.93954,8.40862-17.38975,19.51301-10.88482,35.99424-12.52824,36.53733-14.428,25.80715-41.45564,56.75307-6.11231,6.99843-29.461,17.43554-52.77738,18.58037-33.72419,1.65581-47.94607.33488-69.54485-6.45967l-27.15186-8.5411-5.0796,18.90324c-5.9427,22.11488-20.2967,33.75806-50.8079,41.2126-23.4159,5.72097-26.1451,5.74829-48.2267.48288zm226.93873-63.95879c13.89641.27581 40.35728-40.50745 20.83614-24.76687-7.71069,6.3692-9.38858-.00089-1.95054-7.40418 2.97825-2.96395 3.20851-5.83911.59663-7.44571-2.34011-1.43951-7.8468,1.33287-12.23652,6.16085-9.70319,10.67099-19.10382,11.82185-10.49171,1.28442 5.44912-6.66758 5.14032-7.10168-2.80064-3.93756-4.90871,1.95592-12.94115,4.46626-17.84986,5.57862-8.53179,1.93331-8.55723,1.79043-.58012-3.24353 6.2354-3.93485 6.93244-6.13469 2.75691-8.70291-3.97338-2.44425-2.83902-4.30508 3.92741-6.44252 11.96254-3.779 12.23296-9.54624.5895-12.57677-13.68058-3.5607-10.59791-12.0374 4.37723-12.0374 10.5872,0 13.89388-2.34552 16.20009-11.49021 3.57309-14.16845-11.19321-35.86361-22.93217-33.69344-4.31788.79831-9.14537-.63317-10.72776-3.18104-1.92957-3.10759-6.78072-2.61663-14.7364,1.49134-8.10786,4.18672-12.37219,4.59302-13.48022,1.28438-1.01298-3.02409-4.018-3.36492-8.01146-.90868-3.51464,2.16196-13.35973,4.23154-21.87813,4.59902l-15.48744.66817 15.27904-12.69553c8.40371-6.98256 20.04049-12.69553 25.86043-12.69553 12.14416,0 11.35742-8.08714-1.48198-15.22773-9.70453-5.39714-20.07396-17.188-17.42995-19.81932 .96702-.96264 5.16754,1.03285 9.3337,4.43446 6.78875,5.54246 7.30684,5.14695 4.98814-3.80853-2.84973-11.00694.80905-12.88771 9.07219-4.66351 4.16482,4.14533 5.49017,1.43112 5.96275-12.21395 .39716-11.48546 1.24012-13.70937 2.43874-6.44008 2.85241,17.29659 10.97231,35.53148 15.82211,35.53148 2.41911,0 3.45752-2.4983 2.30755-5.55179s-.50203-9.54909 1.44003-14.43466c3.20539-8.06298 3.5731-7.85801 3.98677,2.22071 .44803,10.91852.57343,10.95556 7.52282,2.22072 6.85078-8.61105 7.00161-8.50912 4.93906,3.33108-2.65249,15.22848 2.14466,15.75999 10.02225,1.11036 3.28393-6.10698 7.36084-11.10359 9.06015-11.10359s2.12993,4.99661.95675,11.10359c-1.37042,7.13521-.10264,11.10358 3.54186,11.10358 3.78997,0 2.99208,2.94996-2.40259,8.88287-7.86376,8.6485-7.7937,8.88465 2.65516,8.95087 6.87443.0444 8.75982,1.31511 5.24519,3.53729-3.79622,2.39998-1.04511,6.1088 8.92493,12.03314l14.41197,8.56393-11.94557,2.33349-11.94557,2.33348 11.12358,12.80168 20.33918,33.53575 15.02601-22.55836c17.99752-27.01944 18.15807-48.8786 9.45493-76.33919-7.4251-23.42932-18.75369-56.41824-29.24316-56.42481-3.20628-.002-15.01409-7.61308-24.83151-23.95285-10.99106-18.29339-24.41402-43.30768-36.77907-52.17905-19.56345-14.03578-46.06675-12.11353-46.06675-4.12641 0,2.17755-44.79215,8.26965-54.48596,12.13014-22.44353,8.93781-21.6587,17.21032-21.23655,50.42994 .21866,17.37166-13.97493,44.37113-21.34914,66.69054-9.9772,30.19617-4.96434,82.70004-.52954,100.22932 2.7677,10.9397 10.5542,26.41296 17.70322,38.47932 12.67082,21.38624 32.16463,20.58552 45.66359,31.73592 3.64806,3.01343 18.25429,3.36072 31.04996,7.81108 25.11342,8.73426 49.58513,7.84105 69.47434-2.53583zm-47.60335-320.84647c-3.22145-1.283-7.07033-1.12524-8.55321.35043s1.1531,2.52558 5.85699,2.33273c5.19877-.21319 6.25593-1.26554 2.69622-2.68334zm-348.37308,191.3233c-.4284-14.52416 2.6855-22.4368 15.2871-38.86256 19.7892-25.79501 23.6501-26.756 7.027-1.74904-6.9012,10.38186-14.6248,27.87001-17.1631,38.86256l-4.6151,19.98646zm93.8443-152.06328c-.87793-79.54185 9.47261-66.54395 2.5012-4.29957-.74486,6.65054 5.1952,12.63752 9.3721,13.50391 5.861,1.21576 5.52628,15.46927-2.27902,17.59592-9.1574,2.49502-10.20388-11.98918-9.59428-26.80026zm1.777-58.43321c3.7052-34.98895 25.32471-52.06742 33.77768-36.20239l4.8027,9.01398-18.71348,3.59174c-10.79265,2.07147-11.1901-1.6774-11.9996,20.00284-.4641,12.42692-3.1117,24.81488-5.8842,27.52877-3.7418,3.66321-4.2527-2.50288-1.9831-23.93494zm98.34517-28.34846c2.6105-7.45303 53.27285-149.10513 53.99935-148.36976 2.42035,23.63173-41.99232,149.54025-53.99935,148.36976zm27.52742-13.5884c0-3.66418 7.90901-26.46123 10.01841-31.34681 2.4173-5.59905 12.07941-36.64952 12.07941-32.45023 0,3.66418-9.97001,40.88895-12.07941,45.77453-2.4174,5.59905-10.01841,22.2218-10.01841,18.02251zm43.48691-18.18289c7.363-3.35564 31.51427-17.03175 35.1958-16.95611s-15.45023,13.82191-24.0397,17.11649c-21.43547,8.22179-87.37281,30.63139-11.1561-.16033zm-28.608-26.48823c-.1874-2.44279 5.6704-27.19473 13.0179-55.00433 14.9983-56.76855 16.0827-65.40568 6.1988-49.36939-3.7641,6.10697-29.8104,84.5538-28.4908,80.27892 3.2736-10.6042 22.4794-98.68023 16.2177-94.94587-2.8109-2.56014-18.84322-16.92714-15.47492-16.14651 3.3687-4.13311 22.48044,10.83995 19.61954,13.0963-6.09781,4.80924 15.25508-11.49487 13.53478-15.95687-1.49-3.86396-2.7087-9.47407-2.7087-12.46693s-5.5223-7.65081-12.2718-10.35112l-12.2718-4.90965 15.3286.7212c14.9024.70108 15.3522.22652 16.1666-17.04458 .4605-9.77116-1.1611-20.26405-3.6035-23.31754-9.58-11.97633 3.2884-4.72799 15.2193,8.57246 14.09647,15.71482 12.53257,15.48401 8.20735,25.84867-13.88329,33.26898-4.40806,3.69234-4.52985-6.66216-.1785-11.49723-.84831-12.22154-4.9042-5.28202-10.7082,18.32256 11.0575,28.7805 28.04833,13.47651 4.48835-4.04277 8.16051-5.22921 8.16051-2.63652s27.87742-3.07704 33.39972-4.20237-22.35511,9.42981-33.39972,15.05866-20.75046,8.73537-21.56843,6.90328-5.83869-3.26752-11.15616-3.18984c-9.60455.14035 3.4442-7.36951 12.30975-.38553 6.18319,4.87079-6.52933,14.54022-10.39383,15.98204-3.06794,1.14469-4.89107,6.6807-4.89107,11.46266s-3.9149,21.10419-8.7,36.27169-13.6551,43.56648-19.7116,63.1088-11.1646,33.53283-11.3525,31.09004zm58.48372-75.50439c-.0892-7.32837-1.91322-21.85657-.69095-18.84958s8.85418,44.04167 7.72249,48.36305-6.94051-22.1851-7.03154-29.51347zm-4.98012-21.83707c-.19188-4.68199-5.32205-53.33652-3.83917-51.86068s14.00791,78.81929 12.71915,82.02543c-1.42486,3.54306-8.66533-24.9907-8.87953-30.16475zm-62.8266-37.86948c0-6.44732 30.49095-23.68342 34.35815-19.83465 1.5596,1.55228-8.36025,6.25752-11.12835,6.25752s-9.1266,4.37415-14.1308,9.72035-9.099,6.70387-9.099,3.85678zm20.3341-41.214c-8.8236-12.53804-8.7924-21.70823.1116-32.58397 12.49856-5.72958 28.70606,2.34996 3.956.2616-7.3386,21.0166-7.1449,23.98379 1.9344,29.62726 11.51894,8.41777 20.73848,23.65835 5.1546,12.56637-1.88645-1.3427-7.3358-4.44201-11.1561-9.87113zm97.92123-2.14277c16.26525-8.76833 4.42291-19.47258-12.36683-6.21446-35.90361,28.3515-26.0473,12.28253-9.18104-3.19319 11.60822-8.84614 37.1665-7.35997 37.1665,1.54506 0,3.72463-5.15102,8.72125-11.44667,11.10359-17.19521,6.50679-19.26758,4.89682-4.17196-3.24096z"/>
<path d="m313.62541,827.80617c-4.84229-2.55273-9.49543-4.26634-24.23506-8.92504-13.99951-4.42478-14.82305-5.23691-7.6652-7.55905 4.28543-1.39027 4.99147-2.18389 2.4187-2.71875-9.18691-1.90988-40.8851-3.19584-45.03292-1.82694-1.40261.46291-2.57684,1.20413-2.60939,1.64716s-.10985,1.88759-.17176,3.21013l-.11257,2.40462-3.44988-.13565c-4.69825-.18474-12.3102-2.98349-33.33485-12.25652-17.66875-7.79289-29.34657-12.1836-34.66684-13.0343-2.21112-.35354-3.62664-1.33564-7.24386-5.02584-9.50674-9.69854-22.49553-30.03367-25.42047-39.79805-1.2132-4.05007-.0529-9.01276 4.13586-17.69003 3.80652-7.88535 5.76989-10.64903 7.56528-10.64903 .72516,0 2.34628,1.47206 3.79597,3.44693 3.03824,4.13892 4.57028,5.05806 7.51121,4.50634 2.70743-.50792 4.99557-2.81766 5.89373-5.94938 2.06115-7.1868-1.03441-45.77686-4.74929-59.20594-1.11131-4.0173-1.3855-4.38403-4.35062-5.81895-1.98483-.96052-5.16046-3.71223-8.51838-7.38125-2.94459-3.21739-5.58683-5.61678-5.87164-5.33197s.73908,9.48051 2.2753,20.43489c3.40165,24.25625 3.89339,36.93229 1.58512,40.86155-.77369,1.317-2.75395,3.42213-4.40059,4.67807-2.44696,1.86635-3.15007,2.11922-3.84877,1.38413-.47017-.49466-2.33351-9.98193-4.14074-21.08282l-3.28588-20.18344 1.84641-7.50945c3.66113-14.89002 9.93285-28.84045 20.86043-46.40066 5.29906-8.5154 8.06676-11.95138 21.52643-26.72411 8.49504-9.32378 21.89439-23.1945 29.77632-30.82383l14.3308-13.8715 39.6014-.46065c60.31602-.70163 79.68814.5901 91.42081,6.09591 3.016,1.41532 6.19373,3.32991 7.06162,4.25464 2.50074,2.66452 2.05659,7.43601-2.03248,21.83485-6.29565,22.16885-6.99671,28.23125-7.74638,66.98584-.60406,31.22716-1.05141,36.59021-3.44319,41.27849-3.00826,5.89667-6.81142,6.50633-19.16686,3.07252-10.58399-2.94149-12.65129-2.97071-12.97131-.18338-.19033,1.65765.97107,3.08882 8.64169,10.64903 10.90826,10.75124 12.72728,13.63231 13.27502,21.0257 .42818,5.77947 1.35124,7.28878 4.45765,7.28878 2.43348,0 3.42066,1.72814 2.1206,3.71228-1.3797,2.1057-7.42141,5.05451-11.44275,5.58493-7.82494,1.03213-7.78458,1.32972.59349,4.37621 7.34151,2.66956 10.89917,4.77316 14.14086,8.36133 6.07605,6.72546 6.82605,13.91985 2.1805,20.91655-2.77602,4.181-2.82695,5.82814-.18019,5.82814 4.88174,0 6.59442,6.3391 3.89804,14.42772-1.97882,5.93608-5.88001,12.37829-10.89302,17.98813-7.86985,8.80683-9.06679,11.03105-6.32243,11.74872 3.27664.85687 9.43573-1.54141 14.39303-5.60445 6.43178-5.27155 8.29702-6.00913 8.29702-3.28094 0,5.92658-20.09149,21.62899-29.88599,23.35726-1.49996.26467-3.2451-.26049-6.40998-1.92893z" fill="#ff1800"/>
<path d="m470.71937,794.83242c-14.99927-2.15607-39.02269-10.76565-49.4283-17.71426-9.53126-6.36473-19.32711-25.37103-23.97522-46.51772-1.37218-6.24272-1.86253-11.3475-3.41019-35.5015-.858-13.39073-2.22234-23.49745-4.53338-33.58225-3.56429-15.55369-3.01099-23.14186 3.12644-42.8773 11.527-37.06602 13.43862-46.98807 14.43997-74.94908 .65818-18.37869 1.57512-24.26819 4.87428-31.30762 4.05218-8.64615 9.72332-13.25751 24.80647-20.17083 10.90622-4.99883 14.59545-7.49026 16.22147-10.95474 1.06798-2.27549 1.44527-2.50942 4.35085-2.69767 8.75481-.5672 27.8598,10.20778 41.65564,23.49328 9.04473,8.71015 16.17976,17.78283 27.36682,34.79879 14.91572,22.6874 20.0509,28.86309 25.13945,30.2333 4.11294,1.1075 7.73846,3.81026 14.03738,10.46464 12.73554,13.45422 24.04124,35.23277 27.35302,52.69104 3.37412,17.78691-.5121,29.55658-14.89377,45.10683-9.28709,10.04171-21.81053,21.83819-22.45431,21.15089-3.22914-3.44745-21.34943-24.66644-21.34943-25.00034 0-.24153 4.71478-1.32636 10.47728-2.41072s10.85478-2.15652 11.31618-2.38258c.46597-.22831-3.19286-2.8292-8.23042-5.85063-9.53931-5.72149-14.9371-10.06338-14.9371-12.01514 0-.64174.777-1.89676 1.72668-2.78894 2.39053-2.24579 1.40057-2.88948-4.95353-3.22083-10.2325-.53361-10.43053-.95704-3.95201-8.4502 5.98064-6.91732 6.50111-9.03265 2.42312-9.84825-2.93021-.58604-3.7168-3.84667-2.72971-11.31532 .78431-5.93427.40419-10.44001-.88074-10.44001-1.37977,0-5.35973,4.87393-8.88136,10.87628-8.57921,14.62261-12.63676,13.84337-10.1854-1.95606 .4045-2.60708.63638-5.60311.51528-6.65785-.20783-1.81004-.50396-1.58025-5.27517,4.09328-2.78023,3.30603-5.45235,6.01097-5.93804,6.01097-1.22078,0-1.70681-1.56535-1.7773-5.72423-.0331-1.9529-.27581-5.09656-.53935-6.98591l-.47915-3.43517-1.41376,2.74814c-2.43458,4.73246-3.22114,8.89619-2.83866,15.02682 .19584,3.13925.0689,6.22098-.2822,6.84828-.798,1.42596-2.55785,1.45893-4.51988.0847-3.79188-2.65594-10.3979-18.57176-12.95116-31.20314-1.23062-6.08808-2.31516-8.07846-2.35696-4.32556-.0668,5.99649-1.34911,18.8047-2.00546,20.03109-1.10783,2.06999-2.28219,1.79963-5.94217-1.36806-7.53672-6.52298-10.00491-4.57558-7.47586,5.89845 1.20992,5.01087 1.27724,7.21386.22045,7.21386-.438,0-2.42596-1.23036-4.41769-2.73413-5.21729-3.93909-9.12991-5.86885-10.04461-4.95415-2.26388,2.26387 6.43537,12.22076 16.5168,18.90461 9.20034,6.09971 11.67428,9.1271 10.35218,12.6681-.69958,1.87371-2.38453,2.56672-7.83163,3.2211-6.93933.83364-15.99301,5.02218-24.08769,11.14378-5.51466,4.17047-16.71173,13.58639-16.45807,13.84005 .52009.52009 23.02867-1.34283 27.3786-2.26599 2.58266-.54811 6.4073-1.78012 8.4992-2.73783 4.62976-2.11958 6.04269-2.17363 7.59458-.29055 2.71915,3.29945 3.06037,3.48354 5.59526,3.01867 1.35887-.2492 5.22034-1.68576 8.58104-3.19235s7.62546-2.91871 9.47723-3.13802c2.95077-.34947 3.59657-.1846 5.22569,1.33419 2.94733,2.74773 4.52852,3.27392 9.88633,3.29 3.41954.0102 5.93233.42659 7.86103,1.30241 4.23389,1.92263 10.00366,8.18806 12.8499,13.95379 4.48035,9.07605 4.97631,16.12807 1.64583,23.40175-2.32076,5.06848-4.90804,6.32795-14.39246,7.0061-8.49101.60713-12.55662,2.38067-12.55662,5.47756 0,2.54036 2.64586,4.46248 9.09871,6.60985 4.26022,1.41771 7.73363,3.82355 7.73363,5.35667 0,1.91526-3.8547,4.90784-8.9861,6.97632-3.05951,1.23328-5.73153,2.68216-5.9378,3.21972-.21502.56033.71803,2.09681 2.18664,3.60081 3.2316,3.30946 2.87055,4.13919-3.77767,8.68173-2.68536,1.83482-4.55956,3.44367-4.1649,3.57522 1.07997.35999 11.09946-2.35647 19.92842-5.40294 7.93514-2.73806 9.68285-3.13068 9.68285-2.17524 0,.29084-1.3959,2.37771-3.10201,4.63748-2.99989,3.97344-4.34041,6.85728-3.55335,7.64433 1.04811,1.04811 5.78606-1.77261 11.70881-6.97081 7.04152-6.1801 9.71921-7.90089 12.2944-7.90089 4.04912,0 4.33627,3.87936.62004,8.37651-3.05315,3.69474-4.56417,6.93025-3.96531,8.49086 .55285,1.44069 2.26339.8666 7.4972-2.51617 4.0153-2.59521 7.50454-3.41116 8.39891-1.96404 .78942,1.2773-2.91207,6.49295-8.05659,11.35232-13.08711,12.3617-26.24917,19.74694-41.03524,23.02491-7.96406,1.76558-21.31378,2.22196-29.70633,1.01557z" fill="#ff1800"/>
<path d="m258.1336,528.74693c-8.21865-.46413-17.39209-1.12729-20.38542-1.4737l-5.44243-.62983 .61886-3.29882c.46244-2.46501.0609-4.00817-1.58859-6.10515-1.2141-1.54348-2.78265-2.80633-3.48568-2.80633-1.49044,0-6.0543-4.67399-7.70765-7.89366-1.47514-2.87263.41924-32.68238 2.53824-39.94141 1.87558-6.42514 3.22191-15.91375 4.0595-28.61045 .36193-5.48623 1.19691-10.69582 1.85553-11.57688 .74301-.99396 5.67031-2.44879 12.98304-3.83336 9.67062-1.83101 12.35218-2.01317 14.943-1.01511 3.16857,1.22062 47.77069-4.64809 73.81002-3.42737 18.33298.85945 30.19189,10.48785 37.06433,2.58645 5.20989-5.98995 10.15813-9.14742 12.28011-7.83596 2.05801,1.27192 1.09212,4.8643-2.40701,8.95225-4.47833,5.23191-5.7749,10.56218-5.77644,23.74727-.00069,5.84214-.71737,16.77663-1.5926,24.29887-1.6893,14.51843-8.22835,53.68452-9.11025,54.56644-.28815.28813-10.18594,13.83351-24.81085,13.20641-31.21197-1.33832-43.52658-7.74935-44.33403-4.11671-2.00709,9.02976-6.8163,2.53913-34.66357.96651z" fill="#ff1800"/>
<path d="m411.68576,471.78823c-13.22588-2.91696-16.46169-8.09613-16.49531-26.40207-.0205-11.14561-1.56635-18.05681-5.76402-25.76932-3.83314-7.04274-8.82255-11.07854-14.77626-11.95212-8.14645-1.19532-9.5027-2.04107-9.08858-5.66756 .35915-3.14509.67647-3.31654 17.06781-9.22135 17.6396-6.35448 25.34731-10.04235 33.57303-16.06352 3.7554-2.74892 6.27357-3.76921 9.92619-4.02177 2.69183-.18613 9.0068-1.32072 14.03325-2.52131 9.99227-2.38668 13.8403-2.15278 19.49769,1.18516 2.14505,1.26561 4.64757,1.92437 6.19012,1.6295 1.78284-.34081 2.89465.0754 3.56943,1.33621 2.9287,5.47235 3.57906,66.06371.84306,78.54504-1.26207,5.75739-3.83682,8.13756-11.48699,10.61891-6.62865,2.15001-7.60705,2.99334-5.88294,5.07076 .73691.88793 1.12244,1.8318.85674,2.0975-2.5516,2.5516-32.03434,3.3478-42.06322,1.13594z" fill="#ff1800"/>
<path d="m348.83541,539.81227c-3.3501-1.21686-12.74664-2.70011-22.46191-3.5456l-22.78866-1.98505c-3.34742-.29232-6.72967.002-7.5161.65521-4.30465,3.57253-23.91928,2.23385-52.02643-3.55077l-12.64169-2.60173 .33848-5.35169c.25-3.95281-.1739-5.75937-1.6217-6.91136-8.30225-6.6059-10.8697-10.00684-10.85803-14.38294 .0233-8.74807 2.452-32.07195 4.06282-39.01767 .90151-3.88722 2.17382-13.1673 2.82737-20.6224s1.70683-14.52366 2.34062-15.70791c.65112-1.21664 3.02509-2.48935 5.45794-2.92607 2.36808-.42509 7.91258-1.44448 12.32111-2.26531 4.50808-.83936 8.79466-1.07543 9.79608-.53949 1.8642.99769 19.05184-.0428 38.63114-2.3386 14.74279-1.72869 39.11018-.6056 51.9827,2.39588 14.13331,3.29546 17.22747,3.06655 21.58307-1.59671 10.25657-10.98103 16.91403-8.5773 8.66338,3.12798-4.33937,6.15632-5.51225,11.66786-5.57812,26.21258-.0785,17.31602-3.92765,42.5427-13.06083,85.59716-.79633,3.75393-1.95275,6.9651-2.56983,7.13592s-3.71371-.63082-6.88141-1.78143z" fill="#ff1800"/>
<path d="m457.11331,791.98738c-6.96895-1.92137-17.59376-4.53634-23.61069-5.81103s-12.7555-3.33701-14.9746-4.58295-10.48583-5.43479-18.3705-9.30857c-19.70288-9.68014-23.67351-13.8711-35.04348-36.98792-4.76168-9.68121-9.44547-20.97149-10.40842-25.0895-6.12968-26.21337-6.52793-70.95004-.82546-92.72736 1.16126-4.43478 5.49905-16.87522 9.63953-27.64542 12.22962-31.81166 12.49208-32.91463 13.43076-56.44273 .7189-18.01932 1.15365-21.36235 3.32042-25.53261 5.07925-9.77573 14.51707-13.88306 46.20032-20.10631 18.29242-3.59302 25.11622-5.38752 26.46156-6.95876 3.85483-4.50211 14.45053-1.4576 30.67409,8.81371 11.94566,7.56293 27.54326,24.50897 40.83009,44.35991 16.20544,24.21147 21.52626,30.67848 27.06679,32.8974 6.79204,2.72013 12.43781,7.6809 19.65489,17.27015 8.99068,11.94582 16.01087,25.64411 19.64676,38.33619 2.57128,8.97575 3,12.39945 2.59642,20.73407-.68412,14.12847-4.43581,20.74783-22.14849,39.07811-7.54606,7.80916-14.39453,14.04694-15.21882,13.86173s-6.17758-5.77021-11.89618-12.41112c-11.68912-13.57436-11.82256-12.57629 2.01045-15.03866 4.62164-.82268 8.60523-1.82303 8.85242-2.223s-3.53413-3.11742-8.40296-6.03875c-11.52371-6.91431-15.03867-10.5586-13.13067-13.6138 .76919-1.23166 1.39852-2.43862 1.39852-2.68216s-3.11011-.79466-6.91136-1.22472-6.91135-1.32993-6.91135-1.9997 2.0734-3.82184 4.60757-7.00462c5.30951-6.66846 5.58408-7.96688 2.01581-9.53238-2.36771-1.03876-2.59772-1.93372-2.6607-10.3522-.0379-5.06833-.1675-9.66738-.28797-10.2201-.39302-1.8032-3.84265,1.93382-9.43418,10.2201-6.50279,9.63671-8.61407,11.69553-9.88491,9.63926-.9423-1.52466-.83321-10.92812.19203-16.55062 .60611-3.32407.40307-3.2196-5.33177,2.74347-6.95113,7.22777-7.9435,6.74708-8.04167-3.89536l-.0638-6.91136-1.85762,3.43322c-1.02169,1.88827-2.16723,7.58449-2.54564,12.65826-.55306,7.41559-1.07084,9.29815-2.63975,9.5977-3.85996.73699-12.1136-15.84949-14.87738-29.89757-.73634-3.74273-1.59021-6.55356-1.89749-6.24628s-.9868,4.80532-1.51004,9.99564-1.43007,9.91569-2.01519,10.50081c-.65054.65054-3.15803-.41225-6.4542-2.73562-4.51102-3.17965-5.56454-3.52176-6.45817-2.09714-.5873.93628-.85,2.47987-.58378,3.43018 1.09261,3.9002 1.97623,12.67082 1.27656,12.67082-.4137,0-3.44616-1.81424-6.7388-4.03163s-6.3823-4.03162-6.86591-4.03162c-4.12422,0 5.53916,12.0312 14.41481,17.94688 7.60744,5.0704 11.19942,8.75907 11.19942,11.50085 0,3.4105-1.87622,4.67323-8.33168,5.60733-7.96915,1.15315-19.70959,7.57444-30.65818,16.76815-5.28912,4.44136-9.17676,8.07476-8.63919,8.07423 7.89041-.008 27.95204-2.90021 33.50891-4.83124l7.18986-2.4985 2.7912,2.62219c3.08826,2.90127 3.72312,2.82532 14.75938-1.76575 8.03066-3.34073 10.61591-3.41916 14.40702-.43708 1.83363,1.44233 4.67298,2.30378 7.59328,2.30378 10.38285,0 20.63511,8.92372 24.39194,21.23111 2.33608,7.65301 2.18421,11.66826-.66381,17.55149-2.64412,5.46203-5.1752,6.6136-17.35564,7.89636-6.69348.70491-11.22956,3.7035-9.5974,6.34438 .45323.73333 4.14207,2.82204 8.19742,4.64156 11.10973,4.98459 11.07234,7.71009-.17883,13.03725-6.18967,2.93068-7.37235,5.37971-3.34438,6.92539 2.81801,1.08137 1.8508,3.42743-3.23894,7.85628l-4.91337,4.2754 4.60757-1.17623c2.53416-.64692 8.62574-2.48413 13.53683-4.08271s9.46892-2.72661 10.12849-2.50674-.36364,2.46573-2.27384,4.99082c-3.38789,4.47852-4.44592,7.47083-2.64156,7.47083 1.25949,0 5.49402-3.01723 13.35107-9.51307 4.96544-4.10519 7.56135-5.49506 9.78123-5.23695 4.2666.49609 4.34032,3.40516.23009,9.07916-3.49536,4.82521-4.47858,7.97465-2.48959,7.97465 .56887,0 3.29022-1.28964 6.04743-2.86585 5.83086-3.33334 9.04474-3.68388 9.04474-.98653 0,3.10239-16.35552,18.0618-26.10414,23.8759-13.52258,8.06488-21.20362,10.16961-38.97779,10.6805-13.85306.39817-15.9236.16877-27.64542-3.063h5e-005z" fill="#ff1800"/>
<path d="m410.4542,471.88908c-12.25791-3.93166-14.08091-6.99101-15.09934-25.33962-.59274-10.67935-1.48406-16.32526-3.36707-21.32817-3.3096-8.79319-10.65934-16.37963-16.84527-17.38777-7.57799-1.23501-9.60606-2.50814-9.59081-6.02066 .0132-3.04765.67915-3.42742 14.68663-8.37591 17.85827-6.30888 25.74255-9.95473 34.73862-16.06384 3.78247-2.56863 8.18181-4.67023 9.77631-4.67023s8.14081-1.11614 14.54736-2.48031l11.64825-2.48032 5.96195,2.42001c3.27907,1.33101 7.50025,2.57674 9.38041,2.76829 4.03732.41133 7.37026,4.80708 11.04408,14.56583 5.6894,15.11272 9.15125,33.96411 9.15125,49.83283 0,15.6937-3.53865,20.1301-19.22558,24.10312-10.12079,2.56328-15.3312,4.47841-15.3312,5.63511 0,.42997.56352,1.34529 1.25226,2.03403 .90175.90175.82115,1.53046-.28797,2.24619-1.99435,1.28698-38.65719,1.7547-42.43988.54142z" fill="#ff1800"/>
<path d="m464.60061,794.09032c-2.85093-.61073-8.5528-2.08678-12.67082-3.28012s-12.39992-3.25738-18.40423-4.58674c-8.2531-1.82726-14.85828-4.409-27.06947-10.58051-20.24873-10.23367-24.84372-13.38223-30.44501-20.86144-5.49204-7.3333-17.62092-31.33601-20.19562-39.96653-4.8813-16.36238-7.50842-53.33079-5.36169-75.44897 1.67606-17.26881 3.70845-25.08427 12.73076-48.95543 12.17157-32.20346 13.76804-39.323 13.83668-61.70516 .0469-15.30761 2.0901-22.15605 8.16012-27.35176 6.52792-5.58766 14.42267-8.26387 39.56098-13.41062 24.9-5.09795 25.475-5.26697 29.67234-8.72183 9.44223-7.77196 36.44926-1.6553 49.26151,11.15695 6.00138,6.00138 14.65555,18.35866 24.88022,35.52643 13.9092,23.35428 20.88679,31.22046 32.08771,36.17404 7.72161,3.41486 12.2246,10.23117 20.23861,30.63573 20.43776,52.03682 19.60778,71.91936-4.53802,108.71147-5.66439,8.63112-10.70535,15.67512-11.20213,15.65336s-5.15625-7.14909-10.35438-15.83852-12.06736-18.88787-15.26492-22.66321c-4.01352-4.73873-5.36717-7.10018-4.37156-7.62616 .79322-.41904 4.84721-1.38833 9.00888-2.15397s8.21543-1.79304 9.00835-2.28309c.95843-.59235-1.38482-2.65331-6.99074-6.14859-11.09253-6.91619-14.56822-10.571-12.77842-13.43693 1.68509-2.69826.83891-3.52706-3.62123-3.54681-5.03494-.0223-8.73518-1.18123-8.73518-2.7359 0-.73208 1.47549-3.13378 3.27887-5.33715 5.85753-7.15668 6.28835-8.69395 3.03405-10.82626-2.67237-1.751-2.85725-2.50837-2.85725-11.70465 0-6.36516-.41272-9.57744-1.17037-9.10919-.6437.39783-3.68898,4.44565-6.76728,8.99515s-6.65721,9.22194-7.95311,10.38319c-2.2846,2.04725-2.38838,2.04725-3.41657,0-.58321-1.16125-.74228-5.61024-.35348-9.88664s.3997-7.77528.0242-7.77528-2.85309,2.41532-5.50576,5.3674-5.20815,4.98285-5.67885,4.51286-1.14316-4.05162-1.49436-7.95917c-.62857-6.9936-.66157-7.05062-2.11256-3.64893-.81072,1.90063-1.76799,7.26005-2.12727,11.90985-.68886,8.91506-2.1572,10.99846-5.70109,8.08917-2.76164-2.26712-9.11947-16.54561-11.3872-25.57351-1.07145-4.26541-2.19632-7.50707-2.49971-7.20366s-.95859,4.25874-1.45595,8.78966-1.43064,8.76435-2.07393,9.40764c-.79157.79157-2.85542.009-6.38514-2.41874-3.36251-2.31346-5.48982-3.14454-5.98757-2.33916-.42463.68707-.41564,4.57741.02,8.6452s.50168,7.396.14678,7.396-3.54923-1.85765-7.09853-4.12811-6.74533-3.83606-7.10229-3.4791c-1.36403,1.36404 5.81092,10.19585 12.05991,14.84482 3.59093,2.6715 8.55884,6.80242 11.03981,9.17985 4.21104,4.0353 4.39967,4.49002 2.83823,6.84167-1.1218,1.68953-3.90332,3.0257-8.44669,4.05755-8.77551,1.99303-19.55673,7.97638-30.12725,16.72002-4.64777,3.8445-8.31178,7.0893-8.14225,7.21066 1.04769.75003 22.7747-1.89324 28.78164-3.50152 12.13902-3.25007 12.63812-3.29561 13.7788-1.25733 1.49875,2.67811 6.32886,2.34976 14.545-.98876 8.5639-3.47982 10.57656-3.55538 15.45622-.58025 2.07431,1.26472 5.73596,2.30142 8.13698,2.30378 9.5284.009 19.77836,9.30664 23.28741,21.12288 2.20194,7.41477 2.16904,11.11832-.15026,16.91483-2.2157,5.53758-5.48433,7.44816-14.47362,8.46011-14.83317,1.6698-16.42963,5.19005-4.92627,10.86261 4.13974,2.0414 7.82618,4.49184 8.19212,5.44542 .92724,2.41636-1.48752,4.95622-7.31764,7.69669-6.10334,2.86891-6.84113,3.94763-4.4825,6.55388 2.68552,2.96747 2.32219,4.16764-2.45339,8.10408-2.36175,1.94675-3.74819,3.53954-3.081,3.53954s6.51943-1.58749 13.00497-3.52776 12.26504-3.36575 12.84333-3.16771-.56188,2.83741-2.53373,5.86528c-5.94857,9.13429-2.9747,8.22737 11.54201-3.51991 4.4412-3.59392 7.02208-4.89529 9.20529-4.64161 4.28626.49805 4.29881,3.15426.0472,9.99365-2.02879,3.26361-3.3756,6.24692-2.99296,6.62958s3.12061-.65954 6.08432-2.316c12.56856-7.0247 12.90522-2.01959.64972,9.65908-13.0688,12.45368-27.30365,20.32149-41.70969,23.05353-7.40173,1.40371-27.49116,1.27498-34.47409-.22092h1e-005z" fill="#ff1800"/>
<path d="m420.46316,365.87122c-.72299-.87115-2.05223-6.12916-2.95387-11.68448s-2.90839-15.7433-4.45946-22.63999-5.9606-29.44934-9.79896-50.11701c-6.08193-32.74814-6.82286-38.19709-5.76508-42.3979 .66757-2.65118 1.21377-6.40506 1.21377-8.34197 0-5.11717 2.65083-10.66196 6.2131-12.99605 1.70736-1.11871 3.35884-1.77947 3.66995-1.46836s1.53634,11.62331 2.72273,25.13823 3.17888,28.81892 4.42777,34.00888c4.41829,18.361 12.60907,68.4871 12.92986,79.12842 .19966,6.62353-.15824,8.5826-1.92636,10.54453-2.52295,2.79948-4.42733,3.05013-6.27345.8257z" fill="#fff7f9"/>
<path d="m325.00247,413.32061c-.90427-.57796.78171-5.07687 5.44024-14.5169 14.09497-28.56193 31.64131-79.72177 38.17091-111.2948 3.82615-18.50083 11.90729-38.60843 15.51653-38.60843 2.26285,0-.21688,12.58376-10.43605,52.95931-5.56082,21.97057-10.70733,43.02436-11.43671,46.78619s-4.99633,17.70787-9.48214,30.9912l-8.15601,24.15151-5.73336.72482c-9.28254,1.17353-9.72318,1.43487-9.72318,5.76651 0,3.85486-1.34649,4.83897-4.16023,3.04059z" fill="#fff7f9"/>
</svg>
