<?xml version="1.0" encoding="utf8" standalone="no"?>
<svg viewBox="0 0 410 170" xmlns="http://www.w3.org/2000/svg" xmlns:xlink="http://www.w3.org/1999/xlink">
<defs>
<linearGradient id="linearGradient5241">
<stop offset="0"/>
<stop offset="1" stop-opacity="0"/>
</linearGradient>
<linearGradient id="linearGradient4262">
<stop offset="0" stop-color="#f1e6d2"/>
<stop offset=".5" stop-color="#c8ab37"/>
<stop offset="1" stop-color="#d1ad83"/>
</linearGradient>
<linearGradient id="linearGradient4088">
<stop offset="0" stop-color="#221e1f"/>
<stop offset=".48894" stop-color="#45403d"/>
<stop offset=".61394" stop-color="#666"/>
<stop offset=".80329" stop-color="#28272a"/>
<stop offset="1" stop-color="#45403d"/>
</linearGradient>
<linearGradient gradientUnits="userSpaceOnUse" id="linearGradient5560" x1="325.50836" x2="184.52731" y1="238.29463" y2="208.35657">
<stop offset="0" stop-color="#e3e2db" stop-opacity="0"/>
<stop offset=".25" stop-color="#e3e2db" stop-opacity="0"/>
<stop offset=".58823" stop-color="#e3e2db" stop-opacity=".49804"/>
<stop offset=".75" stop-color="#e3e2db" stop-opacity="0"/>
<stop offset="1" stop-color="#e3e2db" stop-opacity="0"/>
</linearGradient>
<linearGradient gradientUnits="userSpaceOnUse" id="linearGradient5562" x1="200.24165" x2="227.15469" y1="227.28018" y2="236.51775">
<stop offset="0" stop-color="#cacaca"/>
<stop offset=".5" stop-color="#a09695"/>
<stop offset="1" stop-color="#cacaca"/>
</linearGradient>
<linearGradient gradientUnits="userSpaceOnUse" id="linearGradient5564" x1="226.40469" x2="409.97205" y1="236.83516" y2="259.15927">
<stop offset="0" stop-color="#f1e6d2"/>
<stop offset=".5" stop-color="#a80"/>
<stop offset="1" stop-color="#d1ad83"/>
</linearGradient>
<linearGradient gradientUnits="userSpaceOnUse" id="linearGradient5566" x1="219.33397" x2="306.17154" y1="235.99208" y2="255.31573">
<stop offset="0" stop-color="#f2d3a3"/>
<stop offset="1" stop-color="#f2d3a3" stop-opacity="0"/>
</linearGradient>
<linearGradient gradientUnits="userSpaceOnUse" id="linearGradient5568" x1="323.45685" x2="219.26949" y1="249.6843" y2="233.07608">
<stop offset="0" stop-color="#eec995"/>
<stop offset="1" stop-color="#fff6d5"/>
</linearGradient>
<linearGradient gradientUnits="userSpaceOnUse" id="linearGradient5572" x1="311.34955" x2="391.90561" y1="227.8577" y2="317.12753">
<stop offset="0" stop-color="#a7470f"/>
<stop offset="1" stop-color="#61311a"/>
</linearGradient>
<linearGradient gradientUnits="userSpaceOnUse" id="linearGradient5574" x1="302.9832" x2="394.81239" y1="220.0255" y2="328.56682">
<stop offset="0" stop-color="#2b2200" stop-opacity="0"/>
<stop offset=".5" stop-color="#2b2200"/>
<stop offset="1" stop-color="#2b2200" stop-opacity="0"/>
</linearGradient>
<linearGradient gradientUnits="userSpaceOnUse" id="linearGradient5576" x1="317.48462" x2="357.2594" y1="288.91193" y2="276.46863">
<stop offset="0" stop-color="#520"/>
<stop offset="1" stop-color="#520" stop-opacity="0"/>
</linearGradient>
<linearGradient gradientUnits="userSpaceOnUse" id="linearGradient5584" x1="1.27803" x2="157.3125">
<stop offset="0" stop-color="#211d1e"/>
<stop offset=".5" stop-color="#2b262a"/>
<stop offset="1" stop-color="#211d1e"/>
</linearGradient>
<linearGradient gradientUnits="userSpaceOnUse" id="linearGradient5586" x1="159.4648" x2="211.59224" y1="210.49779" y2="216.49779">
<stop offset="0" stop-color="#3d3334"/>
<stop offset=".5" stop-color="#887d79"/>
<stop offset="1" stop-color="#3d3334"/>
</linearGradient>
<linearGradient gradientUnits="userSpaceOnUse" id="linearGradient5594" x1="1.26825" x2="306.46875">
<stop offset="0" stop-color="#6c6061"/>
<stop offset=".25" stop-color="#605655"/>
<stop offset=".5" stop-color="#938988"/>
<stop offset="1" stop-color="#999596"/>
</linearGradient>
<linearGradient gradientUnits="userSpaceOnUse" id="linearGradient5602" x1="274.1991" x2="275.16446" y1="283.53525" y2="260.75809">
<stop offset="0" stop-color="#f6ffd5"/>
<stop offset="1" stop-color="#f6ffd5" stop-opacity="0"/>
</linearGradient>
<linearGradient gradientUnits="userSpaceOnUse" id="linearGradient5604" x1="249.41578" x2="249.17738" y1="181.01471" y2="219.50454">
<stop offset="0" stop-color="#604d46"/>
<stop offset=".06814" stop-color="#674d4c"/>
<stop offset=".5" stop-color="#e3dedb"/>
<stop offset="1" stop-color="#604d46"/>
</linearGradient>
<linearGradient gradientUnits="userSpaceOnUse" id="linearGradient5606" x1="169.62589" x2="288.58813">
<stop offset="0" stop-color="#1a1a1a" stop-opacity=".49246"/>
<stop offset=".5" stop-color="#1a1a1a" stop-opacity="0"/>
<stop offset="1" stop-color="#1a1a1a" stop-opacity=".59296"/>
</linearGradient>
<linearGradient gradientUnits="userSpaceOnUse" id="linearGradient5614" x1="309.53238" x2="337.681" y1="275.70099" y2="254.1467">
<stop offset="0" stop-color="#d7cd7f"/>
<stop offset="1" stop-color="#d7cd7f" stop-opacity="0"/>
</linearGradient>
<linearGradient gradientUnits="userSpaceOnUse" id="linearGradient5618" x1="281.89944" x2="339.77441">
<stop offset="0" stop-color="#391a10"/>
<stop offset="1" stop-color="#391a10" stop-opacity="0"/>
</linearGradient>
<linearGradient gradientUnits="userSpaceOnUse" id="linearGradient5648" x1="741.76367" x2="741.29596" y1="134.42766" y2="117.00916">
<stop offset="0" stop-color="#333"/>
<stop offset="1" stop-color="#333" stop-opacity="0"/>
</linearGradient>
<linearGradient gradientUnits="userSpaceOnUse" id="linearGradient5650" spreadMethod="reflect" x1="724.29199" x2="791.11328">
<stop offset="0" stop-color="#f1e6d2"/>
<stop offset=".43134" stop-color="#c8ab37"/>
<stop offset="1" stop-color="#d1ad83"/>
</linearGradient>
<linearGradient gradientUnits="userSpaceOnUse" id="linearGradient5672" x1="230.93668" x2="188.0329" y1="195.12396" y2="203.01053">
<stop offset="0" stop-color="#837373"/>
<stop offset="1" stop-color="#837373" stop-opacity="0"/>
</linearGradient>
<linearGradient gradientUnits="userSpaceOnUse" id="linearGradient5558" x1="203.77179" x2="165.2475" xlink:href="#linearGradient5241" y1="170.97911" y2="309.54248"/>
<linearGradient gradientUnits="userSpaceOnUse" id="linearGradient5578" x1="73.55983" x2="73.13601" xlink:href="#linearGradient4088" y1="196.30098" y2="212.77609"/>
<linearGradient gradientUnits="userSpaceOnUse" id="linearGradient5580" x1="173.69975" x2="173.61935" xlink:href="#linearGradient4088" y1="212.59416" y2="225.93021"/>
<linearGradient gradientUnits="userSpaceOnUse" id="linearGradient5588" x2="0" xlink:href="#linearGradient4088" y1="179.25595" y2="197.73106"/>
<linearGradient gradientUnits="userSpaceOnUse" id="linearGradient5590" x2="0" xlink:href="#linearGradient4088" y1="195.25595" y2="213.73106"/>
<linearGradient gradientUnits="userSpaceOnUse" id="linearGradient5596" x1="274.03403" x2="269.42099" xlink:href="#linearGradient4262" y1="291.71396" y2="236.73677"/>
<linearGradient gradientUnits="userSpaceOnUse" id="linearGradient5616" x1="270.41574" x2="270.79739" xlink:href="#linearGradient4088" y1="184.60913" y2="223.29556"/>
<linearGradient gradientUnits="userSpaceOnUse" id="linearGradient5642" x1="756.53674" x2="643.39752" xlink:href="#linearGradient5241" y1="-.57035" y2="19.02547"/>
<linearGradient gradientUnits="userSpaceOnUse" id="linearGradient5646" spreadMethod="reflect" x1="731.29199" x2="801.51501" xlink:href="#linearGradient4262"/>
<radialGradient cx="303.25" cy="232.75401" gradientTransform="matrix(1.34335,0,0,1.14485,-103.12073,-39.26505)" gradientUnits="userSpaceOnUse" id="radialGradient5570" r="14.5625">
<stop offset="0" stop-color="#fff"/>
<stop offset="1" stop-color="#fff" stop-opacity="0"/>
</radialGradient>
<radialGradient cx="148.53125" cy="207.15178" gradientTransform="matrix(1.4043,1.86136,-1.39635,1.05348,229.20542,-287.26277)" gradientUnits="userSpaceOnUse" id="radialGradient5582" r="19.25">
<stop offset="0" stop-color="#797071"/>
<stop offset="1" stop-color="#bababa"/>
</radialGradient>
<radialGradient cx="291.39166" cy="195.55895" gradientUnits="userSpaceOnUse" id="radialGradient5592" r="18.86041">
<stop offset="0" stop-color="#acadb1"/>
<stop offset="1" stop-color="#acadb1" stop-opacity="0"/>
</radialGradient>
<radialGradient cx="286.46875" cy="224.61076" gradientTransform="matrix(.59524,1.2261943e-7,-9.45816e-8,.45913,115.95162,118.05901)" gradientUnits="userSpaceOnUse" id="radialGradient5598" r="42">
<stop offset="0" stop-color="#797374"/>
<stop offset="1" stop-color="#797374" stop-opacity="0"/>
</radialGradient>
<radialGradient cx="196.32812" cy="210.09885" gradientTransform="matrix(1,0,0,1.56158,0,-119.17968)" gradientUnits="userSpaceOnUse" id="radialGradient5600" r="32.85938">
<stop offset="0" stop-color="#a59fa0"/>
<stop offset="1" stop-color="#a59fa0" stop-opacity="0"/>
</radialGradient>
<radialGradient cx="281.77289" cy="200.73863" gradientTransform="matrix(.82212,0,0,1.1989,50.12271,-38.35983)" gradientUnits="userSpaceOnUse" id="radialGradient5608" r="11.24335">
<stop offset="0" stop-color="#b4b7c0"/>
<stop offset="1" stop-color="#615d5e"/>
</radialGradient>
<radialGradient cx="111.98284" cy="210.875" gradientTransform="matrix(1,0,0,.18603,0,171.64574)" gradientUnits="userSpaceOnUse" id="radialGradient5612" r="111.20466">
<stop offset="0" stop-color="#e3dedb"/>
<stop offset="1" stop-color="#e3dedb" stop-opacity=".56281"/>
</radialGradient>
<radialGradient cx="283.68765" cy="250.08693" gradientTransform="matrix(1.40265,.40266,-.20938,.72936,-61.18217,-45.81935)" gradientUnits="userSpaceOnUse" id="radialGradient5620" r="9.934">
<stop offset="0" stop-color="#4d4d4d"/>
<stop offset="1" stop-color="#4d4d4d" stop-opacity="0"/>
</radialGradient>
<radialGradient cx="117.03059" cy="452.21567" gradientUnits="userSpaceOnUse" id="radialGradient5622" r="38.64731">
<stop offset="0" stop-color="#999"/>
<stop offset="1" stop-color="#4d4d4d"/>
</radialGradient>
<radialGradient cx="117.03125" cy="451.125" gradientTransform="matrix(1,0,0,.23282,0,346.09346)" gradientUnits="userSpaceOnUse" id="radialGradient5624" r="38.65625">
<stop offset="0" stop-color="#666"/>
<stop offset="1" stop-color="#999"/>
</radialGradient>
<radialGradient cx="742.09375" cy="-41.41468" gradientTransform="matrix(.68348,-4.5286929e-8,1.0918677e-7,1.64787,234.88649,29.33994)" gradientUnits="userSpaceOnUse" id="radialGradient5644" r="31.59375">
<stop offset="0" stop-color="#808080"/>
<stop offset="1" stop-color="#666"/>
</radialGradient>
<radialGradient cx="173.32698" cy="299.77045" gradientUnits="userSpaceOnUse" id="radialGradient5556" r="33.96872" xlink:href="#linearGradient5241"/>
<radialGradient cx="303.28931" cy="198.30495" gradientTransform="matrix(1.97836,0,0,3.15561,-295.2416,-427.46728)" gradientUnits="userSpaceOnUse" id="radialGradient5610" r="11.24335" xlink:href="#linearGradient5241"/>
</defs>
<g transform="translate(5.38418,-168.66312)">
<path d="m169.70195,265.17718c-1.36629-.0216-2.54715.34299-3.375,1.15625-.68036.66836-1.069,1.59725-1.1875,2.65625-.82737,3.1712 1.22742,8.18369 5.40625,12.4375 .70103.71362 1.42179,1.37653 2.15625,1.96875l21.59375,21.96875-.15625.15625 .3125.3125-.46875.4375 2.125,2.15625 .59375-.59375 9.875-9.6875 .5625-.5625-.3125-.3125 .46875-.4375-2.125-2.15625-.5625.53125-24.3125-24.75-.125.125c-3.48351-3.39071-7.46294-5.35873-10.46875-5.40625zm-11.78125,3.875c-.65692-.0192-1.30505.16395-1.96875.46875-3.17556.90129-6.3792,5.41171-7.71875,11.34375-.22035.97578-.36856,1.93687-.46875,2.875l-6.78125,30.03125-.21875-.0625-.0937.4375-.65625-.125-.65625,2.9375 .84375.1875 13.46875,3.03125 .78125.1875 .0937-.4375 .65625.15625 .65625-2.9375-.78125-.1875 7.65625-33.84375-.84375-.1875c.002-.0103-.002-.021 0-.0312l.6875.15625c1.40269-6.93038-.31514-13.08826-3.9375-13.90625-.23258-.0525-.48223-.0868-.71875-.0937zm8.4375,15.4375c-.46808.0366-.92457.1756-1.34375.375-.82286.39142-1.45167,1.06961-1.90625,1.96875-1.91502,2.68271-1.63342,8.18589.96875,13.65625 .42971.90335.90532,1.76298 1.40625,2.5625l13.25,27.8125-.21875.0937 .1875.375-.59375.28125 1.3125,2.75 .78125-.375 12.46875-5.9375 .71875-.34375-.1875-.40625 .59375-.28125-1.28125-2.71875-.71875.34375-.1875-.40625-14.71875-30.9375-.78125.375-.0312-.0312 .625-.28125c-2.78215-5.52623-7.06724-9.13139-10.34375-8.875z" fill="url(#radialGradient5556)" opacity=".5"/>
<path d="m328.06808,329.15814-2.91576-1.22778 .81196-9.77222c1.24122-14.9384.84695-28.03568-1.03724-34.45578-3.37839-11.51136-13.03565-19.74611-23.21223-19.79308-5.94294-.0274-8.08524,1.54961-11.39625,8.38924-2.52017,5.20598-6.51413,8.46515-11.33168,9.24693-3.98394.64651-19.91957-2.1991-23.93052-4.27324-4.97789-2.57417-6.77215-6.82639-6.77637-16.05936-.004-7.741-.16194-8.33128-2.99618-11.16552-2.99791-2.99791-6.81403-4.23366-17.50756-5.66938-2.75-.36922-6.125-1.45236-7.5-2.40698s-5.875-2.26639-10-2.91504c-6.75588-1.06237-7.84737-1.56072-11.00115-5.02289l-3.50114-3.8435-18.76399-.72797-19.76399-1.57435-2.37483,1.99829c-1.30616,1.09906-3.19392,1.99828-4.19502,1.99828-2.68392,0-6.18754-3.34367-7.26224-6.9307-1.89165-6.31375-10.0697-8.76153-78.59885-10.12039-30.22866-.5994-51.44042-3.29818-51.7549-3.49254s-1.07212-2.14043-1.68364-4.3246c-.98403-3.51459-1.39789-3.97121-3.59937-3.97121-2.98999,0-4.19698-1.90656-4.88506-7.71639-.32462-2.74087-.03878-5.24153.8393-7.34311 1.22693-2.93645 1.66553-3.21805 5.58201-3.58381 2.33775-.21833 5.51202-.9296 7.05392-1.5806 2.22346-.93875 3.22191-.96463 4.82608-.12514 1.56416.81856 20.88976-.96835 93.58288-1.56419 73.74152-.60443 94.79595-.50364 97.69322.46768 4.82077,1.61617 53.51751,2.56419 54.44717,1.05996 .96216-1.5568 12.08388-.22208 18.66408,2.23989 3.11986,1.16729 6.86977,1.97945 8.33314,1.80481 2.68437-.32037 3.19533-.89755 5.56042-6.28121 1.71552-3.90505 6.13161-6.44978 8.54334-4.92303 2.26729,1.43531 1.76074,6.34671-.84266,8.1702-1.409.98691-1.89871,2.54747-1.89871,6.0507 0,2.78829-.68251,5.69522-1.66727,7.10115-1.10252,1.57407-1.65384,4.3273-1.62763,8.12821 .0362,5.24222.35639,6.0646 3.64034,9.34855 1.98038,1.98038 3.97021,5.02671 4.42184,6.76961 .76879,2.96685 1.25488,3.25658 7.62313,4.54363 13.87388,2.80397 21.69528,7.13479 33.50971,18.55482 8.02936,7.7613 15.28177,19.60662 26.32041,42.98898 5.44526,11.53431 11.61556,23.72983 13.71179,27.10117 3.14454,5.05732 3.72661,6.7901 3.32718,9.90462-.27052,2.10929-1.22118,4.16938-2.15455,4.6689-2.76683,1.48076-60.87184,1.77745-64.31312.32839zm-54.55731-57.19365c-.14601-.64429.90705-2.70869 2.34014-4.58756 3.07699-4.03414 4.16715-10.20841 2.25151-12.75164-.85362-1.13327-4.26089-2.31315-9.56225-3.31123-6.8854-1.29632-8.6746-1.33558-10.91006-.23938-3.8475,1.8867-6.37608,5.78219-6.53732,10.07134-.23381,6.21941 5.03725,10.16447 15.68346,11.7381 5.82455.86093 7.09862.68695 6.73452-.91963zm9.51367-.61475c3.06541-2.14709 4.8609-8.4572 3.25843-11.45145-.96828-1.80924-1.4035-1.99534-2.09879-.89747-.48246.76181-.8841,2.52745-.89252,3.92366s-.8668,4.20871-1.90751,6.25c-2.06542,4.0512-1.71027,4.52216 1.64039,2.17526z" fill="url(#linearGradient5558)"/>
<path d="m284.96875,194.75-20.15625,10.875-40.6875.8125-.125,15.40625-9.21875.375-.125-15.59375-4.28125.0937-7.375,16.2813c.17901.32968.36961.66357.59375.96875 1.37545,1.87277 3.16529,3.85779 5.4375,4.34375 33.09951,7.07909 99.4375,14.15625 99.4375,14.15625l-2.5625-34.84375-7.625-.53125c0,0-1.8982-4.51385-4.3125-9.875z" fill="url(#linearGradient5560)"/>
<path d="m309.8125,172.96875c-2.36047.19828-5.22451,2.40045-6.53125,5.375-2.36509,5.38366-2.87813,5.96088-5.5625,6.28125-1.46337.17464-5.22389-.64521-8.34375-1.8125-6.5802-2.46197-17.69409-3.8068-18.65625-2.25-.73416,1.18791-31.1956.86709-46.375-.125l-.34375,41.40625-9.21875.375-.34375-43c-6.72464-.68-30.72369-.69001-95.84375-.15625-72.69312.59584-94.52992.49536-96.3125-.4375-1.82818-.95672-2.96606-.94484-5.5.125-1.75721.7419-5.36705,1.56368-8.03125,1.8125-4.46338.41684-4.97675.716-6.375,4.0625-1.00072,2.39505-1.3387,5.25139-.96875,8.375 .78417,6.62112 2.18625,8.8125 5.59375,8.8125 2.5089,0 2.97231.52588 4.09375,4.53125 .69692,2.48917 1.54786,4.68475 1.90625,4.90625s25.39634.9006 55.625,1.5c68.52915,1.35886 73.15507,1.98542 75.59375,10.125 1.38548,4.62434 5.91493,8.9375 9.375,8.9375 1.2906,0 3.72237-1.17687 5.40625-2.59375l3.0625-2.5625 18.75.71875 18.78125.71875 3.5,3.84375c3.15378,3.46216 4.24412,3.96888 11,5.03125 4.125.64865 8.625,1.95164 10,2.90625s4.75,2.03703 7.5,2.40625c10.69353,1.43572 14.50209,2.68959 17.5,5.6875 2.83424,2.83424 2.996,3.41525 3,11.15625 .004,9.23297 1.80336,13.48833 6.78125,16.0625 4.01095,2.07414 19.92231,4.92776 23.90625,4.28125 4.81755-.78178 8.82358-4.04402 11.34375-9.25 3.31101-6.83963 5.46331-8.43365 11.40625-8.40625 10.17658.047 19.80911,8.30114 23.1875,19.8125 1.88419,6.4201 2.30372,19.4991 1.0625,34.4375l-.8125,9.78125 2.90625,1.21875c3.44128,1.44906 61.54567,1.16826 64.3125-.3125 .93337-.49952 1.88573-2.57821 2.15625-4.6875 .39943-3.11452-.19921-4.81768-3.34375-9.875-2.09623-3.37134-8.24224-15.59069-13.6875-27.125-11.03864-23.38236-18.31439-35.20745-26.34375-42.96875-11.81443-11.42002-19.62612-15.75853-33.5-18.5625-6.36825-1.28705-6.85621-1.5644-7.625-4.53125-.45163-1.7429-2.42587-4.80087-4.40625-6.78125-3.28395-3.28395-3.62005-4.10153-3.65625-9.34375-.0262-3.80091.52248-6.55093 1.625-8.125 .98476-1.40593 1.6875-4.33671 1.6875-7.125 0-3.50323.466-5.04434 1.875-6.03125 2.6034-1.82349 3.11104-6.75219.84375-8.1875-.4522-.28627-.96913-.41964-1.53125-.4375-.15224-.005-.31139-.0132-.46875,0zm-44.65625,75.25c1.58741.0348 3.7448.35184 7.1875,1 3.97602.74856 6.90176,1.61167 8.46875,2.46875 .95027.2717 1.97509.57551 2.65625.90625 1.82485.88606 4.21787,2.0745 5,3.46875 .0403.0718.06.16897.0937.25 .049-.0233.1075-.0555.15625-.0625 .38236-.0545.76983.43173 1.375,1.5625 1.60247,2.99425-.18459,9.32166-3.25,11.46875-1.11689.7823-1.86889,1.21769-2.34375,1.34375l-.0625.15625c0,0-2.85895.51293-4.3125.625-1.51917.1172-4.59375.0625-4.59375.0625l.0312-.15625c-1.05697.0165-2.63409-.15491-4.96875-.5-10.64621-1.57363-15.92131-5.53059-15.6875-11.75 .16124-4.28915 2.68375-8.1758 6.53125-10.0625 1.11773-.5481 2.13134-.81608 3.71875-.78125z" fill="#4d4d4b"/>
<path d="m201.78125,222.03125 .0625,5.6875 2.65625,2.9375c1.53383,1.68381 2.32915,2.41812 3.53125,2.96875 1.18739.54388 2.99849.9427 6.34375,1.46875 2.15101.33824 4.38383.85544 6.28125,1.40625 1.88487.54716 3.42028,1.0412 4.53125,1.8125 .0228.0158.35243.19976.71875.34375l.0937.0312v-6.34375c-6.17598-1.05631-12.0893-2.13507-17.15625-3.21875-2.63528-.56361-4.49327-2.73238-5.90625-4.65625-.55319-.7532-.82638-1.6086-1.15625-2.4375z" fill="url(#linearGradient5562)" transform="translate(0,1)"/>
<path d="m306.09375,208.53125-.71875,32.75-81.28125-11.53125v10.5625c1.52084.90371 4.62007,1.87404 7.1875,2.21875 10.69353,1.43572 14.50209,2.65834 17.5,5.65625 2.83424,2.83424 2.996,3.41525 3,11.15625 .004,9.23297 1.80336,13.48833 6.78125,16.0625 4.01095,2.07414 19.92231,4.92776 23.90625,4.28125 4.81755-.78178 8.82358-4.04402 11.34375-9.25 3.31101-6.83963 5.46331-8.4024 11.40625-8.375 10.17658.047 19.80911,8.26989 23.1875,19.78125 1.88419,6.4201 2.30372,19.53035 1.0625,34.46875l-.8125,9.75 2.90625,1.25c3.44128,1.44906 61.54567,1.13701 64.3125-.34375 .93337-.49952 1.88573-2.54696 2.15625-4.65625 .39943-3.11452-.16796-4.84893-3.3125-9.90625-2.09623-3.37134-8.27349-15.55944-13.71875-27.09375-11.03864-23.38236-18.31439-35.2387-26.34375-43-11.81443-11.42002-19.62612-15.75853-33.5-18.5625-6.36825-1.28705-6.85621-1.5644-7.625-4.53125-.45163-1.7429-2.42587-4.80087-4.40625-6.78125-1.6305-1.6305-2.53399-2.64713-3.03125-3.90625zm-41.25,39.90625c1.58741.0348 3.7448.38309 7.1875,1.03125 2.65068.49904 4.81625,1.06329 6.4375,1.625v-.0312c0,0 3.4302.76903 5,1.53125 1.82485.88606 4.21787,2.0745 5,3.46875 .0701.12497.10548.28614.15625.4375 .3183.12344.66455.61249 1.15625,1.53125 1.60247,2.99425-.18459,9.32166-3.25,11.46875-.92841.65029-1.61131,1.04997-2.09375,1.25v.0312c-.0468.0192-.0823.0165-.125.0312-.20693.0714-.38877.12928-.5.0937h-.0312c-.78852.13324-2.49706.41063-3.65625.5-1.28439.0991-3.35764.0731-4.0625.0625-.97348.17229-2.75344.01-5.78125-.4375-10.64621-1.57363-15.92131-5.53059-15.6875-11.75 .16124-4.28915 2.68375-8.1758 6.53125-10.0625 1.11773-.5481 2.13134-.81608 3.71875-.78125z" fill="url(#linearGradient5564)"/>
<path d="m225.59375,231.46875v2.625l.1875-.0312a1.49513,1.49513 0 0,1 1.625,1.65625l-.46875,4.09375c1.41196.50711 3.03344,1.0489 4.53125,1.25 5.37903.72219 9.07957,1.36873 11.90625,2.28125s4.81782,2.13032 6.46875,3.78125c1.58423,1.58423 2.4811,3.06856 2.9375,5.09375l2.375.71875c1.27883-2.10673 3.01929-3.93797 5.3125-5.0625 1.26557-.6206 2.63676-.97633 4.40625-.9375 1.77625.0389 3.9789.41135 7.4375,1.0625 2.50341.47131 4.49701,1.01482 6.15625,1.5625a1.49513,1.49513 0 0,1 .0312,0l.15625.0312a1.49513,1.49513 0 0,1 .125,0c0,0 3.35961.69285 5.34375,1.65625 .91769.44559 2.01199.98292 3.03125,1.625s2.00432,1.3623 2.625,2.46875c.10393.18527.0558.20061.0937.3125 .51977.45106.84682.96128 1.21875,1.65625 1.33788,2.49985.90189,5.74058-.28125,8.59375l3.125,1.28125c1.26559-2.20766 2.51053-3.93796 4.15625-5 1.95219-1.25981 4.25167-1.63825 7.125-1.625h.3125l3.90625-11.96875-41.25-11.09375-.15625-.0312-42.4375-6z" fill="url(#linearGradient5566)"/>
<path d="m222.26328,229.67403 84.91522,12.65563-.81649,10.47832-5.71545-1.72164c0,0-4.60811-1.51205-6.6206-2.81649-1.93927-1.25698-2.78291-4.27557-5.08246-4.71545-22.02561-4.2133-42.1559-6.75237-64.50291-10.88657-1.21335-.22447-2.17731-2.9938-2.17731-2.9938z" fill="url(#linearGradient5568)"/>
<path d="m305.09375,208.53125-.40625,18.1875 29.125,1.15625c-4.04655-1.79054-8.42576-3.0679-13.65625-4.125-6.36825-1.28705-6.85621-1.5644-7.625-4.53125-.45163-1.7429-2.42587-4.80087-4.40625-6.78125-1.6305-1.6305-2.53399-2.64713-3.03125-3.90625z" fill="url(#radialGradient5570)"/>
<path d="m313,223.53125c-3.31039.0522-7.09375.25-7.09375.25l.09375,28.96875c0,0 5.52572.82598 8.0625,1.9375 3.89484,1.70656 7.60529,4.0999 10.59375,7.125 3.12608,3.1644 5.51386,7.08799 7.3125,11.15625 1.66094,3.7568 2.52909,7.86891 3.09375,11.9375 .75859,5.46598.71157,11.02316.375,16.53125-.16212,2.6532-.79636,5.27257-1.15625,7.90625-.55157,4.03637-1.53125,12.125-1.53125,12.125l65.625-.78125 .0625-.125c.006-1.81897-.54437-3.43296-2.0625-6.09375l-3.40625-4.1875-17.3125-35-.34375-2.4375c-7.85233-15.46633-13.87163-24.49395-20.34375-30.75-11.30348-10.92612-18.95904-15.36849-31.75-18.1875-2.39981-.19042-4.81415-.31225-7.21875-.375-.84068-.0219-1.89654-.0174-3,0z" fill="url(#linearGradient5572)"/>
<path d="m330.37878,225.73613c.31263.57518.62674,1.10931.9375,1.53125 5.94668,8.07434 16.09608,12.34373 22.34375,20.1875 7.87264,9.88387 12.80661,21.79732 18.46875,33.09375 5.919,11.80886 7.8594,25.90907 16.15625,36.1875 .90352,1.11931 2.31784,2.31915 3.84375,3.46875l5.03125-.0625 .0625-.125c.006-1.81897-.54437-3.43296-2.0625-6.09375l-3.40625-4.1875-17.3125-35-.34375-2.4375c-7.85233-15.46633-13.87163-24.49395-20.34375-30.75-8.60545-8.31817-15.12252-12.86556-23.375-15.8125z" fill="#520"/>
<path d="m314.21863,224.18956c2.67738,6.21499 5.69399,12.2988 8.65625,18.375 9.54832,19.15631 19.63982,38.05203 29.53125,57.03125 5.15145,9.88436 8.28878,15.94191 11.46875,22.15625h.40625c-3.09434-6.08873-6.14758-12.06894-11.1875-21.84375-9.7256-18.86255-19.61677-37.6191-28.9375-56.6875-3.00137-6.27723-6.08103-12.58738-8.75-19.03125h-1.1875zm4.03125.0625c10.71202,20.03527 21.29004,40.15404 32,60.1875 6.71334,12.46006 13.53316,24.86159 20.375,37.25l.40625-.0312c-6.7695-12.26558-13.50921-24.55581-20.125-36.90625-10.66486-20.1012-21.21001-40.25429-31.65625-60.46875-.33217-.0159-.66787-.0177-1-.0312zm-8.875.0625c-.55098.0207-.92897.0119-1.375.0312 .005.0152.026.0478.0312.0625 .47582,1.18526.89948,2.39014 1.40625,3.5625 3.0597,7.07825 6.67149,13.95682 10.1875,20.8125 4.33348,8.44962 8.462,16.33274 12.875,24.78125 8.41018,16.1141 16.9693,32.15145 25.40625,48.25h.46875c-8.31096-15.9203-16.68952-31.8105-24.90625-47.78125-4.73663-9.21561-8.00183-15.53064-12.5625-24.625-3.40349-6.78686-6.86476-13.59082-9.8125-20.59375-.49042-1.16507-.91219-2.35493-1.375-3.53125l-.34375-.96875zm19.28125,1.625c2.0777,4.01574 4.23347,8.00324 6.375,11.96875 4.51228,8.3555 8.81448,16.1473 13.40625,24.5 10.84901,19.75074 21.87492,39.38849 32.6875,59.15625l.46875-.0312c-10.68913-19.58077-21.56232-39.07292-32.1875-58.6875-4.93164-9.11274-8.34061-15.34847-13.09375-24.34375-2.1287-4.02854-4.2698-8.07445-6.3125-12.15625-.43713-.1403-.8954-.27338-1.34375-.40625zm8.1875,3.15625c.42906.83317.85314,1.66732 1.28125,2.5 9.95375,18.94882 20.45699,37.61053 30.75,56.375 8.1503,14.85826 11.71109,21.4396 18.1875,33.5h.375c-6.32432-11.85884-9.8234-18.38152-17.84375-33.15625-10.12472-18.65136-20.43191-37.22798-30.15625-56.09375l-1.25-2.46875c-.44437-.23393-.89378-.43702-1.34375-.65625zm7.65625,4.59375c7.30018,13.06649 14.6036,26.14441 21.9375,39.1875 9.20045,16.23895 18.54342,32.40701 27.9375,48.53125l.4375-.0312c-9.33371-16.00754-18.65364-32.04134-27.75-48.1875-7.18097-12.86587-14.30936-25.77592-21.40625-38.6875-.3797-.2861-.77901-.54089-1.15625-.8125zm-38.4375,4.40625 .0312,1.59375c2.5527,5.16318 5.10875,10.33418 7.65625,15.5 .14391.0552.30803.0995.4375.15625 .10673.0468.20605.10845.3125.15625-2.82309-5.79858-5.63379-11.59832-8.4375-17.40625zm.0312,10.21875 .0312,2c.52555,1.12313 1.03376,2.25333 1.5625,3.375 .29854.0532.61401.11904.96875.1875-.85534-1.85098-1.71686-3.70707-2.5625-5.5625zm57.21875,4.28125 .84375,1.53125c3.813,6.94161 7.62979,13.88734 11.46875,20.8125l-.1875-1.4375c-.11717-.23078-.22739-.42833-.34375-.65625-2.19127-3.99325-4.35251-8.00015-6.53125-12-1.81139-3.08478-3.5507-5.82298-5.25-8.25zm-27.59375,45.96875c-.009.26143-.0206.51992-.0312.78125 3.82593,7.55944 7.66245,15.08811 11.53125,22.625l.4375-.0312c-3.99046-7.78262-8.00418-15.56257-11.9375-23.375zm-1.0625,9.875c-.0419.25077-.0861.4991-.125.75 2.21484,4.59466 4.45343,9.26748 6.15625,12.84375h.4375c-1.78516-3.78012-4.05509-8.5373-6.46875-13.59375zm-1.3125,9.78125c-.0516.41803-.0491.44881-.0937.8125 .49859,1.02078 1.00197,2.04144 1.5,3.0625h.5c-.62886-1.29581-1.27689-2.57945-1.90625-3.875z" fill="url(#linearGradient5574)" opacity=".36187"/>
<path d="m306.50945,245.93739 .0312,6.34375c0,0 4.52572.82598 7.0625,1.9375 3.89484,1.70656 7.60529,4.0999 10.59375,7.125 3.12608,3.1644 5.51386,7.08799 7.3125,11.15625 1.66094,3.7568 2.52909,7.86891 3.09375,11.9375 .75859,5.46598.71157,11.02316.375,16.53125-.16212,2.6532-.79636,5.27257-1.15625,7.90625-.55157,4.03637-1.53125,12.125-1.53125,12.125l6.875-.0937 8.3125-1.03125c0,0 .85022-5.11273.78125-7.6875-.22247-8.30475-1.7854-16.5763-3.84375-24.625-1.68991-6.60799-3.62698-13.28663-6.9375-19.25-3.01319-5.42777-6.55648-10.91128-11.53125-14.625-5.5895-4.17262-19.4375-7.75-19.4375-7.75z" fill="url(#linearGradient5576)"/>
<path d="m333.85678,321.3047 64.23075-.54433c0,0-3.39452-2.96896-5.44329-3.8103-4.001-1.64305-8.49147-1.71308-12.79171-2.17731-3.88268-.41915-7.79784-.53164-11.70306-.54433-4.53967-.0147-9.1072-.0471-13.60821.54433-3.68788.48457-7.34209,1.32168-10.88657,2.44947-3.37158,1.07278-9.79791,4.08247-9.79791,4.08247z" fill="#281b13"/>
<path d="m1.96875,196.46875c.87086,3.90518 2.3191,5.34375 5.03125,5.34375 2.5089,0 2.97231.52588 4.09375,4.53125 .69692,2.48917 1.54786,4.68475 1.90625,4.90625s25.39634.9006 55.625,1.5c49.64444.9844 65.74613,1.58704 71.78125,4.9375l2.78125-18.96875-141.21875-2.25z" fill="url(#linearGradient5578)"/>
<path d="m156.28125,204.5625v24.9375h2.375c.11665-.0908.23303-.18809.34375-.28125l3.0625-2.5625 18.75.71875 18.78125.71875 1.28125,1.40625h1.59375v-16.9375z" fill="url(#linearGradient5580)"/>
<path d="m168.78125,197.0625-29.65625,1.15625-8.84375,11.1875 6.9375,5 2.25,4.4375c3.80754,1.35481 4.91666,3.24982 5.75,6.03125 1.38548,4.62434 5.91493,8.9375 9.375,8.9375 1.2906,0 3.72237-1.17687 5.40625-2.59375l3-2.5c.39354-1.49401.79873-3.07059 1.03125-4.21875 .4915-2.42694.88097-4.8767 1.09375-7.34375 .31193-3.61656.25-10.875.25-10.875l3.40625.4375v-9.65625z" fill="#666"/>
<path d="m167.78125,195.0625-29.65625,1.15625-8.84375,11.1875 6.9375,5 2.25,4.4375c3.80754,1.35481 4.91666,3.24982 5.75,6.03125 1.38548,4.62434 5.91493,8.9375 9.375,8.9375 1.2906,0 3.72237-1.17687 5.40625-2.59375l3-2.5c.39354-1.49401.79873-3.07059 1.03125-4.21875 .4915-2.42694.88097-4.8767 1.09375-7.34375 .31193-3.61656.25-10.875.25-10.875l3.40625.4375v-9.65625z" fill="url(#radialGradient5582)"/>
<path d="m156.78125,188.21875-155.5,2.0625c-.01368.88292.01402,1.78167.125,2.71875 .3742,3.1595.88746,5.30656 1.6875,6.6875l154.21875,1.0625-.53125-12.53125z" fill="url(#linearGradient5584)"/>
<path d="m154.47628,199.25654c0,0-.19257,5.16104 1,7.31307 .68008,1.22722 1.94071,2.14995 3.23388,2.69428 4.63597,1.95141 9.99215,1.20661 15.01104,1.5396 4.22653.28042 8.47128.16981 12.70164.3849 1.79844.0914 3.71164-.27136 5.38857.38489 1.53004.59878 2.77543,1.83539 3.84899,3.07919 2.32922,2.69859 2.94454,6.64249 5.38857,9.23756 1.58577,1.68377 5.77348,3.84898 5.77348,3.84898l.76979-23.09389z" fill="url(#linearGradient5586)"/>
<path d="m208.61485,180.41064h20.0147v17.70532h-20.0147z" fill="url(#linearGradient5588)"/>
<path d="m208.61485,196.41064h20.0147v17.70532h-20.0147z" fill="url(#linearGradient5590)"/>
<path d="m309.8125,172.96875c-2.36047.19828-5.22451,2.40045-6.53125,5.375-2.36509,5.38366-2.87813,5.96088-5.5625,6.28125-1.46337.17464-5.22389-.64521-8.34375-1.8125-4.04377-1.51297-9.78387-2.58872-13.84375-2.84375l1,32.1875 31.46875-1.46875c-1.91357-2.16286-2.18895-3.49697-2.21875-7.8125-.0262-3.80091.52248-6.55093 1.625-8.125 .98476-1.40593 1.6875-4.33671 1.6875-7.125 0-3.50323.466-5.04434 1.875-6.03125 2.6034-1.82349 3.11104-6.75219.84375-8.1875-.4522-.28627-.96913-.41964-1.53125-.4375-.15224-.005-.31139-.0132-.46875,0z" fill="url(#radialGradient5592)"/>
<path d="m214.4375,179.625c-75.98763.54155-181.30514,1.45735-209.71875,1.71875-1.05299.52712-1.56799,1.42459-2.34375,3.28125-.81304,1.94586-1.1829,4.20707-1.09375,6.65625l153.84375-.53125c0,0 .14494,10.25289.5625,12.53125 .47174,2.57393 3.93173,4.04344 6.53125,4.34375 11.07141,1.27904 24.84241-1.34939 33.1875,1.5625 2.08382.72712 3.23212,3.08068 4.375,4.96875 1.81462,2.99781 1.73817,6.98817 3.8125,9.8125 1.37545,1.87277 3.16529,3.85779 5.4375,4.34375 33.09951,7.07909 97.4375,14.15625 97.4375,14.15625l-.5625-34.84375-7.625-.53125c0,0-7.7487-18.49214-12-25.28125-6.48699-1.79264-14.7401-.58067-15.5625.75-.73421,1.18799-31.20488-1.13885-46.375-2.125l-.34375,41.40625-9.21875.375z" fill="url(#linearGradient5594)"/>
<path d="m255.14193,240.6875c-1.73816.005-3.09568.42704-4.20568.6875-1.53003.35685-2.75264,1.87022-2.8528,3.53125l-.0588,1c-.0621,1.08845 1.38503,2.67923 1.99991,3.33304 1.03533,1.10467.89545,1.80868 1.17641,2.91696-.28493-1.12506.40222-1.01125.64335.0497 .28119,1.21834.89117,2.78309 2.26085,3.05187s2.60114-.93461 3.27334-1.96586c.79121-1.22907 1.84574-2.23832 3.11609-2.94017 1.00013-.5487 2.91166-2.1908 2.91163-3.60179v-.1875c-.00092-1.3265-.69474-2.62892-1.76462-3.3125-.25745-.1643-.46516-.33025-1.08819-.6875-.77336-.44345-1.56712-.79771-2.26459-1.09375s-.78753-.47733-2.05873-.6875c-.43239-.0714-.63374-.0951-1.08818-.0937z" fill="#333" opacity=".55853"/>
<path d="m254.625,241.59375c-2.60836.007-6.40625,1.0625-6.40625,1.0625l-.3125,4.78125c.29285.24632.60042.47542.875.75 2.83424,2.83424 2.996,3.41525 3,11.15625 .004,9.23297 1.80336,13.48833 6.78125,16.0625 4.01095,2.07414 19.92231,4.92776 23.90625,4.28125 4.81755-.78178 8.82358-4.04402 11.34375-9.25 2.77616-5.73477 4.74811-7.76156 8.8125-8.25-.11477-.16991-4.37011-6.39373-7.78125-7.09375-1.65294-.33921-4.16877.70887-5.9375,1.625 .24383.24257.52721.66265.875,1.3125 1.60247,2.99425-.18459,9.32166-3.25,11.46875-.92841.65029-1.61131,1.04997-2.09375,1.25v.0312c-.0468.0192-.0823.0165-.125.0312-.20693.0714-.38877.12933-.5.0937h-.0312c-.78852.13324-2.49706.41063-3.65625.5-1.28439.0991-3.35764.0731-4.0625.0625-.97348.17229-2.75344.01-5.78125-.4375-10.64621-1.57363-15.92131-5.53059-15.6875-11.75 .16124-4.28915 2.68375-8.1758 6.53125-10.0625 .48663-.23863.96565-.40069 1.46875-.53125l-.21875-3.875c0,0-4.27365-2.77578-6.71875-3.15625-.3092-.0481-.65863-.0635-1.03125-.0625z" fill="url(#linearGradient5596)"/>
<path d="m274.28125,182.90625c-1.9133-.0381-3.2541-2.84275-3.5625-2.34375-.73421,1.18799-31.20488.86115-46.375-.125l-.34375,41.40625-1.53125.0625v9c34.50072,6.11592 84,11.5625 84,11.5625l-.5625-34.84375-7.625-.53125c0,0-7.7487-18.49214-12-25.28125-4.05437-1.1204-8.81117,1.1573-12,1.09375z" fill="url(#radialGradient5598)"/>
<path d="m214.4375,179.625c-18.92331.13621-40.07902.30211-60.96875.46875l.125,10.65625h1.53125c0,0 .14494,10.25289.5625,12.53125 .47174,2.57393 3.93173,4.04344 6.53125,4.34375 11.07141,1.27904 24.84241-1.34939 33.1875,1.5625 2.08382.72712 3.23212,3.08068 4.375,4.96875 1.81462,2.99781 1.73817,6.98817 3.8125,9.8125 1.37545,1.87277 3.16529,3.85779 5.4375,4.34375 2.97628.63655 6.27555,1.27488 9.6875,1.90625l.0625-8.15625-4,.15625-.34375-42.59375z" fill="url(#radialGradient5600)"/>
<path d="m328.75,325.03125-.0937,1.03125 2.90625,1.25c3.44128,1.44906 61.54567,1.13701 64.3125-.34375 .30669-.16413.62032-.49184.90625-.9375l-68.03125-1z" fill="#281b13"/>
<path d="m251.875,262.65625c.42316,6.99178 2.34532,10.50457 6.6875,12.75 4.01095,2.07414 19.92231,4.92776 23.90625,4.28125 4.81755-.78178 8.82358-4.04402 11.34375-9.25 .31818-.65728.60508-1.21816.90625-1.78125-.6481.62097-1.29246,1.22244-1.8125,1.65625-2.37289,1.97941-4.65288,4.25088-7.53125,5.375-1.92702.75258-4.08968.68601-6.15625.78125-3.97513.1832-8.06849.55561-11.9375-.375-4.68737-1.12745-9.92056-2.52673-13.09375-6.15625-1.66785-1.90771-2.30159-7.18845-2.3125-7.28125z" fill="url(#linearGradient5602)" opacity=".5"/>
<path d="m223.53723,181.24491 .23453,41.76146 58.81638-1.92448-2.19858-39.06718z" fill="#241f1c" opacity=".6689"/>
<path d="m223.62589,180.24491 .2302,41.76146 57.73205-1.92448-2.15805-39.06718z" fill="url(#linearGradient5604)"/>
<path d="m223.62589,180.24491 .2302,41.76146 57.73205-1.92448-2.15805-39.06718z" fill="url(#linearGradient5606)"/>
<path d="m281.45403,216.78455c3.23547-.17266 6.58698-.29357 9.62245-1.5396 4.1118-1.62562 7.31392-5.16453 9.93751-8.8142 1.62423-2.51228.93715-5.68859.28119-8.40198-1.02961-2.97232-2.90103-5.55477-4.5651-8.19748-2.93675-4.42218-4.26112-4.9369-8.65874-7.81966-1.64458-.35181-6.88547-2.33561-8.54181-2.17732 .99895,5.64431 2.3959,15.11308 2.62689,20.85301-.31338,7.11446-.75172,9.55596-.70237,16.09723z" fill="url(#radialGradient5608)"/>
<path d="m281.45403,216.78455c3.23547-.17266 6.58698-.29357 9.62245-1.5396 4.1118-1.62562 7.31392-5.16453 9.93751-8.8142 1.62423-2.51228.93715-5.68859.28119-8.40198-1.02961-2.97232-2.90103-5.55477-4.5651-8.19748-2.93675-4.42218-4.26112-4.9369-8.65874-7.81966-1.64458-.35181-6.88547-2.33561-8.54181-2.17732 .99895,5.64431 2.3959,15.11308 2.62689,20.85301-.31338,7.11446-.75172,9.55596-.70237,16.09723z" fill="url(#radialGradient5610)"/>
<path d="m.8125,190.1875c-.00763.37463-.04519.74196-.03125,1.125l.03125.46875h.46875l153.34375-.53125c.006.41092.0445,2.34663.125,4.9375 .0886,2.85308.2066,5.9276.4375,7.1875 .2719,1.48358 1.39419,2.60432 2.71875,3.375s2.883,1.21708 4.25,1.375c5.59797.64671 11.82883.28924 17.6875.15625s11.35866-.0373 15.40625,1.375c1.82089.63537 2.93238,2.83138 4.09375,4.75 .85481,1.41217 1.28119,3.11173 1.75,4.84375s.98835,3.49493 2.09375,5c1.39817,1.9037 3.258,4.02953 5.75,4.5625 4.29049.91762 9.12361,1.84858 14.25,2.75v-1.03125c-5.05772-.89141-9.81961-1.81131-14.0625-2.71875-2.05242-.43895-3.77227-2.28316-5.125-4.125-.96893-1.31926-1.4723-2.9688-1.9375-4.6875s-.88394-3.50811-1.84375-5.09375c-1.12439-1.85752-2.3095-4.36863-4.65625-5.1875-4.2975-1.49955-9.86904-1.57099-15.75-1.4375s-12.05781.47608-17.53125-.15625c-1.23252-.14239-2.70175-.56736-3.875-1.25s-2.01891-1.59715-2.21875-2.6875c-.18666-1.01846-.34923-4.1883-.4375-7.03125s-.125-5.40625-.125-5.40625v-.5h-.5l-153.3125.53125c-.00215-.20083.02749-.39579.03125-.59375h-1.03125z" fill="url(#radialGradient5612)"/>
<path d="m302.34375,258c-1.48111.0263-2.9248.31135-4.0625,1.15625-2.4211,1.798-3.375,8.375-3.375,8.375l.59375-.25c2.5125-4.17772 4.83192-5.24128 9.71875-5.21875 10.17658.047 19.80911,8.26989 23.1875,19.78125 1.12547,3.83486 1.74273,10.0836 1.78125,17.65625l.0625.0625c0,0 1.72917-9.76813 1.15625-14.625-.58463-4.95614-1.85087-10.10159-4.625-14.25-2.52958-3.7827-6.46982-6.56073-10.40625-8.84375-2.94893-1.71029-6.24365-3.03546-9.625-3.46875-1.40562-.18012-2.92514-.40125-4.40625-.375z" fill="url(#linearGradient5614)"/>
<path d="m268.29892,183.49156h2.2849v40.35536h-2.2849z" fill="url(#linearGradient5616)" transform="matrix(.99996,-.00904,.05394,.99854,0,0)"/>
<path d="m312.9932,223.42938c-3.31039.0522-7.09375.25-7.09375.25l.0937,28.96875c0,0 5.52572.82598 8.0625,1.9375 3.89484,1.70656 7.60529,4.0999 10.59375,7.125 .26217.26539.52937.53679.78125.8125 .41962-2.29106.62608-4.71136 0-6.34375-1.19808-3.12376-4.53403-5.25093-7.625-6.53125-2.18564-.90532-5.44552,1.13456-7.09375-.5625-5.31538-5.47284-3.85217-20.59387-1.0625-22.84375 5.0887-4.10406 24.125.78125 24.125.78125-3.21006-1.31007-6.6398-2.35422-10.5625-3.21875-2.39981-.19042-4.81415-.31225-7.21875-.375-.84068-.0219-1.89654-.0174-3,0z" fill="url(#linearGradient5618)"/>
<path d="m272.43633,247.27604 13.60821,3.8103 5.08247,3.26597 1.17731-1.90515-5.71545-3.8103z" fill="url(#radialGradient5620)"/>
<g transform="matrix(.50928,.08628,-.08628,.50928,261.60921,50.82267)">
<path d="m85.44741,411.41407c0,0 9.29389-12.34777 12.00736-19.47511 2.41058-6.33175 3.53959-20.01471 3.53959-20.01471l12.62614-.7698c0,0-3.87768,23.83769-11.54695,32.33145-4.11474,4.5571-16.62614,7.92817-16.62614,7.92817z" fill="#4d4d4d"/>
<path d="m83.44741,411.41407c0,0 9.29389-12.34777 12.00736-19.47511 2.41058-6.33175 3.53959-20.01471 3.53959-20.01471l12.62614-.7698c0,0-3.87768,23.83769-11.54695,32.33145-4.11474,4.5571-16.62614,7.92817-16.62614,7.92817z" fill="#989394"/>
</g>
<g transform="matrix(.10066,-.02399,.02399,.10066,131.33782,180.11249)">
<path d="m155.6779,452.21567c0,21.34432-17.30299,38.64731-38.64731,38.64731s-38.64732-17.30299-38.64732-38.64731 17.30299-38.64731 38.64732-38.64731 38.64731,17.30299 38.64731,38.64731z" fill="url(#radialGradient5622)"/>
<path d="m79.03125,445.125c-.42786,2.30282-.65625,4.66696-.65625,7.09375 0,1.66753.13886,3.29438.34375,4.90625h76.625c.20489-1.61187.34375-3.23872.34375-4.90625 0-2.42679-.22839-4.79093-.65625-7.09375h-76z" fill="url(#radialGradient5624)"/>
</g>
<g transform="matrix(-.10066,-.02399,-.02399,.10066,186.60157,157.78839)">
<path d="m155.6779,452.21567c0,21.34432-17.30299,38.64731-38.64731,38.64731s-38.64732-17.30299-38.64732-38.64731 17.30299-38.64731 38.64732-38.64731 38.64731,17.30299 38.64731,38.64731z" fill="url(#radialGradient5622)"/>
<path d="m79.03125,445.125c-.42786,2.30282-.65625,4.66696-.65625,7.09375 0,1.66753.13886,3.29438.34375,4.90625h76.625c.20489-1.61187.34375-3.23872.34375-4.90625 0-2.42679-.22839-4.79093-.65625-7.09375h-76z" fill="url(#radialGradient5624)"/>
</g>
<g transform="matrix(-.02399,-.10066,.10066,-.02399,254.43695,245.45191)">
<path d="m155.6779,452.21567c0,21.34432-17.30299,38.64731-38.64731,38.64731s-38.64732-17.30299-38.64732-38.64731 17.30299-38.64731 38.64732-38.64731 38.64731,17.30299 38.64731,38.64731z" fill="url(#radialGradient5622)"/>
<path d="m79.03125,445.125c-.42786,2.30282-.65625,4.66696-.65625,7.09375 0,1.66753.13886,3.29438.34375,4.90625h76.625c.20489-1.61187.34375-3.23872.34375-4.90625 0-2.42679-.22839-4.79093-.65625-7.09375h-76z" fill="url(#radialGradient5624)"/>
</g>
<g transform="matrix(.07462,.02467,-.02467,.07462,288.21526,197.86405)">
<path d="m155.6779,452.21567c0,21.34432-17.30299,38.64731-38.64731,38.64731s-38.64732-17.30299-38.64732-38.64731 17.30299-38.64731 38.64732-38.64731 38.64731,17.30299 38.64731,38.64731z" fill="url(#radialGradient5622)"/>
<path d="m79.03125,445.125c-.42786,2.30282-.65625,4.66696-.65625,7.09375 0,1.66753.13886,3.29438.34375,4.90625h76.625c.20489-1.61187.34375-3.23872.34375-4.90625 0-2.42679-.22839-4.79093-.65625-7.09375h-76z" fill="url(#radialGradient5624)"/>
</g>
<g transform="matrix(.049,-.06145,.06145,.049,246.18764,215.67237)">
<path d="m155.6779,452.21567c0,21.34432-17.30299,38.64731-38.64731,38.64731s-38.64732-17.30299-38.64732-38.64731 17.30299-38.64731 38.64732-38.64731 38.64731,17.30299 38.64731,38.64731z" fill="url(#radialGradient5622)"/>
<path d="m79.03125,445.125c-.42786,2.30282-.65625,4.66696-.65625,7.09375 0,1.66753.13886,3.29438.34375,4.90625h76.625c.20489-1.61187.34375-3.23872.34375-4.90625 0-2.42679-.22839-4.79093-.65625-7.09375h-76z" fill="url(#radialGradient5624)"/>
</g>
<g transform="matrix(.21315,.04813,-.04813,.21315,-2.25231,251.38935)">
<path d="m739.125-90.96875c-17.45855,0-31.625,27.2259-31.625,60.8125 0,4.57799.28283,9.02365.78125,13.3125v140.90625 2h-4v13.84375h4 63.21875 3.625v-13.84375h-3.625v-2-156.875h-.8125c-.7245-32.35118-14.56773-58.15625-31.5625-58.15625z" fill="url(#linearGradient5642)" opacity=".5"/>
<path d="m742.125-92.96875c-17.45855,0-31.625,27.2259-31.625,60.8125 0,4.57799.28283,9.02365.78125,13.3125v-15.96875h62.40625c-.7245-32.35118-14.56773-58.15625-31.5625-58.15625z" fill="url(#radialGradient5644)"/>
<path d="m711.29199-34.80063h63.223v172.70673h-63.223z" fill="url(#linearGradient5646)"/>
<path d="m711.28125,122.0625v13.84375h63.21875v-13.84375h-63.21875z" fill="url(#linearGradient5648)"/>
<path d="m707.29199,124.04977h70.82128v13.85633h-70.82128z" fill="url(#linearGradient5650)"/>
</g>
<g transform="matrix(.19732,-.09386,.09386,.19732,29.08427,371.00799)">
<path d="m739.125-90.96875c-17.45855,0-31.625,27.2259-31.625,60.8125 0,4.57799.28283,9.02365.78125,13.3125v140.90625 2h-4v13.84375h4 63.21875 3.625v-13.84375h-3.625v-2-156.875h-.8125c-.7245-32.35118-14.56773-58.15625-31.5625-58.15625z" fill="url(#linearGradient5642)" opacity=".5"/>
<path d="m742.125-92.96875c-17.45855,0-31.625,27.2259-31.625,60.8125 0,4.57799.28283,9.02365.78125,13.3125v-15.96875h62.40625c-.7245-32.35118-14.56773-58.15625-31.5625-58.15625z" fill="url(#radialGradient5644)"/>
<path d="m711.29199-34.80063h63.223v172.70673h-63.223z" fill="url(#linearGradient5646)"/>
<path d="m711.28125,122.0625v13.84375h63.21875v-13.84375h-63.21875z" fill="url(#linearGradient5648)"/>
<path d="m707.29199,124.04977h70.82128v13.85633h-70.82128z" fill="url(#linearGradient5650)"/>
</g>
<g transform="matrix(.15588,-.15313,.15313,.15588,66.65634,392.63088)">
<path d="m739.125-90.96875c-17.45855,0-31.625,27.2259-31.625,60.8125 0,4.57799.28283,9.02365.78125,13.3125v140.90625 2h-4v13.84375h4 63.21875 3.625v-13.84375h-3.625v-2-156.875h-.8125c-.7245-32.35118-14.56773-58.15625-31.5625-58.15625z" fill="url(#linearGradient5642)" opacity=".5"/>
<path d="m742.125-92.96875c-17.45855,0-31.625,27.2259-31.625,60.8125 0,4.57799.28283,9.02365.78125,13.3125v-15.96875h62.40625c-.7245-32.35118-14.56773-58.15625-31.5625-58.15625z" fill="url(#radialGradient5644)"/>
<path d="m711.29199-34.80063h63.223v172.70673h-63.223z" fill="url(#linearGradient5646)"/>
<path d="m711.28125,122.0625v13.84375h63.21875v-13.84375h-63.21875z" fill="url(#linearGradient5648)"/>
<path d="m707.29199,124.04977h70.82128v13.85633h-70.82128z" fill="url(#linearGradient5650)"/>
</g>
<path d="m294.25,258c.0303.006-.8442.31597-1.1875.40625 .57064,2.13936.28607,4.35396-.3125,6.46875-.76674,2.70894-2.10149,5.36064-4.53125,7.0625-.65646.45981-1.17653.67106-1.71875.96875a2.95811,2.95811 0 0,1 -.0937.0625 2.95811,2.95811 0 0,1 -.84375.5625c-.62116.25483-.8191.24766-.28125.0625-.16715.0577-.53495.24783-1.21875.25h-.0625c-.0229.004-.0699.0273-.0937.0312h-.0625c-.88702.14829-2.25146.37249-3.5.46875-1.56737.12093-3.59316.10457-4.3125.0937v-.0312c-1.70874.20252-3.37893-.0224-6.1875-.4375-5.60796-.82892-10.01266-2.29306-13.25-4.71875-.21139-.15839-.36305-.36226-.5625-.53125 .82309,1.94898 1.84759,3.01408 3.875,4.0625 1.07958.55827 6.30732,2.00613 11.15625,2.875 2.42447.43444 4.83484.77018 6.84375.96875s3.74465.2129 4.09375.15625c3.78925-.61491 6.96056-3.0893 9.15625-7.625 1.44821-2.9916 2.73408-5.22493 4.53125-6.9375 .61671-.58768 1.36909-.99455 2.09375-1.40625-1.35063-1.49437-3.27939-2.76081-3.53125-2.8125z" fill="#fff" opacity=".55853"/>
<path d="m282.9375,273.71875 .3125.0625c-.0943-.022-.13147-.0393-.21875-.0625-.0349-.009-.0651.008-.0937,0z" fill="#fff" opacity=".55853"/>
<path d="m214.4375,179.625-3.125.0312c-.0347.29976-.0906.65603-.125.9375-.4236,3.46432-.87204,6.93582-1.625,10.34375-.56996,2.57963-.74594,5.41112-2.1875,7.625-1.54653,2.3751-4.98472,3.0624-6.53125,5.4375-1.17126,1.79878-2.07994,4.65285-2.78125,7.40625 .63719.87669 1.1809,1.86146 1.71875,2.75 1.81462,2.99781 1.73817,6.98817 3.8125,9.8125 1.37545,1.87277 3.16529,3.85779 5.4375,4.34375 2.97628.63655 6.27555,1.27488 9.6875,1.90625l.0625-8.15625-4,.15625-.34375-42.59375z" fill="url(#linearGradient5672)"/>
</g>
</svg>
