<?xml version="1.0" encoding="utf8" standalone="no"?>
<svg viewBox="0 0 400 400" xmlns="http://www.w3.org/2000/svg" xmlns:xlink="http://www.w3.org/1999/xlink">
<defs>
<filter id="filter4157">
<feGaussianBlur stdDeviation="1.30818"/>
</filter>
<filter id="filter5860">
<feGaussianBlur stdDeviation=".89531"/>
</filter>
<filter id="filter5969">
<feGaussianBlur stdDeviation=".5191"/>
</filter>
<filter id="filter5917"></filter>
<filter height="1" id="filter6315" width="1" x="0" y="0">
<feFlood flood-color="#808080" flood-opacity="0" result="result1"/>
<feBlend in2="SourceGraphic" mode="normal" result="result2"/>
<feComposite in2="SourceGraphic" k1="0" k2="1" k3="0" k4="0" operator="arithmetic" result="result3"/>
<feComposite in2="SourceGraphic" operator="in"/>
</filter>
<filter height="1.1014" id="filter4223" width="1.2483" x="-.12415" y="-.0507">
<feGaussianBlur stdDeviation="1.07751"/>
</filter>
<filter height="1.35308" id="filter4129" width="1.18178" x="-.09089" y="-.17654">
<feGaussianBlur stdDeviation="1.36607"/>
</filter>
<filter height="1.21685" id="filter4063" width="1.11165" x="-.05582" y="-.10842">
<feGaussianBlur stdDeviation=".839"/>
</filter>
<filter height="1.2686" id="filter5933" width="1.05844" x="-.02922" y="-.1343">
<feGaussianBlur stdDeviation=".22936"/>
</filter>
<filter height="1.13471" id="filter5796" width="1.22204" x="-.11102" y="-.06735">
<feGaussianBlur stdDeviation=".38192"/>
</filter>
<filter height="1.23536" id="filter5909" width="1.0603" x="-.03015" y="-.11768">
<feGaussianBlur stdDeviation=".26316"/>
</filter>
<filter height="1.23221" id="filter6028" width="1.05139" x="-.02569" y="-.11611">
<feGaussianBlur stdDeviation=".26851"/>
</filter>
<filter height="1.24463" id="filter6032" width="1.05295" x="-.02647" y="-.12231">
<feGaussianBlur stdDeviation=".26851"/>
</filter>
<linearGradient gradientUnits="userSpaceOnUse" id="linearGradient9113-371" x1="-826.70772" x2="-826.95772" y1="211.20533" y2="242.20533">
<stop offset="0" stop-color="#444"/>
<stop offset="1" stop-color="#181818"/>
</linearGradient>
<linearGradient gradientUnits="userSpaceOnUse" id="linearGradient9115-676" x1="-842.23589" x2="-826.62194" y1="255.42158" y2="211.39163">
<stop offset="0" stop-color="#4b4b4b"/>
<stop offset="1" stop-color="#181818"/>
</linearGradient>
<linearGradient gradientUnits="userSpaceOnUse" id="linearGradient9117-67" x1="-930.55251" x2="-929.84542" y1="133.12338" y2="212.31933">
<stop offset="0" stop-color="#6d6d6d"/>
<stop offset="1" stop-color="#181818"/>
</linearGradient>
<linearGradient id="linearGradient4133-863-807">
<stop offset="0" stop-color="#181818"/>
<stop offset="1" stop-color="#4b4b4b"/>
</linearGradient>
<linearGradient gradientUnits="userSpaceOnUse" id="linearGradient9125-175" x1="-274.00388" x2="-301.22748" y1="194.99521" y2="240.60359">
<stop offset="0" stop-color="#323232"/>
<stop offset="1" stop-color="#726c6c"/>
</linearGradient>
<linearGradient gradientUnits="userSpaceOnUse" id="linearGradient9127-999" x1="-766.70772" x2="-745.20772" y1="300.70533" y2="294.70533">
<stop offset="0" stop-color="#181818"/>
<stop offset="1" stop-color="#181818" stop-opacity="0"/>
</linearGradient>
<linearGradient gradientUnits="userSpaceOnUse" id="linearGradient9129-815" x1="-765.60982" x2="-678.54335">
<stop offset="0" stop-color="#212121"/>
<stop offset="1" stop-color="#212121" stop-opacity="0"/>
</linearGradient>
<linearGradient gradientUnits="userSpaceOnUse" id="linearGradient9131-647" x2="0" y1="142.93544" y2="126.8478">
<stop offset="0" stop-color="#fdfdfd"/>
<stop offset=".3275" stop-color="#474747"/>
<stop offset=".5" stop-color="#fdfdfd"/>
<stop offset=".78616" stop-color="#c2bcbc"/>
<stop offset="1" stop-color="#fdfdfd"/>
</linearGradient>
<linearGradient gradientUnits="userSpaceOnUse" id="linearGradient9133-975" x1="-443.27145" x2="-550.12909" y1="189.41895" y2="188.9848">
<stop offset="0" stop-color="#181818"/>
<stop offset="1" stop-color="#323232" stop-opacity="0"/>
</linearGradient>
<linearGradient gradientUnits="userSpaceOnUse" id="linearGradient9119-94" x1="224.67241" x2="224.8492" xlink:href="#linearGradient4133-863-807" y1="366.85089" y2="385.31732"/>
<linearGradient gradientUnits="userSpaceOnUse" id="linearGradient9121-792" x1="222.59024" x2="222.94334" xlink:href="#linearGradient4133-863-807" y1="365.51166" y2="384.91275"/>
<linearGradient gradientUnits="userSpaceOnUse" id="linearGradient9123-126" x1="-704.20095" x2="-757.43209" xlink:href="#linearGradient4133-863-807" y1="261.44816" y2="283.44816"/>
<linearGradient gradientUnits="userSpaceOnUse" id="linearGradient10822" x1="-690.22548" x2="-674.25466" xlink:href="#linearGradient4133-863-807" y1="288.28376" y2="285.45533"/>
<pattern height="5.18058" id="Wavy-862-54" patternTransform="matrix(.98425,0,0,.98478,-5.09171,3.63383)" patternUnits="userSpaceOnUse" width="30.06602">
<path d="m7.597.061c-2.518-.248-4.941.241-7.607,1.727v1.273c2.783-1.63 5.183-2.009 7.482-1.781s4.497,1.081 6.781,1.938c4.567,1.713 9.551,3.458 15.813-.157l-.004-1.273c-6.44,3.709-10.816,1.982-15.371.273-2.278-.854-4.576-1.75-7.094-2z" fill="#181818"/>
</pattern>
<pattern id="pattern6250-278-844" patternTransform="matrix(.98425,0,0,.98478,-413.79943,-2.02302)" xlink:href="#Wavy-862-54"/>
</defs>
<g filter="url(#filter6315)" transform="matrix(1.18961,0,0,1.18961,1167.8082,-84.1092)">
<path d="m-836.32862,198.89428c-4.9194,0-9.36472,3.04628-12.6875,8 8.10561,3.16548 14.83929,17.25692 14.83929,31.09375 0,8.46786-6.19852,13.59421-9.80358,18.96875 1.42794.55811 6.11526.84375 7.65179.84375 10.25672,0 18.59375-13.16482 18.59375-29.4375s-8.33703-29.46875-18.59375-29.46875z" fill="url(#linearGradient9113-371)"/>
<path d="m-836.89522,202.9369c-2.32009.17385-8.2643,2.36016-4.46875,4.5625 9.30222,9.9672 13.40452,25.14005 9.65625,38.3125-.9116,2.88398-3.69616,6.13446-4.625,8.09375 11.60297-2.19094 14.56415-16.21975 14.5625-26.375-.0187-9.27324-3.36497-20.72781-12.8125-24.4375-.75668-.14782-1.5424-.24826-2.3125-.15625z" fill="url(#linearGradient9115-676)" filter="url(#filter4223)"/>
<path d="m-697.10987,115.83178-16.03125,5-6.46875.6875-3.59375,4.15625-88.4375.15625-1.625,3.0625-58.15625.34375-.4375-3.53125h-61.21875l-4.50033-5.92233-20.5111-.7471-.0589-.002-.0146.0762-1.44637,7.00196-3.8125,3.3125-.8125,73.5 4.96875,6.3125 5.59375.0312 1.90625-6.1875 2.03125,3.78125 4.1875,2.125 40.59375-.28125c16.49825,9.9454 10.4018,33.76571 8.0625,46.875 33.66741,16.53063 59.29094,14.07517 92.21875,4.46875 8.7862.84857 17.82877,3.78159 20.25,11.4375 6.27984,19.85675 14.96309,55.71493 20.8125,75.9375l-2.0625,20.53125c-.0993,2.26036-.19457,2.12946 1.21875,3.46875h15.84375l76.4375-15.125c3.68042-1.96975 3.92628-1.77393 4.25-5.96875l.3125-18.34375-1.375-.8125c-7.53324-77.95162-26.09013-75.78031-28.46875-105.28125h.0937c1.37603-20.97576 14.11632-20.62008 29.84375-30.21875 1.05317-.47287 2.02303-.94176 3.15625-1.4375l.0937-1.65625 .28125-.25h-.25l.28125-4.46875-14.15625-59-3.9375-3.34375-4.03125-9.5625-11.03125-.125zm-141.625,90.96875c9.0247.0112 18.49331,1.0796 28.125,3.5 22.01531,5.53234 17.69084,38.45223 3.59375,44.3125-14.34896,5.96498-60.07776,8.54027-69.3125-.71875-14.85609-17.20276-4.16755-39.50396 5.71875-42.5 9.41329-2.85269 20.27182-4.60814 31.875-4.59375z" fill="url(#linearGradient9117-67)"/>
<path d="m-714.89522,129.2494c-5.18083,4.76939-12.43214,5.50554-19.09348,4.47804-24.56203.32971-49.29214-.60453-73.75027.61571-7.02474,5.62629-16.50826,1.07177-24.53122,2.66679-16.26062.0515-32.52049.24738-48.78128.23946 5.05181-5.7893-2.87723-3.26505-6.34342-3.5679-17.26859.48369-34.5432-.34948-51.81283.0679 1.73025-6.20679-5.97664-8.21595-10.4375-6.1875-2.63033-3.31007-3.66603,2.39855-4.9375,3.9375-2.82962,7.95391.13756,16.62906-1.04125,24.87495 .14481,12.47721-1.11837,26.61497-.20875,38.12505 4.85841-3.32866 10.63829,1.03023 11.84375,6 1.64954,1.73805 5.50033-.12748 8.09367.58125 12.07636.30216 24.96634-2.1884 36.50008,1.66875 5.56675,3.13114 9.39894,10.36219 11.53125,14.9375 5.26244-10.69735 16.94396-16.47791 28.53125-17.0625 19.86989-3.10242 41.56506-3.21274 59.8125,6.09375 14.7323,10.31047 15.85461,33.14335 5.65625,46.96875 11.1238,3.21785 18.84387,13.7761 19.92829,25.10945 6.56683,22.98886 12.67551,46.15874 18.32171,69.3593-.36426,5.08765-1.16017,10.31544-1.53125,15.28125 25.99539-1.40974 50.83458-9.94645 76.5625-13.4375 3.45526-.0668 5.97587-2.20309 4.875-5.875-.48415-13.52375-3.29231-26.85113-4.7276-40.31242-3.71737-21.82364-12.29677-42.42863-22.2724-62.18758-5.41166-14.98836-2.43946-35.08701 12.59375-43.21875 5.43937-3.85545 13.51283-5.02863 17.53125-9.96875-2.87467-18.15545-8.56309-35.86583-12.46875-53.78125-8.67406-15.26813-10.80821-8.39253-29.84375-5.40625z" fill="#323232" filter="url(#filter4157)"/>
<path d="m-959.32862,124.64428-.28125,1.27756-3.8125,2.88132-.125,9.97586h288.3125l-2.875-10.46514-3.9375-2.9085-.375-.7611h-39.875l-.90625.89701-88.4375.13591-1.625,2.66386-58.15625.299-.4375-3.07159h-61.21875l-.75-.92419h-25.5z" fill="#4b4b4b"/>
<path d="m-812.67237,128.11086-.0954.20198-58.34212.37029v4.24157c0,2.61455 1.9818,4.71285 4.45117,4.71285h49.53516c2.46937,0 4.45117-2.0983 4.45117-4.71285v-4.81384z" fill="#4b4b4b"/>
<path d="m238.21429,374.86218c0,5.12836-8.07487,9.28572-18.03572,9.28572s-18.03571-4.15736-18.03571-9.28572 8.07486-9.28571 18.03571-9.28571 18.03572,4.15735 18.03572,9.28571z" fill="url(#linearGradient9119-94)" filter="url(#filter4129)" transform="translate(-1100.6009,-188.11912)"/>
<path d="m238.21429,374.86218c0,5.12836-8.07487,9.28572-18.03572,9.28572s-18.03571-4.15736-18.03571-9.28572 8.07486-9.28571 18.03571-9.28571 18.03572,4.15735 18.03572,9.28571z" fill="url(#linearGradient9121-792)" filter="url(#filter4063)" transform="matrix(1.53753,0,0,1.3454,-1077.4666,-293.66857)"/>
<path d="m-826.67234,171.20732h21.95368a2.85714,2.85714 0 0,1 2.85714,2.85714v6.07143a2.85714,2.85714 0 0,1 -2.85714,2.85714h-21.95368a2.85714,2.85714 0 0,1 -2.85714-2.85714v-6.07143a2.85714,2.85714 0 0,1 2.85714-2.85714" fill="none" stroke="#181818" stroke-linecap="round" stroke-linejoin="round" stroke-width=".81"/>
<path d="m-751.40965,171.11803h32.20521c2.32198,0 5.12403,1.80838 4.19131,3.52254l-3.39286,6.23543c-.93272,1.71416-2.76218,4.77254-5.08416,4.77254h-27.9195c-2.32198,0-4.19131-1.57105-4.19131-3.52254v-7.48543c0-1.95149 1.86933-3.52254 4.19131-3.52254z" fill="none" stroke="#181818" stroke-linecap="round" stroke-linejoin="round" stroke-width="1.165"/>
<path d="m-793.99382,171.78772h27.75874c1.58286,0 2.85715,1.27429 2.85715,2.85715-.57694,3.16958-.79485,7.71381-2.85715,8.92857-9.7921,2.15674-18.91525,1.63768-27.75874,0-1.55843-1.4831-2.79353-5.05795-2.85714-8.92857 0-1.58286 1.27429-2.85715 2.85714-2.85715z" fill="none" stroke="#181818" stroke-linecap="round" stroke-linejoin="round" stroke-width=".871"/>
<path d="m-813.37678,82.88668h8.01119a1.80346,1.8285 0 0,1 1.80346,1.8285v13.42318a1.80346,1.8285 0 0,1 -1.80346,1.8285h-8.01119a1.80346,1.8285 0 0,1 -1.80346-1.8285v-13.42318a1.80346,1.8285 0 0,1 1.80346-1.8285" fill="none" opacity=".69912" stroke="#252525" stroke-linecap="round" stroke-linejoin="round" stroke-width=".58831" transform="matrix(.98181,-.18988,.18988,.98181,0,0)"/>
<path d="m405.57624,500.94516c0,7.67101-6.21858,13.8896-13.88959,13.8896s-13.8896-6.21859-13.8896-13.8896 6.21858-13.8896 13.8896-13.8896 13.88959,6.21859 13.88959,13.8896z" fill="none" opacity=".68584" stroke="#1c1c1c" stroke-linecap="round" stroke-linejoin="round" stroke-width=".762" transform="translate(-1101.9249,-184.50436)"/>
<path d="m405.57624,500.94516c0,7.67101-6.21858,13.8896-13.88959,13.8896s-13.8896-6.21859-13.8896-13.8896 6.21858-13.8896 13.8896-13.8896 13.88959,6.21859 13.88959,13.8896z" fill="none" opacity=".68584" stroke="#1c1c1c" stroke-linecap="round" stroke-linejoin="round" stroke-width=".762" transform="matrix(.54874,0,0,.54874,-925.17315,41.55118)"/>
<path d="m-762.29839,233.60019 35.83932-.44194c1.34469.52781 2.53016,1.45596 3.30323,3.5709 4.05757,18.31249 21.37479,45.69581 22.82457,63.04254 .0858,1.02661-.1216,2.27278-.84008,1.5785-3.89015-3.7591-33.0235-6.01144-25.64461,26.50092 .68411,2.46943-.16728,3.40334-1.46899,3.88694l-7.65446-.13786c-.99897-.018-1.87127-.83448-2.14186-1.8285l-25.68219-94.34299c-.27056-.99403.46603-1.81619 1.46507-1.82851z" fill="#323232" stroke="url(#linearGradient9123-126)" stroke-linecap="round" stroke-linejoin="round" stroke-width=".762"/>
<path d="m-708.80147,252.4369c-.3619-.006-.91759.60897-.65625,1.21875 9.56354,22.31428 19.94175,43.27651 22.4375,77.15625 .0487.66164.29429,1.1875.65625,1.1875h16.46875c.2568,0 .49331-.29487.59375-.6875l-.1875-.125c-.20739-2.14596-.40147-4.22315-.625-6.25-2.10864-14.18843-4.16131-28.41222-7.5-42.0625-3.84545-14.14933-8.05689-22.80415-11.6875-30.09375l-19.5-.34375z" fill="none" opacity=".69027" stroke="#181818" stroke-linecap="round" stroke-linejoin="round" stroke-width=".69083"/>
<path d="m-266.46465,189.26988c-21.53911,0-39,17.46089-39,39 0,12.06655 5.48758,22.82068 14.09375,29.96875l11.28125.1875c-4.27176-8.57153-7.72334-15.30456-8.65625-26.875h.0937c1.37603-20.97576 14.11632-20.62008 29.84375-30.21875 1.05317-.47287 2.02303-.94176 3.15625-1.4375l.0937-1.65625 .28125-.25h-.25l.28125-4.46875-.6875-2.8125c-3.35072-.93774-6.88117-1.4375-10.53125-1.4375z" fill="url(#linearGradient9125-175)" filter="url(#filter5860)" transform="matrix(1,0,0,.97022,-409.76838,-.02097)"/>
<path d="m-784.29737,269.47521 27.25.5 17,62-27.625-.125z" fill="none" opacity=".68584" stroke="#181818" stroke-linecap="round" stroke-linejoin="round" stroke-width=".762"/>
<path d="m-783.86397,271.15565 .3125,1.125h27.125l-.3125-1.125h-27.125zm1.34375,4.96875 .28125,1.125h27.1875l-.3125-1.125h-27.15625zm1.3125,4.96875 .3125,1.125h27.1875l-.28125-1.125h-27.21875zm1.3125,4.9375 .3125,1.125h27.25l-.3125-1.125h-27.25zm1.34375,4.96875 .28125,1.125h27.28125l-.28125-1.125h-27.28125zm1.3125,4.96875 .3125,1.125h27.3125l-.3125-1.125h-27.3125zm1.3125,4.9375 .3125,1.125h27.34375l-.3125-1.125h-27.34375zm1.34375,4.96875 .28125,1.125h27.40625l-.3125-1.125h-27.375zm1.3125,4.96875 .28125,1.125h27.46875l-.3125-1.125h-27.4375zm1.3125,4.9375 .3125,1.125h27.46875l-.3125-1.125h-27.46875zm1.3125,4.96875 .3125,1.125h27.3125v-.71875l-.0937-.40625h-27.53125zm1.34375,4.96875 .28125,1.125h26v-1.125h-26.28125zm1.3125,4.9375 .28125,1.125h24.6875v-1.125h-24.96875z" fill="url(#linearGradient9127-999)"/>
<path d="m-764.70735,341.6716c.53649,1.93192 1.07705,3.89911 1.57526,5.62152l-2.03857,20.29307c-.0981,2.23413-.19231,2.10475 1.20461,3.42851h15.65994l51.55118-10.19287 17.82207-3.58294c-1.60456-7.06641-.37136-11.82841-5.4362-13.03451-55.22298-2.30511-58.40404-2.52195-80.33829-2.53278z" fill="url(#linearGradient9129-815)" opacity=".80973" stroke="#181818" stroke-linecap="round" stroke-linejoin="round" stroke-width=".77905"/>
<path d="m-905.67236,163.6002h17.9v6.28626h-17.9z" fill="#181818"/>
<path d="m-873.42237,167.35021c22.69627-3.21986 23.60261-1.78616 34.43725-2.0625l-.0625,4.79694h-34.37475z" fill="#181818"/>
<path d="m-812.90721,128.17644-.0946.18938-57.87322.34718v3.97685c0,2.45138 1.96587,4.41873 4.4154,4.41873h49.13704c2.44953,0 4.4154-1.96735 4.4154-4.41873v-4.51341z" fill="url(#linearGradient9131-647)"/>
<path d="m-713.83012,127.30126 13.30625-.0312 2.625,4.09876-18.8375-.0312z" fill="#181818" filter="url(#filter5933)"/>
<path d="m-697.11397,115.84315-16.03125,5-6.46875.6875-3.59375,4.15625-35.53125.0625c.24822.13011.54401.21875.84375.21875h76.34375l-.5-.4375-4.03125-9.5625-11.03125-.125z" fill="#555" opacity=".69912"/>
<path d="m-697.10987,115.83178-13.53125,4.21875h26.28125l-1.71875-4.09375-11.03125-.125z" fill="#7e7e7e"/>
<path d="m-543.10409,132.13419 10.88541-.0256 2.14743,3.35162-15.41037-.0256z" fill="#181818" filter="url(#filter5917)" transform="matrix(.99999,-.00526,.00526,.99999,-409.41931,-8.48546)"/>
<path d="m-555.15215,178.13813-.375,30.71591 2.21875,2.54084c3.29151-.1416 6.48475-.3247 9.625-.5364l.625-1.86328 1.03125,1.72212c33.2851-2.39271 57.0625-8.58616 57.0625-15.89435 0-8.24028-30.16922-15.1411-70.1875-16.68484z" fill="url(#linearGradient9133-975)" filter="url(#filter5969)" transform="matrix(.92612,0,0,1,-447.66259,-5.65685)"/>
<path d="m-904.82746,191.32071c-39.00424-4.90089-40.56183-2.71867-59.18148-3.13929l.10741,7.30133h59.07407z" fill="#181818"/>
<path d="m-783.36397,138.9369 8.59375,30.25h6.90625l-8.59375-30.25h-6.90625zm10,0 8.59375,30.25h6.90625l-8.59375-30.25h-6.90625zm10,0 8.59375,30.25h6.90625l-8.59375-30.25h-6.90625zm10,0 8.59375,30.25h6.90625l-8.59375-30.25h-6.90625zm10,0 8.59375,30.25h6.90625l-8.59375-30.25h-6.90625zm10,0 8.59375,30.25h6.90625l-8.59375-30.25h-6.90625zm10,0 8.59375,30.25h6.90625l-8.59375-30.25h-6.90625zm10,0 8.59375,30.25h6.90625l-8.59375-30.25h-6.90625zm10,0 8.59375,30.25h6.90625l-8.59375-30.25h-6.90625z" fill="#181818"/>
<path d="m-963.85987,170.48803-.0312,1.875h296.21875l-.6875-1.875h-295.5z" fill="#181818"/>
<path d="m303.21429,380.39789c0,1.08484-.87944,1.96428-1.96429,1.96428s-1.96429-.87944-1.96429-1.96428 .87944-1.96429 1.96429-1.96429 1.96429.87944 1.96429,1.96429z" fill="#181818" transform="matrix(.99299,0,0,.99299,-976.99414,-41.19341)"/>
<g fill="#323232" font-family="Sakkal Majalla" font-size="19.68535" font-weight="bold" letter-spacing="0" opacity=".92035" stroke="#444" stroke-width=".481" transform="matrix(1.23529,0,0,.98733,-353.05761,-22.64788)" word-spacing="0">
<path d="m-470.01487,177.80791-2.19153-.11534 .10573-.7978h4.13316v4.01781c-.22429.0961-.49984.19224-.82664.28836s-.68245.18423-1.06693.26433-.78018.14578-1.18708.19705-.8026.0769-1.18708.0769c-.76896,0-1.42257-.12335-1.96084-.37006s-.97562-.59594-1.31204-1.04771-.58153-.99163-.73532-1.61962-.23068-1.32645-.23068-2.09541 .13136-1.45941.39409-2.07138 .63278-1.13261 1.11018-1.56195 1.04931-.75774 1.71574-.98523 1.40014-.34122 2.20115-.34123c.19864,1e-005 .42132.006.66803.0192s.4902.032.73051.0577 .46778.0529.68245.0817 .39248.0625.53347.10093l-.34603,1.43218c-.16662-.0513-.37648-.10412-.62959-.15859s-.51905-.10252-.79779-.14418-.55751-.0769-.83625-.10573-.52706-.0433-.74493-.0433c-.35885,1e-005-.69687.0272-1.01406.0817s-.61037.18104-.8795.37968c-.14738.10894-.26593.27875-.35564.50943s-.1602.49503-.21146.79299-.0865.61838-.10574.9612-.0288.67765-.0288,1.00445c-1e-005,1.31364.17141,2.3197.51424,3.01817s.8859,1.0477 1.62923,1.0477c.18583,0 .38287-.006.59114-.0192s.41331-.032.61517-.0577l.5671-.0769c.17622-.0256.32841-.0545.45657-.0865z" stroke="#444"/>
<path d="m-457.42316,178.13472c-1e-005,.49342-.0961.95799-.28836,1.39374s-.4758.81702-.85066,1.14382-.84106.58633-1.39855.77857-1.20471.28836-1.94162.28836c-.60876,0-1.15825-.0609-1.64846-.18263s-.90833-.31879-1.25436-.59113-.61357-.62959-.8026-1.07174-.28356-.98362-.28355-1.62443v-6.50731h2.0089v6.69955c0,.49342.0465.88591.13937,1.17747s.22749.51425.40371.66804 .39569.25311.65842.29797 .5671.0673.91314.0673c.42292,0 .78818-.0417 1.09577-.12495s.56389-.19545.76895-.33642c.20505-.14739.33481-.37327.38929-.67765s.0817-.67444.0817-1.11018v-6.66111h2.00891v6.37275z" stroke="#444"/>
<path d="m-447.08066,181.6527-6.94947-6.9014h-.0288c.0128.57672.0256,1.10859.0385,1.59559 .006.20506.0112.41172.0144.61997s.006.4005.01.57672 .006.33001.01.46138 .005.22588.005.28355v3.31613h-1.17266v-9.90996h.87469l6.95908,6.88219h.01c-.0128-.53186-.0224-1.02848-.0288-1.48986-1e-005-.19864-.002-.39889-.005-.60075s-.006-.39409-.01-.57672-.005-.35083-.005-.50463-1e-005-.27874 0-.37487v-3.26807h1.17266v9.89073z" stroke="#444"/>
<path d="m-440.1312,179.19204 1.32646,1.31684-1.32646,1.31684-1.31684-1.31684z" stroke="#444"/>
<path d="m-437.94927,177.80791 4.31578-6.094h1.93201v6.03633h1.25917l-.24991,1.37451-1.00926.0481v2.43183h-1.97046v-2.38377h-.45176l-.61036-.005-.70168-.01c-.24671-.003-.48861-.005-.7257-.005l-1.78783-.0192zm1.23033-.0577h3.047v-4.45997z" stroke="#444"/>
<path d="m-426.20342,181.71999c-.62799,0-1.16146-.10894-1.6004-.32681s-.7978-.53827-1.07654-.9612-.4822-.94678-.61036-1.57156-.19224-1.34727-.19224-2.1675c0-.77536.0625-1.47383.18743-2.09541s.3252-1.15023.60075-1.58598 .63439-.77055 1.07654-1.00446 .98042-.35082 1.61482-.35083 1.17105.11054 1.61.33161 .79619.54629 1.07174.97562 .47579.9548.60075,1.57636 .18743,1.33287.18743,2.13386c0,.78178-.0625,1.48346-.18743,2.10503s-.32521,1.15024-.60075,1.58598-.63279.77056-1.07174,1.00445-.97562.35084-1.61.35084zm-1.43219-5.03668c0,.70488.024,1.31204.0721,1.82147s.12816.93076.2403,1.26397 .25792.57993.43734.74013 .4037.2403.67284.2403c.18583,0 .37006-.0224.55269-.0673s.34443-.10893.48541-.19224c.12815-.0769.22748-.42132.29797-1.03328s.10573-1.53311.10573-2.76345c0-1.37131-.10734-2.39338-.322-3.06623s-.57833-1.00925-1.09096-1.00925c-.38448,0-.70168.0673-.95159.20185-.14738.0769-.26753.44216-.36045,1.09576s-.13937,1.57638-.13937,2.76826z" stroke="#444"/>
<path d="m-416.8798,181.60464v-4.4119c0-.39088-.0609-.67924-.18262-.86508s-.32682-.27874-.61517-.27874c-.10253,0-.21788.0144-.34603.0433s-.25633.0705-.38448.12496-.25472.11534-.37968.18262-.2387.13938-.34122.21627v4.98862h-1.97046v-6.5746h1.75899l.17302.76896h.0192c.13457-.0833.29317-.17781.4758-.28355s.37967-.20505.59114-.29797 .43253-.17141.66322-.2355 .45817-.0961.68245-.0961c.36525,1e-005 .69366.0833.98523.24992s.51103.41652.65842.74973c.14097-.0897.31399-.19223.51905-.30758s.42292-.22428.65362-.32681 .46617-.18903.70648-.25952 .47258-.10573.69687-.10574c.2499,1e-005 .48699.0401.71128.12015s.41811.20186.58153.36526 .29315.36526.38928.60556 .14417.52385.14418.85066v4.77715h-1.97045v-4.4119c-1e-005-.39088-.0609-.67924-.18263-.86508s-.32682-.27874-.61517-.27874c-.10253,0-.21788.0144-.34603.0433s-.25633.0705-.38448.12496-.25472.11534-.37967.18262-.23871.13938-.34123.21627v4.98862z" stroke="#444"/>
<path d="m-404.30731,181.60464v-4.4119c-1e-005-.39088-.0609-.67924-.18263-.86508s-.32681-.27874-.61517-.27874c-.10253,0-.21787.0144-.34603.0433s-.25632.0705-.38448.12496-.25472.11534-.37967.18262-.2387.13938-.34123.21627v4.98862h-1.97046v-6.5746h1.759l.17301.76896h.0192c.13456-.0833.29316-.17781.47579-.28355s.37967-.20505.59114-.29797 .43253-.17141.66323-.2355 .45816-.0961.68245-.0961c.36525,1e-005 .69366.0833.98523.24992s.51103.41652.65842.74973c.14097-.0897.31398-.19223.51904-.30758s.42292-.22428.65362-.32681 .46617-.18903.70648-.25952 .47258-.10573.69687-.10574c.2499,1e-005 .487.0401.71129.12015s.41811.20186.58152.36526 .29316.36526.38929.60556 .14417.52385.14418.85066v4.77715h-1.97046v-4.4119c-1e-005-.39088-.0609-.67924-.18263-.86508s-.32681-.27874-.61517-.27874c-.10253,0-.21788.0144-.34603.0433s-.25632.0705-.38448.12496-.25472.11534-.37967.18262-.23871.13938-.34123.21627v4.98862z" stroke="#444"/>
</g>
<path d="m303.21429,380.39789c0,1.08484-.87944,1.96428-1.96429,1.96428s-1.96429-.87944-1.96429-1.96428 .87944-1.96429 1.96429-1.96429 1.96429.87944 1.96429,1.96429z" fill="#5d0000" transform="matrix(.78064,0,0,.78064,-977.66269,-134.21213)"/>
<path d="m303.21429,380.39789c0,1.08484-.87944,1.96428-1.96429,1.96428s-1.96429-.87944-1.96429-1.96428 .87944-1.96429 1.96429-1.96429 1.96429.87944 1.96429,1.96429z" fill="#dc0000" transform="matrix(.65632,0,0,.65632,-940.36487,-86.80776)"/>
<path d="m-761.82235,233.59347 35.27498-.43522c1.32352.51978 2.49032,1.43381 3.25122,3.51656 3.99368,18.03385 21.03822,45.0005 22.46517,62.08328 .0845,1.01099-.11969,2.2382-.82686,1.55448-3.82889-3.7019-32.5035-5.91996-25.2408,26.09768 .67334,2.43186-.16464,3.35156-1.44586,3.8278l-7.53393-.13576c-.98324-.0177-1.8418-.82178-2.10813-1.80068l-25.27779-92.90746c-.2663-.9789.45869-1.78855 1.442-1.80068z" fill="url(#pattern6250-278-844)" opacity=".31858"/>
<path d="m-406.00435,149.13023h4.74799a1.06886,1.34146 0 0,1 1.06886,1.34146v9.84776a1.06886,1.34146 0 0,1 -1.06886,1.34146h-4.74799a1.06886,1.34146 0 0,1 -1.06886-1.34146v-9.84776a1.06886,1.34146 0 0,1 1.06886-1.34146" fill="#3b3b3b" filter="url(#filter5796)" transform="matrix(.9716,-.23662,.1518,.98841,-408.70772,-5.65685)"/>
<path d="m303.21429,380.39789c0,1.08484-.87944,1.96428-1.96429,1.96428s-1.96429-.87944-1.96429-1.96428 .87944-1.96429 1.96429-1.96429 1.96429.87944 1.96429,1.96429z" fill="#181818" transform="matrix(1.79883,0,0,1.79883,-1344.01496,-490.65134)"/>
<path d="m303.21429,380.39789c0,1.08484-.87944,1.96428-1.96429,1.96428s-1.96429-.87944-1.96429-1.96428 .87944-1.96429 1.96429-1.96429 1.96429.87944 1.96429,1.96429z" fill="#323232" transform="matrix(1.41701,0,0,1.41701,-1228.99224,-345.40851)"/>
<path d="m303.21429,380.39789c0,1.08484-.87944,1.96428-1.96429,1.96428s-1.96429-.87944-1.96429-1.96428 .87944-1.96429 1.96429-1.96429 1.96429.87944 1.96429,1.96429z" fill="#181818" transform="matrix(1.48064,0,0,1.48064,-1299.97519,-369.99065)"/>
<path d="m303.21429,380.39789c0,1.08484-.87944,1.96428-1.96429,1.96428s-1.96429-.87944-1.96429-1.96428 .87944-1.96429 1.96429-1.96429 1.96429.87944 1.96429,1.96429z" fill="#323232" transform="matrix(1.16636,0,0,1.16636,-1205.29804,-250.43882)"/>
<path d="m-958.33447,119.43029-1.217,6.28786h26.46875l-3.73436-5.358c-.49558-.97379-.93038-.83953-1.95239-.86865l-18.84448-.5368c-.83846-.17955-.63391.33844-.72052.47559z" fill="#4b4b4b"/>
<path d="m-547.04497,125.30086-1.03878,5.36703h20.94875l-3.41314-4.89711-16.49683-.46992z" fill="#656565" filter="url(#filter5909)" opacity=".69912" transform="matrix(1.14592,0,0,.9404,-330.39176,1.89167)"/>
<path d="m-406.76969,182.60922c-1.20625,0-3.83163-.22267-6.29386.47821-2.07973.592-3.85867,2.02729-6.44573,2.93418 .23136,1.20015 1.26117,2.10431 2.53085,2.10431h19.99092c1.3269,0 2.39603-.9938 2.55929-2.27493-2.19324-.76334-4.0995-1.91769-5.92933-2.44883-2.74046-.79546-5.10957-.79294-6.41214-.79294z" fill="#212121" filter="url(#filter6028)" transform="matrix(1,0,0,.71063,-408.70772,47.97989)"/>
<path d="m-416.97843,177.40533c-.88602,0-1.66377.43602-2.13274,1.10903 2.40177.83606 4.65084,3.01502 6.60277,3.57277 2.50308.71523 4.35665.50174 5.57784.50174 1.0024,0 3.54078.34102 5.48206-.34191 2.17969-.76678 3.85826-2.61477 6.67904-3.59042-.45431-.7535-1.27048-1.25121-2.21805-1.25121z" fill="#3b3b3b" filter="url(#filter6032)" transform="matrix(1,0,0,.72323,-408.70772,44.87793)"/>
<path d="m-330.34375,185.15625c-2.1025.0318-4.49085.15017-6.8125.5-3.6038.54302-5.6052,1.78338-9.6875,2.6875 .1652.87733.71665,1.65352 1.5,2.1875 .007.005.0241-.005.0312,0 .23417.0494.46831.0809.75.125 1.59157.24905 3.14655.47444 4.6875.65625h25.09375c2.27466,0 4.0819-2.92514 5.03125-4.65625-1.16932-.26216-2.31732-.51538-3.4375-.6875-5.16799-.79406-9.63735-.8125-12.09375-.8125-1.13738,0-2.96-.0318-5.0625,0z" fill="#212121" filter="url(#filter6028)" transform="matrix(.90914,0,0,.90914,-438.62404,10.65862)"/>
<path d="m-344.8125,178.84375c-.64274,0-1.25003.0889-1.8125.21875-.1735.38736-.28125.81043-.28125,1.25v.3125c3.85445,1.13235 7.46032,3.02033 10.65625,3.5625 4.79868.81405 8.34635.5625 10.6875.5625 1.92171,0 6.77836.37104 10.5-.40625 2.78281-.58119 5.1701-1.70273 8.03125-2.71875l.71875-1.3125c.26816-.49282.21784-1.00557-.0312-1.46875h-.15625-38.3125z" fill="#3b3b3b" filter="url(#filter6032)" transform="matrix(.90914,0,0,.90914,-438.62404,10.65862)"/>
<path d="m-709.17647,254.28065c.16061.37376.30777.75186.46875,1.125h20.6875l-.5625-1.125h-20.59375zm2.125,4.9375c.16162.37205.30712.75298.46875,1.125h20.90625c-.16984-.37325-.33129-.76156-.5-1.125h-20.875zm2.125,4.96875c.16054.37179.30856.75264.46875,1.125h20.9375c-.16001-.39051-.30915-.74536-.46875-1.125h-20.9375zm2.125,4.96875c.15996.37912.34076.74469.5,1.125h20.6875c-.13483-.36895-.27135-.76527-.40625-1.125h-20.78125zm2.0625,4.9375c.15252.37609.31727.74722.46875,1.125h20.34375c-.1205-.37062-.22295-.76297-.34375-1.125h-20.46875zm1.96875,4.96875c.14274.37222.29605.75067.4375,1.125h19.9375c-.10769-.37205-.20436-.76087-.3125-1.125h-20.0625zm1.8125,4.96875c.13317.37276.2746.74976.40625,1.125h19.46875c-.0871-.3733-.16105-.75251-.25-1.125h-19.625zm1.71875,4.9375c.12273.37417.25397.74804.375,1.125h18.875c-.0796-.37583-.1688-.74987-.25-1.125h-19zm1.53125,4.96875c.11068.37298.2349.74902.34375,1.125h18.375c-.0727-.37569-.14468-.7499-.21875-1.125h-18.5zm1.40625,4.96875c.0983.37134.18491.75054.28125,1.125h17.96875c-.0666-.37262-.11984-.75285-.1875-1.125h-18.0625zm1.21875,4.9375c.0866.37264.16535.74912.25,1.125h17.625c-.0623-.3728-.0931-.75256-.15625-1.125h-17.71875zm1.0625,4.96875c.0742.36986.14654.75191.21875,1.125h17.40625c-.0594-.37576-.12744-.7495-.1875-1.125h-17.4375zm.9375,4.96875c.0627.36967.12674.75209.1875,1.125h17.28125c-.0573-.37635-.12982-.74882-.1875-1.125h-17.28125zm.78125,4.9375c.0519.3701.10637.75167.15625,1.125h17.28125c-.0561-.37649-.13122-.74858-.1875-1.125h-17.25zm.625,4.96875c.0421.37693.0849.74477.125,1.125h17.40625c-.0557-.37497-.10058-.75-.15625-1.125h-17.375zm.46875,4.96875c.0319.37505.0638.74674.0937,1.125h17.46875c-.0366-.38024-.0572-.74883-.0937-1.125h-17.46875z" fill="url(#linearGradient10822)"/>
</g>
</svg>
