<?xml version="1.0" encoding="utf8" standalone="no"?>
<svg viewBox="0 0 500 500" xmlns="http://www.w3.org/2000/svg">
<defs>
<filter height="1.43963" id="filter4062" width="4.16998" x="-1.58499" y="-.21982">
<feGaussianBlur stdDeviation="17.92546"/>
</filter>
<linearGradient gradientUnits="userSpaceOnUse" id="linearGradient4012" x1="-334.59567" x2="-302.45294">
<stop offset="0" stop-color="#cec2b8"/>
<stop offset="1" stop-color="#513121"/>
</linearGradient>
<linearGradient gradientUnits="userSpaceOnUse" id="linearGradient4050" x1="286.66416" x2="329.39512">
<stop offset="0" stop-color="#361b12"/>
<stop offset="1" stop-color="#3f2218"/>
</linearGradient>
<radialGradient cx="313.78781" cy="503.07471" gradientTransform="matrix(1,0,0,.5687,0,217.77758)" gradientUnits="userSpaceOnUse" id="radialGradient4032" r="38.15563">
<stop offset="0" stop-color="#070000"/>
<stop offset="1" stop-color="#291f1c"/>
</radialGradient>
</defs>
<g transform="matrix(.57612,.61542,-.61542,.57612,283.76863,-131.85497)">
<path d="m330.36647,507.11602c-13.09721,6.77844-14.7842,4.6546-32.45756,3.52854" fill="#c2c5c9"/>
<path d="m302.61306-11.2719c16.26596,20.36631 15.79739,18.93656 16.83814,51.37788 1.93693,60.37534 6.31852,233.47345 7.97195,314.93747 2.11533,104.22146 2.26674,143.62068.56944,148.16862-1.14784,3.07565-2.94286,3.66363-15.26425,5.00006-7.67989.83298-13.91496,1.31441-13.85571,1.06982s.87823-28.30919 1.81997-62.36584c2.88388-104.29293 1.49815-235.68614-3.95843-375.33173-1.95447-50.01895-3.39787-91.58625-3.20757-92.37179s4.27922,3.49645 9.08646,9.51552z" fill="#c7c9cb"/>
<path d="m318.99969,9.8675-2.07669.51737c-.94693.24858-1.91525.38772-2.88824.48029-.93259.03557-1.85819.11308-2.77697.27899-.83434.14336-1.65936.33247-2.49587.46325-.63042.10056-1.25595.23635-1.80545.57151-.42476.2782-.44995.71142-.47659,1.1759-.0141.70018-.004,1.39917-.043,2.09916-.0187,1.04717-.1338,2.08838-.20514,3.13229-.0872,1.07376-.13371,2.14866-.0646,3.22427 .0951.9801.24379,1.95476.5027,2.90528 .1715.71334.53788,1.47205.88636,2.22412 .41985.89878.87386,1.78166 1.38198,2.63379 .47436.79507.95296,1.58796 1.44392,2.37293 .50052.71395.95166,1.46043 1.38966,2.21381 .51285.9348.84698,1.95053 1.22013,2.94525 .4097,1.09708.76548,2.21052 1.08677,3.33625 .29055.94723.46701,1.91859.57463,2.90167 .10426,1.03323.099,2.07161.0591,3.10783-.0608,1.16656-.20155,2.327-.35035,3.48501-.11312,1.17327-.23632,2.34526-.38101,3.51507-.11526,1.16266-.21544,2.32643-.25914,3.49411-.0148,1.16243-.10752,2.32174-.1473,3.483-.0715,1.04568-.0118,2.08856.044,3.13275 .068,1.0882.20224,2.17038.28588,3.25718 .10735,1.39208.19958,2.78409.33069,4.17431 .13152,1.34389.24706,2.68984.4187,4.0294 .16249,1.30516.35306,2.60648.57966,3.90203 .23225,1.39634.53409,2.77916.79941,4.16918 .25989,1.42651.42192,2.8692.52028,4.31519 .0882,1.76765.0698,3.53788-.003,5.30546-.0899,1.83936-.25104,3.67457-.45487,5.50454-.21335,1.83605-.50069,3.6625-.79287,5.48735-.30031,1.75283-.60701,3.50233-.80606,5.27003-.20289,1.84399-.30838,3.69688-.33968,5.55124-.0432,1.75309.0254,3.50428.13324,5.25351 .0673,1.47755.22512,2.948.43588,4.41132 .24894,1.58103.57193,3.14744.90624,4.71203 .38293,1.71711.75964,3.43571 1.12253,5.15717 .42563,2.00671.79353,4.02392 1.15307,6.04319 .31382,1.69629.53731,3.40645.69988,5.12326 .15201,1.51656.17517,3.0375.0763,4.55738-.12665,1.59648-.35671,3.18189-.60304,4.7635-.25264,1.61191-.54496,3.21706-.85104,4.81954-.30998,1.61932-.64353,3.23395-.98257,4.8474-.34147,1.66648-.60619,3.34581-.85307,5.02835-.17002,1.50236-.26202,3.01151-.28185,4.52298 .008,1.44353.16477,2.88026.34335,4.31092 .19153,1.66979.43776,3.33285.73276,4.98737 .26495,1.51262.51603,3.02821.86158,4.52496 .30689,1.22409.59811,2.4542.94901,3.66672 .32832,1.05951.66022,2.1189.93505,3.19578 .37003,1.21947.62273,2.46448.84163,3.71869 .23639,1.35741.43713,2.71728.55401,4.09034 .1019,1.28099.10829,2.56627.0823,3.85016-.0192,1.44939-.21181,2.88596-.42906,4.31645-.32227,1.97656-.69932,3.94302-1.01178,5.9212-.20221,1.61187-.41342,3.22361-.57895,4.83976-.12954,1.38217-.2732,2.76269-.38752,4.14621-.0852,1.42958-.18345,2.85784-.23099,4.28933-.0735,1.60692-.16607,3.21312-.21798,4.82094-.0539,1.57791-.15938,3.15324-.23977,4.72989-.0971,1.51473-.15991,3.03114-.22587,4.54746-.0753,1.79702-.0606,3.59601-.10623,5.39389-.0536,1.78164-.0697,3.56296-.0387,5.34503-.0247,1.5477.12398,3.08229.36687,4.60814 .29505,1.59976.80978,3.14563 1.27983,4.69943 .57386,1.79888 1.12626,3.6033 1.63332,5.42216 .41571,1.64025.71212,3.30699 1.08713,4.95653 .32772,1.34148.56697,2.70057.74128,4.06974 .21546,1.21933.31778,2.44742.34986,3.68373 .0266,1.51342-.13359,3.02053-.3084,4.52132-.19606,1.60918-.43545,3.2126-.68651,4.81398-.21798,1.38227-.46003,2.76053-.71098,4.13714-.30409,1.66592-.66671,3.32039-1.02892,4.97442-.44255,2.00769-.89477,4.01325-1.35053,6.01799-.42352,1.85821-.85308,3.71502-1.28449,5.5714-.40908,1.62405-.7337,3.26512-.99438,4.91886-.23224,1.39939-.41576,2.80488-.58426,4.21307-.1296,1.21658-.13386,2.44179-.13052,3.66379 .0426,1.34069.17411,2.67275.3801,3.99747 .23138,1.43816.4305,2.88166.72164,4.30928 .32904,1.55478.75697,3.08599 1.18065,4.61689 .3341,1.18299.72815,2.34556 1.14116,3.50275 .43384,1.19003.84691,2.38708 1.28156,3.5768 .43613,1.18125.91598,2.3455 1.35552,3.52549 .41247,1.10855.79082,2.23077 1.13518,3.36237 .39522,1.19038.69284,2.40469.89475,3.64134 .14027,1.12013.1921,2.25047.22171,3.37843 .0348,1.23644-.034,2.47075-.14408,3.70163-.12832,1.32633-.3071,2.64697-.49792,3.96552-.18779,1.26049-.40623,2.51611-.6323,3.77022-.22529,1.25825-.47912,2.51101-.74096,3.76207-.28327,1.39185-.61844,2.77283-.88651,4.16766-.22719,1.27758-.45172,2.55558-.68716,3.83167-.22654,1.18145-.37892,2.3756-.55807,3.56487-.19494,1.16398-.36433,2.33269-.47244,3.50811-.0682,1.07108-.19664,2.1374-.26956,3.20788-.0551.94647-.0643,1.89812.0157,2.84321 .0474,1.01709.31801,1.9952.57446,2.97377 .2851,1.17118.6104,2.33275.94751,3.48997 .24513.89823.58662,1.76693.88162,2.65028 .33218.98467.63986,1.97718.95949,2.96588 .35037,1.07402.63305,2.1691.86072,3.27528 .17957,1.05895.27289,2.12953.32321,3.20162 .072,1.19784.0916,2.39746.0634,3.59691-.0326,1.21245-.14419,2.42019-.27464,3.62537-.13019,1.1929-.30724,2.37974-.49609,3.56452-.18531,1.15015-.39444,2.29625-.61045,3.44098-.20601,1.0861-.42695,2.16927-.65225,3.25151-.28087,1.28806-.57332,2.57252-.80792,3.86996-.18776,1.19889-.25471,2.41281-.29305,3.6244-.0782,1.07105-.0259,2.14072.0174,3.21148 .0626.95344.17378,1.90394.31725,2.84846 .10899.85271.33652,1.68241.5196,2.52048 .22428.95061.4574,1.89862.66534,2.85306 .16685.67892.0845.34029.24701,1.01586l-.21384-.45656c-.16272-.67555-.0807-.33679-.24604-1.01629-.20915-.9542-.4428-1.90221-.66548-2.85324-.18505-.83786-.408-1.66886-.51648-2.52183-.14025-.94556-.25401-1.89621-.31224-2.85061-.0437-1.07124-.0904-2.14139-.014-3.21287 .0395-1.21266.1086-2.42773.29991-3.6272 .23572-1.29749.52972-2.58199.80906-3.87062 .225-1.08211.44571-2.16514.65139-3.25111 .21564-1.14452.42434-2.29041.60915-3.44037 .18826-1.18443.36434-2.37097.49374-3.56351 .12947-1.20463.2396-2.41185.27073-3.62369 .0262-1.19904.005-2.39813-.0667-3.59552-.0524-1.07111-.14641-2.14114-.33045-3.1985-.16584-.7951-.34717-1.58712-.58214-2.31813-.32159-.98804-.62583-1.98168-.95911-2.96599-.39787-1.19871-.85394-2.37866-1.16409-3.60549-.33512-1.15791-.66169-2.31906-.94629-3.49052-.25668-.97951-.51977-1.95989-.56659-2.97766-.0754-.94638-.0661-1.89885-.009-2.84618 .0759-1.07046.20018-2.13722.2707-3.20827 .11122-1.17563.28021-2.34467.47507-3.50919 .17888-1.18959.33201-2.38389.55962-3.56545 .23519-1.27618.45915-2.55434.68758-3.83174 .27044-1.39451.60368-2.77601.88725-4.16792 .26138-1.25094.51464-2.5036.7396-3.76168 .22566-1.25385.44373-2.5092.63071-3.7695 .1902-1.31816.36847-2.63841.49539-3.96439 .10812-1.23024.17495-2.46385.13869-3.69942-.0312-1.12711-.0825-2.25696-.22802-3.37571-.15052-.90619-.33459-1.80868-.61905-2.68336-.34202-1.13214-.72114-2.25403-1.13212-3.3629-.43808-1.1806-.91864-2.34457-1.35582-3.52547-.43435-1.18987-.84882-2.38644-1.28193-3.57679-.52475-1.47005-1.00535-2.95315-1.42395-4.45757-.42386-1.53111-.85011-3.06309-1.17749-4.61845-.28809-1.42839-.48847-2.87187-.71949-4.31025-.2036-1.32585-.33398-2.65926-.3733-4.00085-.003-1.22285.004-2.44894.13623-3.66608 .16869-1.40841.35427-2.81393.58607-4.21363 .26203-1.65414.58952-3.29523.9978-4.92002 .43139-1.85631.86093-3.71304 1.28433-5.57119 .45571-2.00465.908-4.01008 1.35019-6.01776 .36179-1.65397.72371-3.30842 1.02702-4.97435 .25062-1.37638.4923-2.75444.7099-4.13649 .25061-1.60106.48964-3.20415.68472-4.81306 .17336-1.5.33174-3.00634.30169-4.51877-.0344-1.23569-.14218-2.46262-.3545-3.68167-.17652-1.3684-.41829-2.72648-.74555-4.06751-.37295-1.64977-.67064-3.31612-1.08895-4.95551-.36376-1.513-.92441-2.9729-1.35338-4.46747-.56562-1.87139-1.18906-3.73272-1.55493-5.65652-.24051-1.52698-.38375-3.06274-.36042-4.61097-.0304-1.78231-.0123-3.56388.0407-5.34574 .0447-1.79808.0304-3.59728.10698-5.39445 .0658-1.5164.1299-3.03282.22621-4.54766 .0805-1.57648.18617-3.15168.23894-4.72948 .0534-1.60781.14532-3.21405.21798-4.82105 .049-1.43179.14639-2.86055.23321-4.2904 .11472-1.3836.25879-2.76423.38851-4.1465 .16762-1.6163.37606-3.22869.58158-4.84051 .31322-1.97799.69116-3.9443 1.01147-5.9211 .21552-1.42988.40544-2.86582.4228-4.31437 .0246-1.28319.0167-2.56777-.0871-3.84788-.11908-1.37232-.32194-2.73158-.55802-4.08847-.22047-1.25375-.47773-2.49737-.84528-3.71728-.27682-1.07549-.62259-2.12944-.93637-3.19508-.34783-1.21353-.64208-2.44286-.94643-3.66772-.34239-1.49757-.5942-3.01305-.8592-4.52578-.29335-1.6551-.53885-3.31851-.73041-4.98858-.17766-1.4316-.33222-2.8695-.33708-4.31388 .0224-1.51232.11431-3.02255.28803-4.52545 .24729-1.683.51371-3.36266.85592-5.02951 .33878-1.61332.67204-3.22783.98173-4.84701 .30564-1.60226.59723-3.20723.84943-4.81889 .24541-1.58099.47465-3.16582.59882-4.76176 .0949-1.519.0694-3.03885-.0836-4.55416-.16425-1.71615-.38943-3.42556-.70348-5.12126-.35919-2.0192-.72906-4.03591-1.1545-6.04248-.36353-1.72141-.74029-3.44007-1.12276-5.15737-.33442-1.56491-.65563-3.1321-.90321-4.71366-.2088-1.464-.36474-2.93492-.43209-4.41284-.10724-1.74971-.17271-3.50147-.12953-5.25493 .0333-1.85503.13985-3.70857.3441-5.55313 .20122-1.76781.50893-3.51764.80813-5.27103 .29178-1.82448.57864-3.65058.79065-5.48637 .20238-1.82956.36339-3.6642.45169-5.50309 .0714-1.76696.0892-3.53663-.002-5.30346-.10106-1.44525-.26357-2.88731-.52586-4.31286-.26655-1.38985-.56627-2.77317-.79867-4.16953-.22552-1.29596-.41511-2.59766-.57758-3.90304-.16992-1.33988-.28586-2.68594-.41715-4.02997-.13088-1.39037-.22132-2.78274-.33003-4.17485-.0856-1.0868-.21848-2.16934-.28484-3.25783-.056-1.04476-.11001-2.08833-.0398-3.13448 .0424-1.16118.13093-2.32063.14748-3.48299 .0461-1.16819.1454-2.33275.26304-3.49581 .14405-1.16994.26565-2.34212.38122-3.51517 .14796-1.15742.28798-2.31728.34615-3.48331 .038-1.03533.0409-2.07283-.066-3.10484-.11081-.98208-.29218-1.95175-.58193-2.89834-.21844-.74434-.52626-1.59929-.80292-2.38088-.3743-.99347-.70438-2.00956-1.2118-2.94633-.43705-.75361-.88523-1.50192-1.38796-2.21404-.49267-.78409-.96962-1.57822-1.44496-2.37285-.51135-.85096-.96585-1.7343-1.38726-2.63302-.47694-1.02921-.93191-2.06269-1.17362-3.17922-.2533-.95267-.40252-1.92816-.49347-2.90944-.0644-1.07663-.0162-2.15231.0707-3.22684 .0731-1.04377.184-2.08519.20433-3.13222 .0367-.7001.024-1.3994.0433-2.09956 .0321-.47871.0852-.91288.52209-1.1931 .55699-.33506 1.18694-.47619 1.82437-.57685 .83616-.1304 1.66075-.31965 2.49471-.4629 .92008-.16657 1.84703-.24539 2.78109-.28004 .97053-.09185 1.93643-.23025 2.88092-.47826 .69109-.17309 1.38235-.34537 2.07372-.51717l.14322.48415z" fill="#e6e6e6"/>
<path d="m320.45223,446.12194c.0813.40207.15871.80488.24537,1.20581 .10398.54037.22501,1.07664.35543,1.61114 .10331.38178.26116.76066.42815,1.13502 .21345.47919.43146.95652.65587,1.43071 .22066.48753.46339.96438.68105,1.45331 .24246.49748.42569,1.01575.5879,1.54367 .17112.59711.3394,1.19594.46721,1.80408 .0882.54291.13089,1.09327.16779,1.64191 .0323.55386.065,1.10725.0733,1.66209 .004.56051.004,1.12074-.0144,1.68102-.0195.54698-.0684,1.09219-.12631,1.63625-.0629.57116-.15469,1.13863-.24851,1.70536-.0941.56209-.19845,1.12239-.30742,1.68176-.12053.5536-.30782,1.08972-.51092,1.61763-.21508.53358-.41143,1.07355-.58523,1.62188-.67856,2.47137-1.29789,4.95863-1.92651,7.44305-.67253,2.56965-1.27264,5.1568-1.75953,7.76799-.29218,1.67774-.51402,3.36826-.64543,5.06621-.0585,1.17287-.0376,2.34611.0274,3.51785 .0481.87046.19909,1.7293.38167,2.58018 .1362.65311.29976,1.30028.49083,1.93948 .196.65171.42982,1.291.63934,1.93827 .18271.55627.39923,1.10047.59073,1.65358 .17541.49587.35725.98942.53313,1.48518 .21412.53351.37039,1.0881.48032,1.65188 .0885.47857.11617.96468.12715,1.45028 .006.32437-.009.64844-.0259.97221l-.1003-.23128c.0166-.32354.0305-.64738.0241-.97146-.0121-.48511-.0409-.97069-.13106-1.4485-.0805-.40531-.17017-.78985-.34061-1.1733-.17536-.49598-.35756-.98942-.53332-1.4852-.19044-.55356-.40789-1.09747-.59124-1.65358-.20864-.64764-.44333-1.28668-.63998-1.93826-.23526-.79909-.46713-1.59975-.62946-2.4176-.18146-.85147-.3311-1.71082-.37804-2.58166-.0644-1.17208-.084-2.34579-.0242-3.51886 .13303-1.69808.35473-3.38883.64815-5.06664 .488-2.61104 1.08883-5.1981 1.76132-7.76781 .62883-2.48525 1.24779-4.97352 1.92709-7.44558 .17455-.54848.37162-1.08857.58655-1.6226 .20213-.52728.38826-1.06289.50687-1.61595 .10864-.55931.21286-1.11949.30672-1.68148 .0935-.56654.18496-1.13383.24714-1.70483 .0574-.54383.10577-1.08878.12462-1.63549 .0178-.56012.0174-1.12022.0133-1.68056-.009-.55463-.0421-1.10787-.0745-1.66154-.0377-.54821-.0796-1.09839-.17103-1.64047-.0949-.44564-.21565-.88429-.32824-1.32558-.16169-.52785-.34137-1.04714-.5849-1.54405-.21663-.48937-.45996-.96584-.68044-1.45341-.22479-.47406-.4428-.95144-.65639-1.43062-.23431-.5213-.43152-1.05744-.5709-1.61279-.13048-.53454-.24968-1.07127-.35481-1.61144-.0858-.40108-.16228-.80407-.2471-1.20536l.10809.22809z" fill="#e6e6e6"/>
<path d="m320.99526,245.3891 3.82042.99694 .3186,12.93942c1.59702,64.85815 3.23046,147.74834 3.62987,184.19873 .39917,36.43023.26087,51.03251-.55027,58.10122-.29033,2.53009-1.50849,3.90686-4.17301,4.71638-2.4866.75546-2.61837.71703-2.74458-.80012-.06-.72059-.63344-2.82252-1.27442-4.67095-2.78112-8.02009-2.6271-11.64538 1.10004-25.89182 2.85254-10.90346 2.97498-11.45308 3.05777-13.72671 .11953-3.28244-.15908-5.27621-1.05233-7.53054-.46981-1.18567-1.24502-3.88746-1.7227-6.00397-1.38304-6.12814-1.36362-9.94562.0865-16.99877 2.6352-12.81707 2.62991-17.9507-.0268-26.08874-1.46203-4.47843-2.40089-7.96434-2.51995-9.3563-.29438-3.44169.37335-9.09802 2.13434-18.07988 2.20044-11.22334 2.66148-14.56799 2.60075-18.86723-.0487-3.44664-.6113-5.6769-3.28505-13.02228-4.20476-11.55137-5.52644-18.70686-4.68807-25.38097 .14808-1.1789 1.31309-6.91853 2.58891-12.75474 2.48794-11.38109 2.80917-13.05384 3.62378-18.87019 .56341-4.02283.67925-7.05427.35805-9.37066-.44669-3.2214-1.85363-9.41834-3.04815-13.42567-.69897-2.34491-1.46281-5.18349-1.69741-6.30795-.39099-1.87403-.53557-6.35165-.40471-12.53371l.048-2.26846 3.82042.99694z" fill="#e6e6e6"/>
<path d="m309.10143,11.87224c1.17554-.28029 3.37844-.66612 4.89531-.85741l2.75797-.34779 .41118,1.68337c.74691,3.05786 1.22993,8.26694 1.62263,17.49939 .45958,10.80453 4.27539,149.78285 5.16189,188.00449 .34001,14.65957.63837,27.03712.66303,27.50564 .0393.74621-.39088.71425-3.46743-.25755-1.93174-.61018-3.57565-1.19921-3.65314-1.30894-.22152-.3137.62184-17.56699 1.06507-21.78881 .21947-2.09054.80224-6.50961 1.29503-9.82015 1.11059-7.46093.79883-11.62111-1.58444-21.14222-3.3336-13.31766-3.45817-18.31043-.80296-32.18432 1.99824-10.44117 1.87503-13.20621-1.28004-28.72688-.86663-4.26317-1.61853-9.94101-1.67088-12.61742-.0904-4.6207.0808-6.61317 1.58898-18.48973 .88022-6.93182.79178-11.92534-.32982-18.6202-1.56852-9.36259-2.12702-18.34518-1.56803-25.21921 1.09658-13.48513.72192-15.64174-4.26544-24.55225-3.31028-5.9142-3.6328-7.12731-3.43696-12.92752 .17925-5.30911.15266-5.24943 2.59805-5.83249z" fill="#e6e6e6"/>
<path d="m320.95361,245.4512 3.57854.86693 .11012,3.01488c.0606,1.65817.16512,3.37898.23235,3.82401s.0579.94895-.0207,1.11983c-.15102.32821.00093,5.34553.2035,6.71975 .0655.44461.0548.94821-.0238,1.11909-.15102.32821.00093,5.34552.20351,6.71974 .0656.44462.0548.94821-.0238,1.11909-.15102.32821.00093,5.34553.20351,6.71975 .0655.44461.0548.94821-.0238,1.11909-.15102.32821.00093,5.34552.2035,6.71974 .0656.44462.0548.9482-.0238,1.11909-.14972.32535-.00027,5.32483.20084,6.71909 .0641.44427.0913,1.0355.0604,1.31385-.28313,2.55493-.18865,4.89133.20163,4.98588 .26219.0635.32395.26645.13726.45097-.37328.36894-.43598,6.85519-.0712,7.36033 .12511.17323.17483.53607.11048.8063-.34263,1.43981-.18091,6.97194.20677,7.06586 .24902.0603.30002.26066.11333.44518-.37328.36893-.43599,6.85519-.0712,7.36033 .12511.17323.17484.53605.11049.8063-.34264,1.43981-.18091,6.97194.20676,7.06586 .24903.0603.27437.28601.0563.50153-.47875.47317-.34307,6.8919.15344,7.25904 .19282.14261.18842.41954-.01.61543-.45331.44804-.28475,6.8727.18951,7.2234 .19282.14261.18842.41953-.01.61544-.45332.44804-.28476,6.8727.1895,7.2234 .19283.14261.18842.41952-.01.61543-.42411.41916-.29982,6.85891.13879,7.19164 .16493.12515.0827.63137-.18282,1.125-.27661.51432-.23602.95728.0944,1.03733 .3174.0769.40401.31088.19245.51997-.47463.46911-.33384,8.99311.15448,9.35258 .19411.14292.18127.42949-.0286.63687-.45506.44976-.31769,8.91085.15012,9.24715 .17867.12848.10764.63742-.15786,1.13106-.27661.5143-.23602.95727.0944,1.03731 .3174.0769.38919.32553.15953.55252-.51005.50411-.36077,8.94333.16477,9.31455 .20655.14594.21301.42596.0143.62233-.52989.52374-.35618,11.33317.18423,11.46409 .2526.0612.27382.29455.0472.51857-.47183.46634-.0795,31.35344.40279,31.70599 .17421.1274.0995.63546-.16596,1.12909s-.25673.95227.0195,1.01917 .27962.53546.008,1.04121-.26864.97429.008,1.04122 .2796.53545.008,1.04122c-.28745.53446-.2529.9781.0825,1.05936 .3174.0769.3992.31563.18177.53053-.49834.49253-.3534,26.12967.14973,26.48793 .20407.14533.20698.42634.006.62452-.42976.42475-.48428,5.06752-.0703,5.98944 .15725.35022.13305.73001-.0538.84397-.31656.19308-.42252,3.72764-.16641,5.55095 .0623.44385.0628,1.14553.001,1.5593-.37664,2.52193-.35377,5.63085.0421,5.72676 .25525.0618.28012.29428.0553.51653s-.53886,2.40527-.69775,4.85119c-.33533,5.16182-.91581,6.2218-4.04138,7.37977-2.03769.75494-2.84234.78774-2.67795.10919 .0542-.22378-.59189-2.94534-1.4358-6.04791-2.30858-8.4874-2.2765-9.10214 1.28233-24.57076 1.83417-7.97246 3.058-14.2897 3.02909-15.63629-.0267-1.24269-.76274-5.04699-1.63573-8.45399-2.20385-8.60104-2.36098-11.24871-1.12079-18.88675 1.591-9.79873 2.23271-16.84323 1.8311-20.10172-.19847-1.61039-1.1863-5.81733-2.19517-9.34876s-1.89852-7.59284-1.977-9.02536c-.15426-2.81552.6882-8.99628 2.98658-21.91124 2.22617-12.50922 2.15658-15.00002-.66441-23.78033-7.09473-22.08236-7.07428-21.58704-1.9402-47.00832 3.82017-18.91537 3.81383-20.63855-.13127-35.7555-2.01125-7.70678-2.11318-8.475-2.10964-15.89917l.002-5.01376 3.57856.86694z" fill="#e6e6e6"/>
<path d="m292.05736-27.08289c0,0 2.05074-1.50785.38715,2.69222-1.94294,4.90538 1.34633,12.99467 1.21,20.58668 5.79663,3.95808 8.50662,16.44634 12.29732,16.78396 1.0453.0931 5.1143-2.62354 12.89935-1.48229" fill="#999"/>
<path d="m306.18872,13.38691c-.38735.20315-.77719.40181-1.17037.59347-.55475.27245-1.11912.52186-1.70206.72709-.63603.19809-1.27922.37519-1.92418.54222-.58431.15582-1.184.23108-1.78192.31098-.55193.07581-1.10819.10861-1.66271.15894-.48771.07402-.97937.1108-1.46957.16191-.46366.05746-.93005.07889-1.39688.08203l-.23486-.0031-.0638-.24391 .23437.0033c.46604-.0029.93165-.02399 1.39451-.08139 .49028-.05132.98214-.08756 1.46991-.16196 .55418-.05029 1.11008-.08305 1.66169-.15862 .59692-.0798 1.19568-.15452 1.77903-.31009 .64427-.1668 1.28677-.34372 1.92212-.54159 .58199-.20502 1.14539-.45428 1.69926-.72631 .39244-.19145.78175-.38949 1.16799-.59315l.0775.24025z" fill="#ececec"/>
<path d="m294.66841-2.81218c1.28834,1.12533 3.44006,4.4078 5.6982,8.69264 2.46974,4.68636 3.06195,5.57764 4.48975,6.757l.7709.63677-1.56332.66799c-.85984.36739-2.06317.7835-2.67408.92467-1.65523.3825-6.52136.81558-6.59463.58692-.0595-.18576-.63163-16.34328-.63628-17.96978-.002-.71585.0166-.72669.50946-.2962z" fill="#fff"/>
<path d="m301.97185,16.38951c0,0 11.89554,460.71019 8.09011,476.41825l-3.80543,15.70806" fill="none" stroke="#999" stroke-width="1.8"/>
<path d="m-334.59567-521.99884h32.14273v25.61436h-32.14273z" fill="url(#linearGradient4012)" transform="matrix(-.99968,.02538,.00899,-.99996,0,0)"/>
<path d="m310.34119,525.54694c-10.93896-.57964-20.19047-2.60777-26.60714-5.83291-4.87606-2.45078-7.82195-5.48938-8.08573-8.34017-.4354-4.70558 8.49339-10.54748 20.72798-9.92185l1.03511.0529-.0944,1.6488c-.0519.90683.66685,2.98035.33963,4.76175l.43403,3.64867-.45748-.17857h.61396l.13144-4.91412c.0723-2.70277.19437-4.91412.27128-4.91412s.10459-1.1474.0615-2.54978 .0398-5.76251.18414-9.68917l.26248-7.13939-.12103,11.77536c-.0666,6.47644-.11952,13.08965-.11768,14.696l.003,2.92066h-.50661c-.27863,0-.46411.0714-.41216.1587s1.00088.21582 2.10875.28565 3.82234.30416 6.03216.52075c2.5634.25124 5.44.39957 7.94643.40974 4.38376.0178 5.4924-.14628 8.73869-1.29339 1.31292-.46394 2.10971-.63567 2.95774-.63749 .63839-.001 1.82366-.0561 2.63393-.12158l1.47321-.11909v-1.16866c.97714-3.10454-1.03426-6.45039.86993-7.64503 2.26252.81721 4.41316.55752 6.20142.69931 2.28612.18127 4.09326.67886 6.0014,1.27159 5.17591,1.60781 8.84066,5.5065 8.97627,12.5025l-.71203.64324c-4.76142,4.30141-7.79111,5.40422-12.14061,6.33877-2.76563.59423-7.75849,1.76381-8.02678,1.49261-.27241-.27534-1.16965-.20667-1.16965.0895 0,.1817-.31196.29351-1.02678.36803-1.20879.12601-16.70629.27719-18.52679.18073h-1e-005z" fill="url(#radialGradient4032)" opacity=".83628"/>
<path d="m296.4059,688.44081c-2.62827-1.12137-5.94739-2.76116-7.37582-3.64398-2.51379-1.55361-2.58387-1.7111-2.1831-4.90612 .46815-3.7322 4.56676-57.02075 6.95635-90.44384 1.08893-15.23078 1.59619-28.95997 1.62502-43.9815l.0419-21.83865 3.21429.66644c1.76786.36654 9.40012.71179 16.96058.76722 9.13233.067 13.74753.35467 13.75.85719 .002.41603-1.28785,19.05889-2.86642,41.42858-5.18716,73.50657-8.16928,111.27378-9.02074,114.24358-.64123,2.23651-4.61158,6.11444-7.75199,7.57153-3.99722,1.85464-7.79493,1.64969-13.35009-.72045z" fill="url(#linearGradient4050)" opacity=".83628"/>
<path d="m597.14284,540c0,54.04501-6.07614,97.85714-13.57143,97.85714s-13.57143-43.81213-13.57143-97.85714 6.07614-97.85714 13.57143-97.85714 13.57143,43.81213 13.57143,97.85714z" fill="#a9948e" filter="url(#filter4062)" opacity=".83628" transform="matrix(.24938,.01033,-.02924,.70562,180.07552,205.96978)"/>
<path d="m-475.15524,795.65179h10.55842v10.34001h-10.55842z" fill="#ececec" transform="matrix(.89424,-.44759,.91313,.40767,0,0)"/>
<path d="m-490.71448,810.10693h10.55842v10.34001h-10.55842z" fill="#ececec" transform="matrix(.89424,-.44759,.91313,.40767,0,0)"/>
<path d="m-505.05365,824.14948h10.55842v10.34001h-10.55842z" fill="#ececec" transform="matrix(.89424,-.44759,.91313,.40767,0,0)"/>
<path d="m-519.76941,837.77856h10.55842v10.34001h-10.55842z" fill="#ececec" transform="matrix(.89424,-.44759,.91313,.40767,0,0)"/>
<path d="m-534.10858,851.82117h10.55842v10.34001h-10.55842z" fill="#ececec" transform="matrix(.89424,-.44759,.91313,.40767,0,0)"/>
<path d="m-548.44775,865.86371h10.55842v10.34001h-10.55842z" fill="#ececec" transform="matrix(.89424,-.44759,.91313,.40767,0,0)"/>
<path d="m-564.76019,879.49194h10.55842v10.34001h-10.55842z" fill="#ececec" transform="matrix(.89424,-.44759,.91313,.40767,0,0)"/>
<path d="m-579.85254,892.70758h10.55842v10.34001h-10.55842z" fill="#ececec" transform="matrix(.89424,-.44759,.91313,.40767,0,0)"/>
<path d="m-598.69537,908.8139h10.55842v10.34001h-10.55842z" fill="#ececec" transform="matrix(.89424,-.44759,.91313,.40767,0,0)"/>
<path d="m-614.25458,923.26904h10.55842v10.34001h-10.55842z" fill="#ececec" transform="matrix(.89424,-.44759,.91313,.40767,0,0)"/>
<path d="m-629.72351,936.07123h10.55842v10.34001h-10.55842z" fill="#ececec" transform="matrix(.89424,-.44759,.91313,.40767,0,0)"/>
<path d="m287.56594,676.25049c.93233.29964 1.86213.60482 2.80714.865 1.24485.33382 2.51285.56762 3.7857.7636 1.6589.31408 3.33469.51634 5.01169.70363 1.77771.18158 3.5564.37015 5.34222.44655 1.61502.0752 3.22782.0238 4.84058-.0649 1.42717-.0725 2.84434-.2709 4.26451-.42321 1.3189-.1199 2.62559-.34115 3.92152-.60941 .76284-.1487 1.46358-.45674 2.14182-.82411l-.55584.44709c-.68381.36045-1.3896.66181-2.15431.80787-1.29735.26668-2.60575.48338-3.92555.60384-1.4207.15303-2.83863.35014-4.26664.42014-1.61409.0877-3.2284.13497-4.84458.0591-1.7866-.0806-3.56636-.26719-5.34491-.45053-1.67773-.18822-3.35378-.39347-5.01379-.70583-1.27454-.19824-2.54427-.43381-3.79051-.77032-.94342-.26133-1.87064-.57138-2.80491-.86029l.58586-.40823z" fill="#1a1a1a"/>
<path d="m293.86313,686.6172-6.60714-3.15764v-3.16257-3.16257l4.10714.97063c5.7725,1.3642 16.91891,1.95764 21.78571,1.15989 4.01061-.65741 4.10715-.63438 4.10715.9795 0,2.14583-3.76994,6.41027-7.22535,8.17308-4.47578,2.28338-8.57863,1.82651-16.16751-1.80032z" fill="#221a1a"/>
</g>
</svg>
