<?xml version="1.0" encoding="utf8" standalone="no"?>
<!DOCTYPE svg PUBLIC "-//W3C//DTD SVG 1.1//EN" "http://www.w3.org/Graphics/SVG/1.1/DTD/svg11.dtd" [
<!ENTITY ns_svg "http://www.w3.org/2000/svg">
	<!ENTITY ns_xlink "http://www.w3.org/1999/xlink">
]>
<svg enable-background="new 0 0 410.195 587.375" height="587.38" viewBox="0 0 410.195 587.375" width="410.2" xml:space="preserve" xmlns="http://www.w3.org/2000/svg">
	<path d="m204,530.23c-2.12,5.954-2.084-4.944-1.842-7.364 2.12-5.96 2.08,4.94 1.84,7.36z" fill="#c49f06"></path>
	<path d="m178.22,528.39c-3.702,2.981-1.041-16.062-1.841-22.093 3.7-2.98 1.04,16.06 1.84,22.09z" fill="#c49f06"></path>
	<path d="m181.9,489.73c-1.946-2.697.331-39.931 1.841-25.774 .36,3.26 1.33,15.11-1.84,25.77z" fill="#c49f06"></path>
	<path d="m185.59,388.47c-4.085-5.623-.759-37.617-1.841-53.393 4.08,5.62.75,37.62 1.84,53.39z" fill="#c49f06"></path>
	<path d="m185.59,324.04c-4.004-.957-.827-24.91-1.841-34.981 4,.95.82,24.9 1.84,34.98z" fill="#c49f06"></path>
	<path d="m213.2,147.29c-2.12,5.956-2.084-4.944-1.842-7.365 2.12-5.95 2.08,4.95 1.84,7.37z" fill="#c49f06"></path>
	<path d="m172.7,145.45c-4.098-3.914-.759-31.127-1.841-44.186 1.752-7.384 3.851,16.762 3.682,23.934-.19,7.95-3.19,14.79-1.84,20.26z" fill="#c49f06"></path>
	<path d="m211.36,134.4c-4.027-1.542-.812-26.158-1.842-36.821 4.03,1.547.81,26.161 1.84,36.821z" fill="#c49f06"></path>
	<path d="m191.11,110.47c6.1,5.66-3.14,26.07 0,0z"></path>
	<path d="m187.43,104.95c-1.197,5.19-2.138-4.242-1.841-5.524 .85-3.7 3.46-1.487 1.84,5.524z"></path>
	<path d="m170.86,92.061c-.701,3.504-2.343-1.176-1.841-3.682 .7-3.505 2.34,1.175 1.84,3.682z" fill="#c49f06"></path>
	<path d="m204,62.603c-2.079,5.915-5.256-1.772-3.684-5.522v-12.888-23.934c-.041-8.035 3.172-.312 1.842,3.682v11.046 23.934c-.3,2.14.4,3.277 1.84,3.682z"></path>
	<path d="m176.38,58.921c-3.083,5.302-1.465-9.407-1.841-12.887 3.08-5.302 1.47,9.407 1.84,12.887z" fill="#eff0f0"></path>
	<path d="m12.527,53.398c-4.265-8.008-.636-23.91-1.84-34.98 4.264,8.008.636,23.91 1.84,34.98z"></path>
	<path d="m215.04,51.558c-6.8-5.584 5.6-6.203 0,0z" fill="#eff0f0"></path>
	<path d="m167.18,49.716c-6.591-2.564-1.821-5.284-1.841-9.206-.028-5.32.489-19.833 1.841-12.887 .44,2.313-.29,9.806 0,22.093z" fill="#eff0f0"></path>
	<path d="m7.004,47.875c-3.702,2.981-1.042-16.062-1.841-22.092 3.702-2.981 1.041,16.062 1.841,22.092z" fill="#eff0f0"></path>
	<path d="m16.209,46.034c-3.768,2.447-.994-17.346-1.841-23.934 3.769-2.447.994,17.346 1.841,23.934z"></path>
	<path d="m215.04,42.352c-4.004-.957-.827-24.91-1.841-34.979 4,.955.83,24.909 1.84,34.979z" fill="#fff"></path>
	<path d="m176.38,40.511c-3.946.203-.868-22.407-1.841-31.298 3.95-.203.87,22.407 1.84,31.298z" fill="#eff0f0"></path>
	<path d="m163.5,40.511c-3.871,1.341-.923-19.888-1.841-27.616 3.86-1.341.92,19.888 1.84,27.616z" fill="#fff"></path>
	<path d="m154.29,31.305c-3.083,5.302-1.465-9.406-1.84-12.887 3.08-5.302 1.46,9.407 1.84,12.887z"></path>
	<path d="m218.73,27.624c-3.625,3.5-1.097-14.768-1.842-20.251 3.62-3.502 1.09,14.767 1.84,20.251z" fill="#fff"></path>
	<path d="m187.43,29.465c-6.569-1.561-.221-4.534-1.841-11.047 4.06.23.78,7.81 1.84,11.047z"></path>
	<path d="m167.18,22.1c-2.663-.442-4.279-15.153 1.841-12.888-2.54,2.374-1.82,7.998-1.84,12.888z" fill="#eff0f0"></path>
	<path d="m213.2,578.1c-17.584,19.274-49.146,5.635-51.55-14.729-1.726-14.613 9.536-28.284 11.046-40.503 3.511-28.416 0-61.328 0-93.895 0-30.752-.68-63.282 0-93.895 1.229-55.321 5.54-110.96 0-156.49-.877-7.214-4.95-15.083-5.523-22.093-1.37-16.746 3.041-32.961 1.841-49.709-1.423-19.877-6.15-39.5-9.205-58.914-50.04-13.748-120.2-3.3-158.34,12.887-2.459-16.349-1.863-33.116 1.841-47.868 49.987.359 99.496,9.017 145.44,0 16.892-3.315 31.514-12.573 47.867-12.888 12.181-.233 22.505,5.308 34.979,7.365 28.953,4.772 62.311,3.409 93.895,7.364 30.725,3.848 58.779,9.68 84.688,20.251-3.614,2.692-17.79,1.22-27.731.299-36.385-3.936-48.051-4.418-64.067-5.891-31.113-2.946-87.896-3.409-97.831,18.479-5.594,12.327-7.828,54.771-7.362,75.483 .325,14.666 2.896,28.797 5.522,38.662-15.574,27.048-7.015,66.781-9.205,112.3-1.354,28.071-1.537,57.46-1.842,86.53-.644,61.517-9.988,127.42 0,174.9 2.76,13.11 12.74,27.73 5.52,42.35zm-7.36-38.66c-4.7-14.9 3.19,12.17 0,0zm-23.94-454.74c1.496,7.237-5.765,22.544-1.841,20.252 3.401-5.189 1.618-15.565 5.523-20.252-6.877,27.131 9.22,38.181-1.841,64.438 1.622-5.739 3.865-28.438 0-27.616-.229,7.78 1.346,25.401-3.683,12.888 .363,9.027 3.972,25.192-1.841,11.046 .295,6.99.064,11.668-3.682,5.523 .124,8.229 4.209,2.346 7.364,5.523-1.286,8.709 4.614,19.68 3.682,23.934-.022.099-5.498-3.247-3.682,1.841 1.181,7.409-2.393,19.577 1.841,23.933 1.181-7.409-2.394-19.577 1.841-23.933 .127,21.087-.169,40.101 0,60.754-.065-7.878.924,21.169 1.841,20.252 4.752-4.75 0-34.293 0-42.345 0-27.456-1.147-46.026-1.841-62.596 7.463,53.438 1.841,122.19 1.841,187.79 0,21.589 3.982,47.41 0,64.438-.487,2.076-3.592,1.915-3.682,3.681-2.073,40.629 8.659,84.788-3.683,123.35 4.344-11.612-.906-32.817 3.683-44.185-8.082,5.91-1.865,25.091-3.683,36.821-.897,5.783-2.565,10.405-5.523,12.888-.625-3.467 4.263-13.42 0-9.206-.804,10.83-3.165,25.269 0,38.662 7.724,7.202 16.134,7.257 29.458,5.522 16.019-15.425.291-27.044-3.684-47.866-1.262-6.62-1.856-15.399-1.84-20.253 .009-2.466 3.562-1.64 3.682-3.683-.031.533-3.5-1.123-3.682-1.84 .287,1.132 1.754-4.119 1.84-5.523 2.16-35.229-1.982-77.056 0-119.67 3.629-77.976-1.367-160.65 11.046-224.61-6.591-23.572-4.539-63.31 0-82.847 .289,2.167-.315,5.227 1.843,5.523 3.513-10.559 1.438-25.44-1.843-7.364-.303-11.956-11.541,4.683-20.25,1.841-1.203,10.458 2.421,25.741-1.841,33.139-2.177-10.097 4.529-29.078-3.682-33.139-8.325-2.341 3.279,9.336-3.682,11.046 .294-5.818.064-11.112-3.682-12.888 3.55,7.579-2.7,26.837 3.66,14.747zm29.46,79.164c3.27-17.16-4.69,19.97 0,0zm-40.5-95.734c3.79,3.574 3.574,11.155 7.364,14.729-.99-5.235-2.72-19.249-7.36-14.729zm31.3,454.74c-.242,2.42-.278,13.318 1.842,7.364 .24-2.42.28-13.32-1.84-7.36zm-25.78-16.57c.8,6.031-1.861,25.074 1.841,22.093-.8-6.03 1.86-25.07-1.84-22.09zm7.37-42.34c-1.511-14.155-3.787,23.077-1.841,25.774 3.16-10.66 2.19-22.51 1.84-25.77zm0-128.88c1.082,15.774-2.244,47.769 1.841,53.392-1.09-15.77 2.24-47.77-1.84-53.39zm0-46.03c1.014,10.071-2.164,34.024 1.841,34.981-1.02-10.07 2.16-34.02-1.84-34.98zm27.61-149.12c-.242,2.42-.278,13.321 1.842,7.365 .24-2.43.28-13.33-1.84-7.37zm-36.82-14.73c.168-7.172-1.93-31.318-3.682-23.934 1.082,13.059-2.257,40.271 1.841,44.186-1.35-5.48 1.65-12.32 1.84-20.26zm34.98-27.617c1.029,10.663-2.188,35.279 1.84,36.821-1.03-10.66 2.19-35.274-1.84-36.817zm-40.5-9.205c-.501,2.506 1.14,7.186 1.841,3.682 .5-2.506-1.14-7.186-1.84-3.682zm-3.68-16.569c2.433.021 1.683,3.227 3.682,3.682 .23-5.093 3.514-6.321-1.841-3.682 0-1.023-1.49-2.09-1.84,0zm7.36-9.206c-2.65,1.985 27.576,14.354 33.139,0-3.065-12.91-3.065-38.638 0-51.549v22.093c.679,4.95-1.688,22.411 1.841,18.411 1.213-14.13-2.436-33.12 1.842-44.186 1.213,15.354-2.438,35.577 1.84,47.867v-51.549c-11.613.046-24.048-.729-33.138,1.841v57.072c4.243-4.962.654-17.755 1.841-25.774 2.039-7.779-4.334-23.973 3.683-25.775-3.019,11.796-2.933,47.01 0,51.549 1.14-4.996-2.337-14.611 1.841-16.569 .649,7.33-2.296,18.252 3.682,20.251 14.39,1.501 2.762-23.013 9.206-29.457-.73,9.376 1.039,25.888 0,29.457-9.02,4.418-17.69-1.659-25.77-3.682zm1.84-16.569c.376,3.48-1.242,18.189 1.841,12.887-.37-3.48 1.24-18.189-1.84-12.887zm-154.65,5.524c1.698-11.847-5.603-22.39 1.84-29.458v27.616c38.447-15.342 94.416-18.015 138.08-9.206v-27.616c-5.44,4.378 1.758,21.397-3.682,25.775-1.187-8.019 2.402-20.813-1.841-25.775-43.11,12.198-110.86.219-147.29,5.524 4.756,7.906-.047,31.785 1.841,36.821 1.968-1.077 5.589-1.869 11.051-3.681zm195.15,0c5.6-6.203-6.8-5.584 0,0zm-47.86-23.934c-1.352-6.945-1.87,7.567-1.841,12.887 .021,3.921-4.75,6.642 1.841,9.206-.29-12.288.44-19.781 0-22.093zm-162.02-1.841c.8,6.03-1.861,25.073 1.841,22.092-.8-6.03 1.861-25.073-1.841-22.092zm208.04-18.411c1.014,10.07-2.163,34.023 1.841,34.979-1.01-10.069 2.16-34.023-1.84-34.979zm9.21,20.252c.212,5.003-2.751,18.098 0,11.046 6.99-8.684-1.701-22.65 1.841-29.458 4.671,7.983 3.136,14.945 1.841,25.775 38.139-17.6 118.8-9.716 154.65-7.364-44.607-10.011-94.075-15.16-147.28-16.57-5.825.302-6.154-4.894-12.888-3.682-1.69,6.445 1.53,13.05 1.84,20.253zm-47.87-18.412c.973,8.891-2.105,31.501 1.841,31.298-.97-8.89 2.11-31.5-1.84-31.298zm-12.89,3.683c.918,7.728-2.03,28.957 1.841,27.616-.91-7.728 2.03-28.957-1.84-27.616zm55.23-5.523c.745,5.483-1.783,23.752 1.842,20.251-.74-5.483 1.79-23.752-1.84-20.251zm-47.86,1.84c-6.12-2.265-4.503,12.446-1.841,12.888 .02-4.89-.7-10.514 1.84-12.888z"></path>
	<path d="m205.84,539.44c3.19,12.17-4.7-14.9 0,0z" fill="#c49f06"></path>
	<path d="m211.36,163.86c-4.69,19.97 3.27-17.16 0,0z" fill="#c49f06"></path>
	<path d="m178.22,82.855c-3.79-3.574-3.574-11.155-7.364-14.729 4.64-4.52 6.37,9.494 7.36,14.729z" fill="#c49f06"></path>
	<path d="m178.22,69.968c3.747,1.776 3.977,7.07 3.682,12.888 6.961-1.71-4.643-13.387 3.682-11.046 8.211,4.061 1.504,23.042 3.682,33.139 4.263-7.398.638-22.681 1.841-33.139 8.71,2.842 19.949-13.797 20.251-1.841 3.281-18.076 5.354-3.195 1.842,7.364-2.158-.296-1.555-3.356-1.842-5.523-4.539,19.538-6.592,59.275 0,82.847-12.414,63.964-7.418,146.63-11.047,224.61-1.982,42.612 2.16,84.439 0,119.67-.086,1.404-1.553,6.655-1.84,5.523 .182.717 3.65,2.373 3.682,1.84-.119,2.043-3.673,1.217-3.682,3.684-.017,4.853.578,13.632 1.84,20.252 3.975,20.822 19.702,32.441 3.684,47.866-13.323,1.733-21.733,1.68-29.458-5.522-3.165-13.395-.804-27.832 0-38.662 4.263-4.214-.625,5.739 0,9.206 2.958-2.481 4.626-7.104 5.523-12.888 1.818-11.73-4.399-30.911 3.683-36.821-4.589,11.366.661,32.571-3.683,44.185 12.341-38.562 1.609-82.722 3.683-123.35 .09-1.766 3.195-1.604 3.682-3.681 3.982-17.027 0-42.85 0-64.438 0-65.602 5.623-134.35-1.841-187.79 .693,16.569 1.841,35.14 1.841,62.596 0,8.052 4.752,37.594 0,42.345-.917.917-1.906-28.13-1.841-20.252-.169-20.654.127-39.667 0-60.754-4.234,4.356-.66,16.524-1.841,23.933-4.234-4.356-.66-16.524-1.841-23.933-1.816-5.088 3.66-1.742 3.682-1.841 .932-4.254-4.968-15.225-3.682-23.934-3.155-3.177-7.241,2.706-7.364-5.523 3.747,6.146 3.977,1.467 3.682-5.523 5.813,14.146 2.204-2.019 1.841-11.046 5.029,12.513 3.454-5.108 3.683-12.888 3.865-.822 1.622,21.877 0,27.616 11.061-26.257-5.036-37.307 1.841-64.438-3.905,4.688-2.122,15.062-5.523,20.252-3.923,2.292 3.337-13.016 1.841-20.252-6.34,12.078-.09-7.18-3.66-14.74zm3.68,476.83c3.853-8.453 8.718-25.604 3.682-36.82v20.252c-2.98,3.769-1.437,12.063-5.523,14.729 1.4,7.802-3.393,21.801 3.683,23.933-2.44-5.52-1.87-14.08-1.84-22.09zm-5.52,1.84c-3.151,8.894-.85,16.244 1.841,23.935 2.175.893 4.173,1.964 5.523,3.683 3.13.412 4.556-2.074 0-1.841-8.91-4.04-5.6-19.14-7.36-25.78zm29.46-473.15c-.128-5.359 2.657-4.06-1.841,0 1.932,17.21-5.639,45.714 0,55.231-.57-14.76 2.1-44.411 1.84-55.229zm-14.73,34.979c-3.14,26.07 6.1,5.66 0,0zm-5.52-11.046c-.297,1.282.644,10.714 1.841,5.524 1.62-7.011-.99-9.224-1.84-5.526z" fill="#c49f06"></path>
	<path d="m183.75,568.89c-7.075-2.132-2.282-16.131-3.683-23.933 4.087-2.664 2.543-10.96 5.523-14.729v-20.252c5.036,11.216.17,28.367-3.682,36.82-.04,8.01-.61,16.57 1.84,22.09z"></path>
	<path d="m183.75,574.42c4.556-.232 3.13,2.253 0,1.841-1.351-1.719-3.348-2.79-5.523-3.683-2.691-7.689-4.993-15.041-1.841-23.935 1.75,6.64-1.56,21.74 7.36,25.78z"></path>
	<path d="m204,130.72c-5.639-9.518 1.932-38.021 0-55.231 4.498-4.06 1.713-5.359 1.841,0 .26,10.82-2.41,40.471-1.84,55.231z"></path>
	<path d="m167.18,71.809c5.354-2.64 2.071-1.412 1.841,3.682-1.999-.455-1.25-3.66-3.682-3.682 .35-2.09 1.84-1.023 1.84,0z" fill="#c49f06"></path>
	<path d="m198.48,66.286c1.039-3.569-.73-20.081 0-29.457-6.444,6.444 5.184,30.958-9.206,29.457-5.978-1.999-3.033-12.921-3.682-20.251-4.178,1.958-.701,11.573-1.841,16.569-2.933-4.539-3.019-39.753 0-51.549-8.017,1.802-1.644,17.996-3.683,25.775-1.187,8.019 2.402,20.812-1.841,25.774v-57.072c9.09-2.569 21.524-1.794 33.139-1.841v51.549c-4.278-12.291-.627-32.513-1.842-47.867-4.275,11.066-.629,30.056-1.84,44.186-3.529,4-1.162-13.461-1.842-18.411v-22.093c-3.065,12.911-3.065,38.639 0,51.549-5.563,14.354-35.79,1.985-33.139,0 8.07,2.022 16.74,8.099 25.77,3.682zm3.68-7.365v-23.934-11.046c1.33-3.994-1.883-11.717-1.842-3.682v23.934 12.888c-1.572,3.75 1.604,11.438 3.684,5.522-1.44-.405-2.14-1.542-1.84-3.682zm-16.57-40.503c1.62,6.513-4.729,9.486 1.841,11.047-1.06-3.237 2.22-10.817-1.84-11.047z" fill="#eff0f0"></path>
	<path d="m8.846,55.239c-1.888-5.036 2.915-28.916-1.841-36.821 36.429-5.305 104.17,6.674 147.28-5.523 4.244,4.962.655,17.756 1.841,25.775 5.44-4.378-1.758-21.397 3.682-25.775v27.616c-43.664-8.81-99.633-6.136-138.08,9.206v-27.616c-7.443,7.068-.142,17.611-1.84,29.458-5.45,1.811-9.071,2.603-11.034,3.68zm1.841-36.821c1.204,11.07-2.424,26.972 1.84,34.98-1.204-11.07 2.424-26.972-1.84-34.98zm3.682,3.682c.847,6.588-1.927,26.381 1.841,23.934-.848-6.588 1.927-26.381-1.841-23.934zm138.08-3.682c.375,3.481-1.243,18.189 1.84,12.887-.38-3.48 1.24-18.189-1.84-12.887z" fill="#eff0f0"></path>
	<path d="m220.57,7.372c6.732-1.212 7.062,3.983 12.888,3.682 53.209,1.41 102.68,6.559 147.28,16.57-35.85-2.352-116.51-10.235-154.65,7.364 1.295-10.831 2.83-17.792-1.841-25.775-3.542,6.807 5.149,20.773-1.841,29.458-2.752,7.051.212-6.043 0-11.046-.31-7.204-3.53-13.809-1.84-20.253z" fill="#eff0f0"></path>
</svg>
