<?xml version="1.0" encoding="utf8" standalone="no"?>
<svg viewBox="0 0 1191.9146 777.25" xmlns="http://www.w3.org/2000/svg" xmlns:xlink="http://www.w3.org/1999/xlink">
<defs>
<filter id="filter5713"></filter>
<linearGradient id="linearGradient3904">
<stop offset="0" stop-color="#0c1115"/>
<stop offset="1" stop-color="#364356"/>
</linearGradient>
<linearGradient id="linearGradient4170">
<stop offset="0" stop-color="#364356"/>
<stop offset="1" stop-color="#0c1115"/>
</linearGradient>
<linearGradient gradientUnits="userSpaceOnUse" id="linearGradient4038" x1="20.74846" x2="37.35838">
<stop offset="0" stop-color="#364356"/>
<stop offset="1" stop-color="#fff"/>
</linearGradient>
<linearGradient gradientUnits="userSpaceOnUse" id="linearGradient4046" x1="33.8366" x2="37.41479">
<stop offset="0" stop-color="#364356"/>
<stop offset="1"/>
</linearGradient>
<linearGradient gradientUnits="userSpaceOnUse" id="linearGradient4102" x1="1025" x2="1055">
<stop offset="0" stop-color="#0c1115"/>
<stop offset=".5" stop-color="#364356"/>
<stop offset="1" stop-color="#0c1115"/>
</linearGradient>
<linearGradient gradientUnits="userSpaceOnUse" id="linearGradient4112" x1="1040.0201" x2="1039.8939" y1="39.69752" y2="14.76166">
<stop offset="0" stop-color="#0c1115"/>
<stop offset=".5356" stop-color="#0c1115" stop-opacity=".498"/>
<stop offset="1" stop-color="#364356"/>
</linearGradient>
<linearGradient gradientUnits="userSpaceOnUse" id="linearGradient4030" x1="82.48605" x2="82.1508" xlink:href="#linearGradient3904" y1="60.18141" y2="48.69092"/>
<linearGradient gradientUnits="userSpaceOnUse" id="linearGradient4054" x2="0" xlink:href="#linearGradient3904" y1="230.63489" y2="206.8528"/>
<linearGradient gradientUnits="userSpaceOnUse" id="linearGradient4062" x2="0" xlink:href="#linearGradient4170" y1="104.50098" y2="73.47995"/>
<linearGradient gradientUnits="userSpaceOnUse" id="linearGradient4070" x2="0" xlink:href="#linearGradient4170" y1="777.21429" y2="771.18073"/>
<linearGradient gradientUnits="userSpaceOnUse" id="linearGradient4184" x2="0" xlink:href="#linearGradient3904" y1="171.625" y2="131.5829"/>
<linearGradient gradientUnits="userSpaceOnUse" id="linearGradient3910" x1="692.41376" x2="691.40363" xlink:href="#linearGradient3904" y1="245.18936" y2="192.51923"/>
<linearGradient gradientUnits="userSpaceOnUse" id="linearGradient3918" x2="0" xlink:href="#linearGradient3904" y1="239.07234" y2="183.65584"/>
<linearGradient gradientUnits="userSpaceOnUse" id="linearGradient3926" x2="0" xlink:href="#linearGradient3904" y1="172.7285" y2="197.41782"/>
<pattern height="10" id="pattern3097" patternTransform="translate(472.5,255)" patternUnits="userSpaceOnUse" width="10">
<path d="m0,5c1.38071,0 2.5-1.11929 2.5-2.5h-2.49799z" fill="#fff"/>
<path d="m7.5,2.5c0,1.38071 1.11929,2.5 2.5,2.5l.006-2.5z" fill="#fff"/>
<path d="m2.5,7.5c0,1.38071 1.11929,2.5 2.5,2.5s2.5-1.11929 2.5-2.5h-5z" fill="#fff"/>
</pattern>
<pattern id="pattern7322" patternTransform="matrix(.34052,-.1966,.1966,.34052,471.34908,230.52118)" xlink:href="#pattern3097"/>
<radialGradient cx="1114.2561" cy="741.80597" gradientTransform="matrix(.81859,-.52835,.2429,.37634,21.95039,1049.5372)" gradientUnits="userSpaceOnUse" id="radialGradient4080" r="31.08805">
<stop offset="0" stop-color="#fff"/>
<stop offset=".3277" stop-color="#364356"/>
<stop offset="1"/>
</radialGradient>
<radialGradient cx="812.94458" cy="409.42413" gradientTransform="matrix(.30927,.85964,-1.11936,.40271,1019.901,-458.03533)" gradientUnits="userSpaceOnUse" id="radialGradient4092" r="20.54098">
<stop offset="0" stop-color="#364356"/>
<stop offset=".334" stop-color="#364356"/>
<stop offset="1" stop-color="#0c1115"/>
</radialGradient>
<radialGradient cx="980.51605" cy="509.49045" gradientTransform="matrix(.10658,.54849,-.62298,.12105,1197.0105,-83.38113)" gradientUnits="userSpaceOnUse" id="radialGradient5812" r="17.48827">
<stop offset="0" stop-color="#fff"/>
<stop offset="1"/>
</radialGradient>
<radialGradient cx="1109.6428" cy="84.85714" gradientTransform="matrix(1.33018,4.4737746e-8,-4.3177414e-8,1.28379,-366.38586,-24.0817)" gradientUnits="userSpaceOnUse" id="radialGradient4176" r="31.60714" xlink:href="#linearGradient4170"/>
</defs>
<g transform="translate(-15.57142,-14.75)">
<path d="m22,81c-8.60589,31.4781-8.53691,62.47427 0,93h5v-93h-5z" fill="url(#linearGradient4038)"/>
<path d="m38,67h-7l-6,13v132l8,39h13v-184z" fill="url(#linearGradient4046)"/>
<path d="m63,62-4-4v-9c2.25405-3.54415 6.27654-5.93866 11-7 12.31506-2.76715 21.50593-3.08147 29-2 7.60469,1.09743 6.26468,11.7825 6,21v1z" fill="url(#linearGradient4030)"/>
<path d="m1077.4936,49.18258 4.4638,4.0639 2.5439-3.50142-5.2444-2.98952z" fill="#364356" stroke="#364356"/>
<path d="m1072.9245,59.18323 5.5012,2.4856 1.3374-4.11617-5.9115-1.2226z" fill="#364356" stroke="#364356"/>
<path d="m1071.6696,70.1071 6,.664v-4.328l-6,.664z" fill="#364356" stroke="#364356"/>
<path d="m1073.8514,80.88419 5.9116-1.2226-1.3375-4.11617-5.5011,2.4856z" fill="#364356" stroke="#364356"/>
<path d="m1079.2566,90.45866 5.2444-2.98952-2.5439-3.50142-4.4639,4.0639z" fill="#364356" stroke="#364356"/>
<path d="m1087.3569,97.89475 4.0639-4.46381-3.5014-2.54393-2.9895,5.24439z" fill="#364356" stroke="#364356"/>
<path d="m1097.3573,102.46383 2.4856-5.50116-4.1161-1.33743-1.2226,5.91152z" fill="#364356" stroke="#364356"/>
<path d="m1108.2812,103.71874 .664-6h-4.328l.664,6z" fill="#364356" stroke="#364356"/>
<path d="m1119.0582,101.53676-1.2226-5.91152-4.1162,1.33743 2.4856,5.50116z" fill="#364356" stroke="#364356"/>
<path d="m1128.6325,96.13139-2.9895-5.24439-3.5014,2.54393 4.0639,4.46381z" fill="#364356" stroke="#364356"/>
<path d="m1136.0691,88.0317-4.4638-4.0639-2.5439,3.50142 5.2444,2.98952z" fill="#364356" stroke="#364356"/>
<path d="m1140.638,78.03069-5.5011-2.4856-1.3375,4.11617 5.9116,1.2226z" fill="#364356" stroke="#364356"/>
<path d="m1141.8928,67.1071-6-.664v4.328l6-.664z" fill="#364356" stroke="#364356"/>
<path d="m1139.7108,56.3302-5.9115,1.2226 1.3374,4.11617 5.5012-2.4856z" fill="#364356" stroke="#364356"/>
<path d="m1134.3055,46.75553-5.2444,2.98952 2.5439,3.50142 4.4638-4.0639z" fill="#364356" stroke="#364356"/>
<path d="m1126.2058,39.31953-4.0639,4.46381 3.5014,2.54393 2.9895-5.24439z" fill="#364356" stroke="#364356"/>
<path d="m1116.2047,34.75046-2.4856,5.50115 4.1162,1.33743 1.2226-5.91153z" fill="#364356" stroke="#364356"/>
<path d="m1105.2812,33.49554-.664,6h4.328l-.664-6z" fill="#364356" stroke="#364356"/>
<path d="m1094.5045,35.67752 1.2226,5.91153 4.1162-1.33743-2.4856-5.50115z" fill="#364356" stroke="#364356"/>
<path d="m308,252h-263l-7-12.92862v-48.07138h273v61z" fill="url(#linearGradient4054)"/>
<path d="m715,267c-11.25062,4.69424-18.24898,10.88949-22,18-3.32635,6.3055-5,14-3,18 16.9794,44.80673 10.63738,83.58327-25,111-2.56165,1.97074-1.30585,5.95905 2,6 25.09674.31084 51.31102,2.41992 74-5 55.77457-27.52119 55.88558-135.28387-26-148z" fill="#364356"/>
<path d="m1130,767 3,11h-208l-30-4-1-9z" fill="url(#linearGradient4070)"/>
<path d="m520,172v18c-72.65734.3273-205,1-205,1l-7,16.96875v43.96875l3,.0625-.0937,6.1875 4.0937,8.8125h165l17,7c11.8286,7.00509 32.57131,19.67073 35,34l10,59c8.09087,47.73613 50.13399,72.27054 78,72l103-1c22.9014-.22235 45.4433,2.82449 67.46875,10.15625 .84073.96549 1.69248,1.93524 2.53125,2.84375 15.79413,17.1072 31.26703,35.06239 36,56 22.63767,84.66667 40.02399,169.33333 60,254 .62697,2.81588 1.66104,5.51239 8,6l26,2h227c15,0 13.0877-21.13685 12-27l-64-345c-3.9282-71.17599 37.3749-109.31795 93-137 20.8357-17.83255 16-44.6343 16-69 0-2.37611-1.4764-4-3-4-.877,0-376.90147,1.83291-636,3v-18zm115,95h60.8125c44.32,0 80,35.68 80,80s-35.68,80-80,80h-60.8125c-44.32,0-80-35.68-80-80s35.68-80 80-80z" fill="url(#linearGradient3926)"/>
<path d="m1084.9296,41.08289 2.9895,5.24439 3.5014-2.54393-4.0639-4.46381z" fill="#364356" stroke="#364356"/>
<path d="m1141.25,84.85714c0,17.45614-14.151,31.60714-31.6072,31.60714s-31.6071-14.151-31.6071-31.60714 14.151-31.60714 31.6071-31.60714 31.6072,14.151 31.6072,31.60714z" fill="url(#radialGradient4176)" transform="translate(-2.85714,-16.25)"/>
<path d="m1061,58-246,3h-710l-61.8125-.9375-5.1875,7v123.9375h277l208.53125-.9375c8.8779-4.91261 19.3755-11.48314 26.46875-14.0625 10.08944-3.66889 17.65076,2.75437 18.0625,13.875l637.9375-2.875c-5.5307-45.95353-25.5854-82.17063-68-109-19.8714-12.56966-45.3045-19.96508-77-20z" fill="url(#linearGradient4062)"/>
<path d="m1050,763-95-1c-17.78825-.18724-28.30909-27.02289-30-35l-85-401-1-27c11.94774-33.84729 36.26933-47 56-47h105c19.0092,0 43.121,16.76343 46,30l82,377-1,16-34,11c-13.7775,4.45742-26.1838,20.13999-25,45l1,21c.2228,4.67824-6.6331,11.13018-19,11z"/>
<path d="m840,407c0,11.04569-8.95431,20-20,20s-20-8.95431-20-20 8.95431-20 20-20 20,8.95431 20,20z" fill="url(#radialGradient4092)" transform="matrix(.92424,0,0,.92424,58.63961,22.35014)"/>
<path d="m1132,778 1,5h-208l-29-4v-5l29,4z" fill="#0c1115"/>
<path d="m1133,783h3c4.3373,0 3.6437,9 0,9h-221l-19-4c-2.36085-3.14573-2.46016-6.15186 0-9l29,4z" fill="#364356"/>
<path d="m650,200h199c1.64572,12.21524-.17181,28.34322-15,30l-179,20c-34.10804,3.81095-33.26355-50-5-50z" fill="url(#linearGradient3910)"/>
<path d="m335,222c-6.89371,1.6701-13.80202,3.12595-20,15v30h165l17,7 102-2 22-5h89c49.69028,8.66268 81.56587,59.78405 58,117-8.51751,20.6798 8.77115,49.42193 25,67 15.79413,17.1072 31.26703,35.06239 36,56 22.63767,84.66667 40.02399,169.33333 60,254 .62697,2.81588 1.66104,5.51239 8,6l26,2-63-277c-2.70194-11.87997-23.3531-47.11789-50-60-27.45828-13.27436-25.95799-34.28265-20-55 22.0143-76.54903-36.62951-129.25348-80-128l-173,5c-8.40209-31.35704-34.70694-32-57-32h-145z" fill="#0c1115"/>
<path d="m1048.005,755.33503-92.15-.97c-17.2546-.18162-27.45982-26.2122-29.1-33.95l-82.45-388.97-.97-26.19c11.58931-32.83187 35.18125-45.59 54.32-45.59h101.85c18.4389,0 41.8274,16.26053 44.62,29.1l79.54,365.69c-9.3032-7.61369-37.5421-16.67571-51.1056-10.50162-18.09,8.23458-23.6859,50.74745-15.6807,73.52309l9.5563,27.18853c1.5065,4.28599-6.4341,10.79627-18.43,10.67z" fill="#0c1115"/>
<path d="m982.84375,455.96875c-30.35594,0-54.9375,24.61281-54.9375,54.96875s24.58156,54.96875 54.9375,54.96875 54.96875-24.61281 54.96875-54.96875-24.6128-54.96875-54.96875-54.96875zm-11.09375,2.84375 20.09375,32.53125 38.43745-6.8125-25.6874,28.4375 18.7187,33.28125-36-14.96875-26.84375,27.375 3.4375-37.65625-35.3125-16.375 38.09375-8.3125 5.0625-37.5z" fill="url(#pattern7322)" opacity=".2921" stroke="#000"/>
<path d="m984.21174,495.244-12.41721,14.71074 .61562-19.24095-17.82787-7.2636 18.48945-5.36029 1.39899-19.19989 10.81149,15.9281 18.69249-4.60258-11.80759,15.2044 10.15359,16.35534z" fill="none" stroke="#000" stroke-width=".55614" transform="matrix(1.82516,.10685,-.10335,1.76541,-758.6261,-450.44386)"/>
<path d="m1003.2077,515.50787c0,9.65851-7.82971,17.48827-17.48822,17.48827s-17.48826-7.82976-17.48826-17.48827 7.82976-17.48826 17.48826-17.48826 17.48822,7.82976 17.48822,17.48826z" fill="none" stroke="#000" stroke-width=".94863" transform="matrix(1.05415,0,0,1.05415,-56.97698,-33.15575)"/>
<path d="m1003.2077,515.50787c0,9.65851-7.82971,17.48827-17.48822,17.48827s-17.48826-7.82976-17.48826-17.48827 7.82976-17.48826 17.48826-17.48826 17.48822,7.82976 17.48822,17.48826z" fill="url(#radialGradient5812)" transform="matrix(.85386,0,0,.85386,140.4516,70.0947)"/>
<path d="m1025,66h30l-3-14h-24z" fill="url(#linearGradient4102)"/>
<path d="m1049,52-2-14-1-21c-2-3-10-3-12,0l-1,21-2,14" fill="url(#linearGradient4112)"/>
<path d="m1087.8125,744.875c-3.4328,0-6.2187,2.78594-6.2187,6.21875v.15625c.1014-3.34401 2.8501-6.03125 6.2187-6.03125s6.1173,2.68724 6.2187,6.03125v-.15625c0-3.43281-2.7859-6.21875-6.2187-6.21875z" fill="#0c1115"/>
<path d="m1097.1429,753.07141c0,4.33938-3.5178,7.85714-7.8571,7.85714s-7.8572-3.51776-7.8572-7.85714 3.5178-7.85714 7.8572-7.85714 7.8571,3.51776 7.8571,7.85714z" fill="#616b7a" transform="matrix(.79108,0,0,.79108,226.09043,155.69681)"/>
<path d="m1139.5312,710.65625c-3.7814,0-6.875,3.06226-6.875,6.84375 0,.0621.03.12582.031.1875 .098-3.69566 3.1243-6.65625 6.8437-6.65625 3.5452,0 6.4619,2.67236 6.8126,6.125-.1838-3.6174-3.1495-6.5-6.8126-6.5z" fill="#0c1115"/>
<path d="m1097.1429,753.07141c0,4.33938-3.5178,7.85714-7.8571,7.85714s-7.8572-3.51776-7.8572-7.85714 3.5178-7.85714 7.8572-7.85714 7.8571,3.51776 7.8571,7.85714z" fill="#616b7a" transform="matrix(.87144,0,0,.87144,190.27475,61.61381)"/>
<path d="m1135,715c-13.5313,15.83046-23.028,22.83412-48,31-6.5328,2.13624-3.504,13.32706 4,11 21.0603-6.53104 39.561-17.58534 52-35 5-7-2.9253-12.93695-8-7z" fill="url(#radialGradient4080)"/>
<path d="m890,86h2l3,16v75l-3,12h-2l-3-12v-75z" filter="url(#filter5713)" opacity=".8"/>
<path d="m890,86h2v103h-2z" fill="#364356"/>
<g transform="translate(10.85)">
<path d="m890,86h2l3,16v75l-3,12h-2l-3-12v-75z" filter="url(#filter5713)" opacity=".8"/>
<path d="m890,86h2v103h-2z" fill="#364356"/>
</g>
<g transform="translate(21.7)">
<path d="m890,86h2l3,16v75l-3,12h-2l-3-12v-75z" filter="url(#filter5713)" opacity=".8"/>
<path d="m890,86h2v103h-2z" fill="#364356"/>
</g>
<g transform="translate(32.55)">
<path d="m890,86h2l3,16v75l-3,12h-2l-3-12v-75z" filter="url(#filter5713)" opacity=".8"/>
<path d="m890,86h2v103h-2z" fill="#364356"/>
</g>
<g transform="translate(43.4)">
<path d="m890,86h2l3,16v75l-3,12h-2l-3-12v-75z" filter="url(#filter5713)" opacity=".8"/>
<path d="m890,86h2v103h-2z" fill="#364356"/>
</g>
<g transform="translate(54.25)">
<path d="m890,86h2l3,16v75l-3,12h-2l-3-12v-75z" filter="url(#filter5713)" opacity=".8"/>
<path d="m890,86h2v103h-2z" fill="#364356"/>
</g>
<g transform="translate(65.1)">
<path d="m890,86h2l3,16v75l-3,12h-2l-3-12v-75z" filter="url(#filter5713)" opacity=".8"/>
<path d="m890,86h2v103h-2z" fill="#364356"/>
</g>
<g transform="translate(75.95)">
<path d="m890,86h2l3,16v75l-3,12h-2l-3-12v-75z" filter="url(#filter5713)" opacity=".8"/>
<path d="m890,86h2v103h-2z" fill="#364356"/>
</g>
<g transform="translate(86.8)">
<path d="m890,86h2l3,16v75l-3,12h-2l-3-12v-75z" filter="url(#filter5713)" opacity=".8"/>
<path d="m890,86h2v103h-2z" fill="#364356"/>
</g>
<g transform="translate(97.65)">
<path d="m890,86h2l3,16v75l-3,12h-2l-3-12v-75z" filter="url(#filter5713)" opacity=".8"/>
<path d="m890,86h2v103h-2z" fill="#364356"/>
</g>
<g transform="translate(108.5)">
<path d="m890,86h2l3,16v75l-3,12h-2l-3-12v-75z" filter="url(#filter5713)" opacity=".8"/>
<path d="m890,86h2v103h-2z" fill="#364356"/>
</g>
<g transform="translate(119.35)">
<path d="m890,86h2l3,16v75l-3,12h-2l-3-12v-75z" filter="url(#filter5713)" opacity=".8"/>
<path d="m890,86h2v103h-2z" fill="#364356"/>
</g>
<g transform="translate(130.2)">
<path d="m890,86h2l3,16v75l-3,12h-2l-3-12v-75z" filter="url(#filter5713)" opacity=".8"/>
<path d="m890,86h2v103h-2z" fill="#364356"/>
</g>
<g transform="translate(141.05)">
<path d="m890,86h2l3,16v75l-3,12h-2l-3-12v-75z" filter="url(#filter5713)" opacity=".8"/>
<path d="m890,86h2v103h-2z" fill="#364356"/>
</g>
<g transform="translate(151.9)">
<path d="m890,86h2l3,16v75l-3,12h-2l-3-12v-75z" filter="url(#filter5713)" opacity=".8"/>
<path d="m890,86h2v103h-2z" fill="#364356"/>
</g>
<g transform="translate(162.75)">
<path d="m890,86h2l3,16v75l-3,12h-2l-3-12v-75z" filter="url(#filter5713)" opacity=".8"/>
<path d="m890,86h2v103h-2z" fill="#364356"/>
</g>
<g transform="translate(173.6)">
<path d="m890,86h2l3,16v75l-3,12h-2l-3-12v-75z" filter="url(#filter5713)" opacity=".8"/>
<path d="m890,86h2v103h-2z" fill="#364356"/>
</g>
<g transform="translate(184.45)">
<path d="m890,86h2l3,16v75l-3,12h-2l-3-12v-75z" filter="url(#filter5713)" opacity=".8"/>
<path d="m890,86h2v103h-2z" fill="#364356"/>
</g>
<g transform="translate(195.3)">
<path d="m890,86h2l3,16v75l-3,12h-2l-3-12v-75z" filter="url(#filter5713)" opacity=".8"/>
<path d="m890,86h2v103h-2z" fill="#364356"/>
</g>
<g transform="translate(206.15)">
<path d="m890,86h2l3,16v75l-3,12h-2l-3-12v-75z" filter="url(#filter5713)" opacity=".8"/>
<path d="m890,86h2v103h-2z" fill="#364356"/>
</g>
<g transform="translate(217)">
<path d="m890,86h2l3,16v75l-3,12h-2l-3-12v-75z" filter="url(#filter5713)" opacity=".8"/>
<path d="m890,86h2v103h-2z" fill="#364356"/>
</g>
<g transform="translate(227.85)">
<path d="m890,86h2l3,16v75l-3,12h-2l-3-12v-75z" filter="url(#filter5713)" opacity=".8"/>
<path d="m890,86h2v103h-2z" fill="#364356"/>
</g>
<g transform="translate(238.7)">
<path d="m890,86h2l3,16v75l-3,12h-2l-3-12v-75z" filter="url(#filter5713)" opacity=".8"/>
<path d="m890,86h2v103h-2z" fill="#364356"/>
</g>
<g transform="translate(249.55)">
<path d="m890,86h2l3,16v75l-3,12h-2l-3-12v-75z" filter="url(#filter5713)" opacity=".8"/>
<path d="m890,86h2v103h-2z" fill="#364356"/>
</g>
<path d="m845.0625,300.75c-.60023,1.4641-1.1705,2.94683-1.71875,4.5l.46875,12.6875 88.28125,416.5 .0312.0625c1.92075,3.73098 4.33165,7.58218 7.1875,10.875l-94.25-444.625z" fill="#364356"/>
<path d="m855.25,282.625c-1.29475,1.70992-2.55012,3.51315-3.75,5.4375l98.625,465.21875c1.63415.58722 3.33385.98104 5.125,1.0625l-100-471.71875z" fill="#364356"/>
<path d="m866.78125,270.8125c-1.40904,1.09727-2.76488,2.28738-4.125,3.5625l101.75,480.09375 4.90625.0625-102.53125-483.71875z" fill="#364356"/>
<path d="m879.25,263.5c-1.48512.62275-2.96519,1.30788-4.4375,2.09375l48.84375,230.375c.77323-3.07157 1.78126-6.03945 3-8.90625l-47.40625-223.5625zm55.5625,285.125 43.65625,206 4.90625.0312-42.21875-199.125c-2.28498-2.13684-4.40832-4.44344-6.34375-6.90625z" fill="#364356"/>
<path d="m892.53125,259.96875c-1.55538.17988-3.13414.43233-4.71875.78125l45.46875,214.5c1.20845-1.67638 2.50669-3.26965 3.875-4.8125l-44.625-210.46875zm59.5,303.65625 40.5,191.125 4.90625.0625-39.9375-188.34375c-1.87731-.85838-3.69936-1.80651-5.46875-2.84375z" fill="#364356"/>
<path d="m901.625,259.65625 43.15625,203.5625c1.36097-1.08713 2.76637-2.15544 4.21875-3.125l-42.5-200.4375h-4.875zm65.78125,310.34375 39.18755,184.90625 4.9062.0625-38.96875-183.875c-1.73027-.2951-3.44762-.65634-5.125-1.09375z" fill="#364356"/>
<path d="m915.65625,259.65625 41.5,195.875c1.47687-.68637 2.96193-1.33735 4.5-1.90625l-41.125-193.96875h-4.875zm71.0625,312.1875c-1.27903.0799-2.57582.15625-3.875.15625-.3373,0-.664-.0258-1-.0312l38.81245,183.09375 4.9063.0312-38.84375-183.25z" fill="#364356"/>
<path d="m929.6875,259.65625 40.59375,191.5c1.55223-.3253 3.12563-.57628 4.71875-.78125l-40.4375-190.71875h-4.875zm70.5625,309.8125c-1.5234.45163-3.08568.85406-4.65625,1.1875l39.12505,184.5625 4.9062.0312-39.375-185.78125z" fill="#364356"/>
<path d="m943.71875,259.65625 40.3125,190.21875c1.67217.0319 3.33207.1488 4.96875.3125l-40.40625-190.53125h-4.875zm69.40625,304.3125c-1.4346.82031-2.9018,1.577-4.4062,2.28125l40.0624,189.0625c1.6971-.0232 3.3037-.17476 4.8126-.4375l-40.4688-190.90625z" fill="#364356"/>
<path d="m957.75,259.65625 40.75,192.21875c1.7799.47007 3.5064,1.03342 5.2188,1.65625l-41.0938-193.875h-4.875zm67.4688,295.25c-1.3221,1.27421-2.6926,2.47315-4.125,3.625l40.9687,193.25c1.9567-1.23501 3.3384-2.65687 4.0313-4.0625l-2.1563-10.1875-7.0625-20.0625c-2.8435-8.09017-3.9454-18.66255-3.4062-29.3125l-28.25-133.25z" fill="#364356"/>
<path d="m971.78125,259.65625 42.09375,198.65625c1.9665,1.16188 3.8706,2.44444 5.6875,3.8125l-42.90625-202.46875h-4.875zm64.43755,281c-1.1127,1.99226-2.3662,3.9032-3.6876,5.75l25.0626,118.21875c.9205-2.80096 2.0059-5.43047 3.2187-7.84375l-24.5937-116.125z" fill="#364356"/>
<path d="m985.8125,259.65625 45.3437,213.90625c3.0062,3.88165 5.5521,8.14244 7.5626,12.6875l-48.0313-226.59375h-4.875zm58.125,251.28125c0,5.03444-.6326,9.91356-1.7813,14.59375l25.75,121.5c1.3367-1.19035 2.7649-2.13764 4.2813-2.875l-28.25-133.21875z" fill="#364356"/>
<path d="m999.84375,259.65625 81.03125,382.375c1.5596-.11828 3.2018-.15561 4.875-.0937l-80.9688-381.875c-1.6668-.24912-3.3264-.38895-4.93745-.40625z" fill="#364356"/>
<path d="m1014.5,262.65625 80.625,380.375c1.7125.32037 3.4271.72613 5.125,1.15625l-80.4062-379.25c-1.7511-.84614-3.5419-1.61332-5.3438-2.28125z" fill="#364356"/>
<path d="m1030.3125,271.25 79.75,376.03125c1.8884.71939 3.6762,1.46444 5.3437,2.25l-79.0937-373.15625c-1.7878-1.77886-3.8075-3.49587-6-5.125z" fill="#364356"/>
<path d="m298,191c-14.78388-16.66957-23.27063-39.89865-53-41h-207v41z" fill="url(#linearGradient4184)"/>
<path d="m1204,187-636,3c-4.39286-29.82143-30.22374-6.02679-45,0l-208,1" fill="none" stroke="#000" stroke-width="2"/>
<path d="m689.1875,297.3125c-.16259,2.23155.0732,4.20886.8125,5.6875 16.9794,44.80673 10.63738,83.58327-25,111-1.04067.80061-1.44464,1.93336-1.34375,3h1.34375c48.61673-30.38303 46.73907-74.51456 24.1875-119.6875z" fill="#0c1115"/>
<path d="m773.53125,366.125c-8.2158,33.71431-37.68859,58.94879-73.53125,60.78125v.09375c45,0 69.90142-30.99374 75-60l-1.46875-.875z" fill="#0c1115"/>
<path d="m849.46875,208.28125c-.0876,1.6173-.22431,3.21596-.375,4.8125 .22439-1.57739.33792-3.19832.375-4.8125zm-117.46875,2.71875c-9.39172,2.23035-26.1438,4.33365-27,11-.89879,6.99791 26.23795-2.77792 25,18l2.09375,1.375 101.90625-11.375c9.43579-1.05428 13.57841-7.96313 14.9375-16l-16.9375-2-100-1z" fill="#0c1115"/>
<path d="m849,214-17-2-100-1-6-11h123c.97115,4.99038.40593,9.46864 0,14z" fill="url(#linearGradient3918)"/>
<path d="m849,200-1-13.67857h-22l-11,13.67857z" fill="#0c1115"/>
<path d="m1030.9062,472.34375 .25,1.21875c.2858.36915.5664.7492.8438,1.125 .4493.60889.8857,1.21765 1.3125,1.84375 .055.081.1013.16869.1563.25 .2898.42963.5958.87513.875,1.3125 .1779.27847.3577.56223.5312.84375l.4375.71875c.2927.49013.5645.96986.8437,1.46875 .3269.58423.6607,1.18547.9688,1.78125 .085.16455.1664.33459.25.5 .1947.3851.3758.76659.5625,1.15625 .2643.55143.5331,1.09582.7813,1.65625l-.2813-1.21875c-2.0072-4.53643-4.5324-8.77989-7.5313-12.65625z"/>
<path d="m926.375,485.8125c-1.21673,2.86523-2.19663,5.86818-2.96875,8.9375l.25,1.21875c.19322-.76644.40313-1.52662.625-2.28125 .22223-.75585.4684-1.50662.71875-2.25 .24703-.73352.50743-1.46672.78125-2.1875 .0187-.0491.0124-.10717.0312-.15625 .26204-.68446.55805-1.35887.84375-2.03125v-.0312l-.28125-1.21875z"/>
<path d="m936.90625,469.21875c-1.36789,1.54463-2.66711,3.13432-3.875,4.8125l.25,1.21875c.0475-.0659.10845-.12183.15625-.1875 .44831-.61713.90446-1.2131 1.375-1.8125l.59375-.75c.4464-.55064.91008-1.09044 1.375-1.625l.375-.4375-.25-1.21875z"/>
<path d="m948.75,458.84375c-1.46577.97844-2.87732,2.02681-4.25,3.125l.28125,1.21875c.67347-.53801 1.3662-1.05284 2.0625-1.5625 .71193-.52111 1.42139-1.04071 2.15625-1.53125l-.25-1.25z"/>
<path d="m961.40625,452.40625c-1.53225.56748-3.02853,1.19085-4.5,1.875l.25,1.25c.72621-.33765 1.44614-.65917 2.1875-.96875 .76058-.32559 1.5304-.64822 2.3125-.9375l-.25-1.21875z"/>
<path d="m974.71875,449.125c-1.58315.2039-3.14476.45842-4.6875.78125l.25,1.25c.63192-.13224 1.26731-.23123 1.90625-.34375 .1891-.0325.37281-.0943.5625-.125 .74375-.1237 1.49741-.21596 2.25-.3125l-.28125-1.25z"/>
<path d="m983.75,448.625 .28125,1.25c.80476.0153 1.6094.0476 2.40625.0937h.0937 .15625c.77906.0484 1.54162.11018 2.3125.1875l-.28125-1.25c-1.6359-.16288-3.29731-.2501-4.9687-.2812z"/>
<path d="m998.25,450.625 .25,1.25 .25.0625c1.6893.4545 3.3407.96998 4.9688,1.5625l-.2813-1.21875c-1.7008-.61865-3.42-1.18839-5.1875-1.65625z"/>
<path d="m1013.5938,457.0625 .2812,1.25c.096.057.1853.13001.2812.1875 .8889.53242 1.7663,1.08065 2.625,1.65625 .8477.56817 1.6831,1.14122 2.5,1.75 .065.0486.1226.10743.1876.15625l.094.0625-.2813-1.25c-1.8191-1.37085-3.7183-2.64843-5.6874-3.8125z"/>
<path d="m1200,247c-65.7078,16.97278-112.0008,56.02528-110,150l63,340c3.4166,12.43331.06,22.15742-3,32 15,0 13.0877-21.13685 12-27l-64-345c-3.9282-71.17599 37.3749-109.31795 93-137 4.5988-3.93591 7.9494-8.31285 10.375-13h-1.375z" fill="#0c1115"/>
</g>
<g transform="translate(-15.57142,-14.75)"><text font-family="TFF Franklin Gothic" font-size="32" font-weight="bold" letter-spacing="0" word-spacing="0" x="1217.9915" xml:space="preserve" y="473.24561">
      <tspan x="1217.9915" y="473.24561"></tspan>
    </text>
<g font-family="TFF Franklin Gothic" font-size="22" font-weight="bold" letter-spacing="0" transform="matrix(.97814,-.20796,.20796,.97814,0,0)" word-spacing="0">
<path d="m833.95209,670.97418-3.69532.24707c0-.42968-.043-.8343-.1289-1.21386-.30795-1.34635-1.11004-2.01952-2.40625-2.01954-1.20313,2e-005-2.0088.75197-2.41699,2.25586-.10743.40105-.18979.82-.24707,1.25684-1e-005,.17188-.0107.43328-.0322.78418s-.0322.61231-.0322.78418c0,.65886.0394,1.26758.11817,1.82617 .16471,1.18165.56575,2.00163 1.20312,2.45996 .4082.29362.93815.44043 1.58985.44043 .76626,0 1.38215-.29362 1.84765-.88086 .40103-.5013.65527-1.15299.7627-1.95508l3.4375.21485c-.3008,2.59961-1.58628,4.30762-3.85645,5.12402-.71615.25781-1.50749.38672-2.37402.38672-1.60417,0-2.96843-.45833-4.09277-1.375-.98829-.80924-1.70443-1.95866-2.14844-3.44824-.2793-.94531-.41895-1.93001-.41895-2.9541 0-2.54947.70899-4.53678 2.12696-5.96192 .48697-.48696 1.04556-.88084 1.67578-1.18164 .88085-.41535 1.87271-.62303 2.97558-.62305 1.39648,2e-005 2.56021.29364 3.49121.88086 1.48241.93817 2.35611,2.58888 2.6211,4.95215"/>
</g>
<g fill="#121a20" font-family="TFF Franklin Gothic" font-size="22" font-weight="bold" letter-spacing="0" stroke="#000" stroke-width=".2" transform="matrix(.97814,-.20796,.20796,.97814,0,0)" word-spacing="0">
<path d="m833.94458,670.15936-3.69531.24707c-1e-005-.42967-.043-.8343-.12891-1.21386-.30795-1.34635-1.11003-2.01952-2.40625-2.01954-1.20313,2e-005-2.00879.75197-2.41699,2.25586-.10743.40106-.18978.82-.24707,1.25684-1e-005,.17188-.0108.43328-.0322.78418s-.0322.61231-.0322.78418c-1e-005,.65886.0394,1.26758.11816,1.82617 .16471,1.18165.56575,2.00163 1.20312,2.45996 .4082.29362.93815.44043 1.58985.44043 .76627,0 1.38215-.29361 1.84765-.88086 .40104-.5013.65527-1.15299.7627-1.95508l3.4375.21485c-.30079,2.59961-1.58627,4.30762-3.85645,5.12402-.71615.25781-1.50749.38672-2.37402.38672-1.60417,0-2.96843-.45833-4.09277-1.375-.98829-.80924-1.70443-1.95866-2.14844-3.44824-.2793-.94531-.41895-1.93001-.41894-2.9541-1e-005-2.54947.70898-4.53678 2.12695-5.96192 .48697-.48696 1.04557-.88084 1.67578-1.18164 .88085-.41535 1.87271-.62303 2.97559-.62305 1.39647,2e-005 2.56021.29364 3.49121.88086 1.48241.93817 2.3561,2.58888 2.62109,4.95215"/>
</g>
<g font-family="TFF Franklin Gothic" font-size="22" font-weight="bold" letter-spacing="0" transform="matrix(.98895,-.14824,.14824,.98895,0,0)" word-spacing="0">
<path d="m934.37756,665.64771v5.58593h-3.52343v-15.09277h5.68261c.93815,1e-005 1.63997.0358 2.10547.10742 1.55403.24351 2.69628,1.04201 3.42676,2.39551 .32941.62306.49413,1.32846.49414,2.11621-1e-005,.77345-.1325,1.46811-.39746,2.08398-.30079.70183-.71258,1.28191-1.23535,1.74024-.56577.49415-1.23894.80209-2.01953.92383-.60874.0931-1.36427.13965-2.2666.13965h-2.26661m2.57813-2.75c.70897-.0788 1.2246-.2972 1.54687-.65528 .32942-.36522.49413-.81639.49414-1.35351-1e-005-.67317-.24349-1.19954-.73046-1.57911-.23634-.18618-.54428-.31151-.92383-.37597-.16472-.0286-.50131-.043-1.00977-.043h-1.95508v4.00684h2.57813"/>
</g>
<g fill="#121a20" font-family="TFF Franklin Gothic" font-size="22" font-weight="bold" letter-spacing="0" stroke="#000" stroke-width=".2" transform="matrix(.98895,-.14824,.14824,.98895,0,0)" word-spacing="0">
<path d="m934.33368,664.7475v5.58594h-3.52344v-15.09278h5.68262c.93814,2e-005 1.63996.0358 2.10547.10742 1.55402.24351 2.69627,1.04201 3.42676,2.39551 .32941.62306.49412,1.32846.49414,2.11621-2e-005,.77345-.1325,1.46811-.39746,2.08399-.3008.70183-.71258,1.2819-1.23536,1.74023-.56576.49415-1.23894.80209-2.01953.92383-.60873.0931-1.36426.13965-2.2666.13965h-2.2666m2.57812-2.75c.70898-.0788 1.2246-.29719 1.54688-.65528 .32942-.36522.49413-.81639.49414-1.35351-1e-005-.67317-.2435-1.19953-.73047-1.5791-.23634-.18619-.54428-.31151-.92383-.37598-.16472-.0286-.50131-.043-1.00976-.043h-1.95508v4.00684h2.57812"/>
</g>
<g font-family="TFF Franklin Gothic" font-size="22" font-weight="bold" letter-spacing="0" transform="matrix(.97814,-.20796,.20796,.97814,0,0)" word-spacing="0">
<path d="m887.7074,669.68732-3.69532.24707c0-.42968-.043-.8343-.1289-1.21387-.30795-1.34634-1.11004-2.01952-2.40625-2.01953-1.20313,1e-005-2.0088.75196-2.41699,2.25586-.10743.40105-.18979.81999-.24707,1.25683-1e-005,.17189-.0108.43328-.0322.78418s-.0322.61232-.0322.78418c0,.65886.0394,1.26759.11817,1.82618 .16471,1.18164.56575,2.00163 1.20312,2.45996 .4082.29362.93815.44043 1.58985.44043 .76626,0 1.38215-.29362 1.84765-.88086 .40103-.5013.65527-1.15299.7627-1.95508l3.4375.21484c-.3008,2.59961-1.58628,4.30762-3.85645,5.12403-.71615.25781-1.50749.38671-2.37402.38671-1.60417,0-2.96843-.45833-4.09277-1.375-.98829-.80924-1.70443-1.95865-2.14844-3.44824-.2793-.9453-.41895-1.93-.41895-2.9541 0-2.54947.70899-4.53677 2.12696-5.96191 .48697-.48697 1.04556-.88085 1.67578-1.18164 .88085-.41535 1.87271-.62304 2.97558-.62305 1.39648,1e-005 2.56021.29363 3.49121.88086 1.48241.93816 2.35611,2.58888 2.6211,4.95215"/>
</g>
<g fill="#121a20" font-family="TFF Franklin Gothic" font-size="22" font-weight="bold" letter-spacing="0" stroke="#000" stroke-width=".2" transform="matrix(.97814,-.20796,.20796,.97814,0,0)" word-spacing="0">
<path d="m887.69989,668.8725-3.69531.24707c-1e-005-.42968-.043-.8343-.12891-1.21387-.30795-1.34634-1.11003-2.01952-2.40625-2.01953-1.20313,1e-005-2.00879.75196-2.41699,2.25586-.10743.40105-.18978.82-.24707,1.25683-1e-005,.17189-.0107.43328-.0322.78418s-.0322.61232-.0322.78418c-1e-005,.65887.0394,1.26759.11816,1.82618 .16471,1.18164.56575,2.00163 1.20312,2.45996 .4082.29362.93815.44043 1.58985.44043 .76627,0 1.38215-.29362 1.84765-.88086 .40104-.5013.65527-1.15299.7627-1.95508l3.4375.21484c-.30079,2.59961-1.58627,4.30762-3.85645,5.12403-.71615.25781-1.50749.38671-2.37402.38672-1.60417-1e-005-2.96843-.45834-4.09277-1.375-.98829-.80925-1.70443-1.95866-2.14844-3.44825-.2793-.9453-.41895-1.93-.41894-2.9541-1e-005-2.54947.70898-4.53677 2.12695-5.96191 .48697-.48697 1.04557-.88085 1.67578-1.18164 .88085-.41535 1.87271-.62303 2.97559-.62305 1.39647,2e-005 2.56021.29363 3.49121.88086 1.48241.93816 2.3561,2.58888 2.62109,4.95215"/>
</g>
<g font-family="TFF Franklin Gothic" font-size="22" font-weight="bold" letter-spacing="0" transform="matrix(.97814,-.20796,.20796,.97814,0,0)" word-spacing="0">
<path d="m822.04761,716.74933-3.69532.24707c0-.42968-.043-.8343-.1289-1.21387-.30795-1.34634-1.11004-2.01952-2.40625-2.01953-1.20313,1e-005-2.0088.75197-2.41699,2.25586-.10743.40105-.18979.82-.24707,1.25684-1e-005,.17188-.0108.43327-.0322.78418s-.0322.61231-.0322.78418c0,.65886.0394,1.26758.11817,1.82617 .16471,1.18164.56575,2.00163 1.20312,2.45996 .4082.29362.93815.44043 1.58985.44043 .76626,0 1.38215-.29362 1.84765-.88086 .40103-.5013.65527-1.15299.7627-1.95508l3.4375.21484c-.3008,2.59962-1.58628,4.30762-3.85645,5.12403-.71615.25781-1.50749.38672-2.37402.38672-1.60417,0-2.96843-.45834-4.09277-1.375-.98829-.80925-1.70443-1.95866-2.14844-3.44825-.2793-.9453-.41895-1.93-.41895-2.9541 0-2.54947.70899-4.53677 2.12696-5.96191 .48697-.48697 1.04556-.88085 1.67578-1.18164 .88085-.41535 1.87271-.62303 2.97558-.62305 1.39648,2e-005 2.56021.29364 3.49121.88086 1.48241.93816 2.35611,2.58888 2.6211,4.95215"/>
</g>
<g fill="#121a20" font-family="TFF Franklin Gothic" font-size="22" font-weight="bold" letter-spacing="0" stroke="#000" stroke-width=".2" transform="matrix(.97814,-.20796,.20796,.97814,0,0)" word-spacing="0">
<path d="m822.0401,715.93451-3.69531.24707c-1e-005-.42968-.043-.8343-.12891-1.21387-.30795-1.34634-1.11003-2.01952-2.40625-2.01953-1.20313,1e-005-2.00879.75197-2.41699,2.25586-.10743.40105-.18978.82-.24707,1.25684-1e-005,.17188-.0108.43327-.0322.78418s-.0322.61231-.0322.78418c-1e-005,.65886.0394,1.26758.11816,1.82617 .16471,1.18164.56575,2.00163 1.20312,2.45996 .4082.29362.93815.44043 1.58985.44043 .76627,0 1.38215-.29362 1.84765-.88086 .40104-.5013.65527-1.15299.7627-1.95508l3.4375.21484c-.30079,2.59962-1.58627,4.30762-3.85645,5.12403-.71615.25781-1.50749.38672-2.37402.38672-1.60417,0-2.96843-.45834-4.09277-1.375-.98829-.80925-1.70443-1.95866-2.14844-3.44825-.2793-.9453-.41895-1.93-.41894-2.9541-1e-005-2.54947.70898-4.53677 2.12695-5.96191 .48697-.48697 1.04557-.88085 1.67578-1.18164 .88085-.41535 1.87271-.62303 2.97559-.62305 1.39647,2e-005 2.56021.29364 3.49121.88086 1.48241.93817 2.3561,2.58888 2.62109,4.95215"/>
</g>
</g>
</svg>
