<?xml version="1.0" encoding="utf8" standalone="no"?>
<svg viewBox="0 0 32 32" xmlns="http://www.w3.org/2000/svg">
<g transform="translate(-247.6275,-590.08152)">
<path d="m124.24876,512.68817c0,11.8552-9.49747,21.46574-21.2132,21.46574s-21.2132-9.61054-21.2132-21.46574 9.49747-21.46574 21.2132-21.46574 21.2132,9.61054 21.2132,21.46574z" fill="#8f0000" stroke="#cd0000" transform="matrix(.122978,.193164,-.443198,.041855,478.12116,553.06652)"/>
<path d="m258.74838,598.04555 4.60541,11.97559 4.73015-11.78454c-3.09344.55817-6.24332.39455-9.33556-.19101z" fill="#8f0000" fill-rule="evenodd" stroke="#cd0000" stroke-width=".32031"/>
<path d="m263.19136,610.6681 .96264,10.49245 5.83312-11.53702c-1.84212.63092-4.32332.83482-6.79576,1.04457z" fill="#8f0000" fill-rule="evenodd" stroke="#cd0000" stroke-width=".32031"/>
<path d="m263.30826,610.63276 .6119,10.9279-7.60268-11.72682c1.86368.56403 4.51238.6785 6.99078.79892z" fill="#d52020" fill-rule="evenodd" stroke="#cd0000" stroke-width=".32031"/>
<path d="m263.51524,610.34487 4.72144-12.04279 7.09128,9.22382c-2.33644.95444-7.78566,3.60721-11.81272,2.81897z" fill="#900" fill-rule="evenodd" stroke="#cd0000" stroke-width=".32031"/>
<path d="m268.26692,598.17092c3.43242-.62314 4.77932-1.76413 5.32292-3.45499l1.7909,12.59416z" fill="#be0e09" fill-rule="evenodd" stroke="#cd0000" stroke-width=".32031"/>
<path d="m273.87472,595.77439 4.8886,3.84604c.35864.79878 1.0638,2.42599.48212,3.91856-.66984,1.71887-1.9984,2.98672-3.63614,4.00013l-1.87748-11.85069" fill="#8f0000" fill-rule="evenodd" stroke="#cd0000" stroke-width=".32031"/>
<path d="m272.87668,592.97064c.47792.63338.66302,1.25845.91247,2.57487l5.06011,3.93202z" fill="#8f0000" fill-rule="evenodd" stroke="#cd0000" stroke-width=".32031"/>
<path d="m263.4655,610.41783-4.64358-12.22405-9.10712,8.52072c1.55066,1.42643 9.7219,4.48333 13.7507,3.70333z" fill="#a60000" fill-rule="evenodd" stroke="#cd0000" stroke-width=".32031"/>
<path d="m258.63926,598.08877c-3.27034-1.21437-4.79728-2.40232-5.03652-4.16222l-3.81806,12.53942z" fill="#8f0000" fill-rule="evenodd" stroke="#cd0000" stroke-width=".32031"/>
<path d="m254.13318,592.8511-5.83928,7.12386c-1.59378,3.37083 1.06844,6.12382 1.25148,6.63483z" fill="#ad0f0f" fill-rule="evenodd" stroke="#cd0000" stroke-width=".32031"/>
<path d="m249.47592,606.7079 14.48188,15.04201-7.65474-12.11438c-2.63968-.61265-4.63578-1.86757-6.82714-2.92763z" fill="#8f0000" fill-rule="evenodd" stroke="#cd0000" stroke-width=".32031"/>
<path d="m275.55076,607.4443-11.70752,14.47707 6.07264-12.15739c2.01472-.78866 3.82966-1.58319 5.63488-2.31968z" fill="#900" fill-rule="evenodd" stroke="#cd0000" stroke-width=".32031"/>
<path d="m275.55076,607.4443-11.70752,14.47707 15.07264-17.53253z" fill="#900" fill-rule="evenodd" stroke="#cd0000" stroke-width=".32031"/>
</g>
</svg>
